<svg width="438" height="442" viewBox="0 0 438 442" fill="none" xmlns="http://www.w3.org/2000/svg">
<path d="M217.562 235.723V224.355H206.195V222.48H217.562V211.172H219.438V222.48H230.746V224.355H219.438V235.723H217.562Z" fill="#3191FF"/>
<path d="M1 131.5C1 129.781 1.03321 128.071 1.09903 126.368L0.099778 126.33C0.233859 122.862 0.502237 119.428 0.89986 116.034L1.89307 116.151C2.29323 112.735 2.82527 109.36 3.48396 106.03L2.50298 105.836C3.17506 102.439 3.97801 99.0887 4.90634 95.791L5.86893 96.0619C6.7986 92.7594 7.85501 89.51 9.03255 86.3192L8.0944 85.973C9.29098 82.7307 10.6117 79.5484 12.0508 76.4321L12.9586 76.8513C14.3949 73.7412 15.9499 70.6971 17.6179 67.7249L16.7459 67.2355C18.4341 64.2274 20.2372 61.2924 22.1491 58.4366L22.9801 58.9929C24.8835 56.1497 26.8958 53.3855 29.0108 50.7062L28.2259 50.0866C30.3606 47.3825 32.5992 44.7641 34.9357 42.2377L35.6699 42.9167C37.9902 40.4078 40.4078 37.9902 42.9167 35.6699L42.2377 34.9358C44.7641 32.5992 47.3824 30.3606 50.0866 28.2259L50.7062 29.0108C53.3855 26.8958 56.1497 24.8836 58.9928 22.9801L58.4365 22.1492C61.2924 20.2372 64.2274 18.4341 67.2355 16.7459L67.7249 17.618C70.6971 15.9499 73.7411 14.3949 76.8513 12.9587L76.4321 12.0508C79.5484 10.6117 82.7306 9.29099 85.973 8.09441L86.3192 9.03256C89.51 7.85501 92.7594 6.79861 96.0619 5.86893L95.7909 4.90634C99.0886 3.97801 102.439 3.17507 105.836 2.50298L106.03 3.48397C109.36 2.82527 112.735 2.29323 116.151 1.89307L116.034 0.899859C119.428 0.502236 122.862 0.233858 126.33 0.0997774L126.368 1.09903C128.071 1.03321 129.781 1 131.5 1C133.219 1 134.929 1.03321 136.632 1.09903L136.67 0.099778C140.138 0.233859 143.572 0.502237 146.966 0.89986L146.849 1.89307C150.265 2.29323 153.64 2.82527 156.97 3.48396L157.164 2.50298C160.561 3.17506 163.911 3.97801 167.209 4.90634L166.938 5.86893C170.241 6.7986 173.49 7.85501 176.681 9.03255L177.027 8.0944C180.269 9.29098 183.452 10.6117 186.568 12.0508L186.149 12.9586C189.259 14.3949 192.303 15.9499 195.275 17.6179L195.764 16.7459C198.773 18.4341 201.708 20.2372 204.563 22.1491L204.007 22.9801C206.85 24.8835 209.614 26.8958 212.294 29.0108L212.913 28.2259C215.618 30.3606 218.236 32.5992 220.762 34.9357L220.083 35.6699C222.592 37.9902 225.01 40.4078 227.33 42.9167L228.064 42.2377C230.401 44.7641 232.639 47.3824 234.774 50.0866L233.989 50.7062C236.104 53.3855 238.116 56.1497 240.02 58.9928L240.851 58.4365C242.763 61.2924 244.566 64.2274 246.254 67.2355L245.382 67.7249C247.05 70.6971 248.605 73.7411 250.041 76.8513L250.949 76.4321C252.388 79.5484 253.709 82.7306 254.906 85.973L253.967 86.3192C255.145 89.51 256.201 92.7594 257.131 96.0619L258.094 95.7909C259.022 99.0887 259.825 102.439 260.497 105.836L259.516 106.03C260.175 109.36 260.707 112.735 261.107 116.151L262.1 116.034C262.498 119.428 262.766 122.862 262.9 126.33L261.901 126.368C261.967 128.071 262 129.781 262 131.5V136.196H263V145.589H262V154.982H263V164.375H262V173.768H263V183.161H262V192.554H263V201.946H262V211.339H263V220.732H262V230.125H263V239.518H262V248.911H263V258.304H262V262H258.304V263H248.911V262H239.518V263H230.125V262H220.732V263H211.339V262H201.946V263H192.554V262H183.161V263H173.768V262H164.375V263H154.982V262H145.589V263H136.196V262H131.5C129.781 262 128.071 261.967 126.368 261.901L126.33 262.9C122.862 262.766 119.428 262.498 116.034 262.1L116.151 261.107C112.735 260.707 109.36 260.175 106.03 259.516L105.836 260.497C102.439 259.825 99.0887 259.022 95.7909 258.094L96.0619 257.131C92.7594 256.201 89.51 255.145 86.3192 253.967L85.973 254.906C82.7307 253.709 79.5484 252.388 76.4321 250.949L76.8513 250.041C73.7412 248.605 70.6971 247.05 67.7249 245.382L67.2355 246.254C64.2274 244.566 61.2924 242.763 58.4366 240.851L58.9929 240.02C56.1497 238.116 53.3855 236.104 50.7062 233.989L50.0866 234.774C47.3825 232.639 44.7641 230.401 42.2377 228.064L42.9167 227.33C40.4078 225.01 37.9902 222.592 35.6699 220.083L34.9358 220.762C32.5992 218.236 30.3606 215.618 28.2259 212.913L29.0108 212.294C26.8958 209.615 24.8836 206.85 22.9801 204.007L22.1492 204.563C20.2372 201.708 18.4341 198.773 16.7459 195.765L17.618 195.275C15.9499 192.303 14.3949 189.259 12.9587 186.149L12.0508 186.568C10.6117 183.452 9.29099 180.269 8.09441 177.027L9.03256 176.681C7.85501 173.49 6.79861 170.241 5.86893 166.938L4.90634 167.209C3.97801 163.911 3.17507 160.561 2.50298 157.164L3.48397 156.97C2.82527 153.64 2.29323 150.265 1.89307 146.849L0.899859 146.966C0.502237 143.572 0.233858 140.138 0.0997774 136.67L1.09903 136.632C1.03321 134.929 1 133.219 1 131.5Z" stroke="#3191FF" stroke-width="2" stroke-dasharray="10 10"/>
<path d="M437.1 295.034C437.498 298.428 437.766 301.862 437.9 305.33L436.901 305.368C436.967 307.071 437 308.781 437 310.5C437 312.219 436.967 313.929 436.901 315.632L437.9 315.67C437.766 319.138 437.498 322.572 437.1 325.966L436.107 325.849C435.707 329.265 435.175 332.64 434.516 335.97L435.497 336.164C434.825 339.561 434.022 342.911 433.094 346.209L432.131 345.938C431.201 349.241 430.145 352.49 428.967 355.681L429.906 356.027C428.709 359.269 427.388 362.452 425.949 365.568L425.041 365.149C423.605 368.259 422.05 371.303 420.382 374.275L421.254 374.765C419.566 377.773 417.763 380.708 415.851 383.563L415.02 383.007C413.116 385.85 411.104 388.615 408.989 391.294L409.774 391.913C407.639 394.618 405.401 397.236 403.064 399.762L402.33 399.083C400.01 401.592 397.592 404.01 395.083 406.33L395.762 407.064C393.236 409.401 390.618 411.639 387.913 413.774L387.294 412.989C384.614 415.104 381.85 417.116 379.007 419.02L379.563 419.851C376.708 421.763 373.773 423.566 370.764 425.254L370.275 424.382C367.303 426.05 364.259 427.605 361.149 429.041L361.568 429.949C358.452 431.388 355.269 432.709 352.027 433.906L351.681 432.967C348.49 434.145 345.241 435.201 341.938 436.131L342.209 437.094C338.911 438.022 335.561 438.825 332.164 439.497L331.97 438.516C328.64 439.175 325.265 439.707 321.849 440.107L321.966 441.1C318.572 441.498 315.138 441.766 311.67 441.9L311.632 440.901C309.929 440.967 308.219 441 306.5 441C304.781 441 303.071 440.967 301.368 440.901L301.33 441.9C297.862 441.766 294.428 441.498 291.034 441.1L291.151 440.107C287.735 439.707 284.36 439.175 281.03 438.516L280.836 439.497C277.439 438.825 274.089 438.022 270.791 437.094L271.062 436.131C267.759 435.201 264.51 434.145 261.319 432.967L260.973 433.906C257.731 432.709 254.548 431.388 251.432 429.949L251.851 429.041C248.741 427.605 245.697 426.05 242.725 424.382L242.236 425.254C239.227 423.566 236.292 421.763 233.437 419.851L233.993 419.02C231.15 417.116 228.386 415.104 225.706 412.989L225.087 413.774C222.382 411.639 219.764 409.401 217.238 407.064L217.917 406.33C215.408 404.01 212.99 401.592 210.67 399.083L209.936 399.762C207.599 397.236 205.361 394.618 203.226 391.913L204.011 391.294C201.896 388.614 199.884 385.85 197.98 383.007L197.149 383.563C195.237 380.708 193.434 377.773 191.746 374.764L192.618 374.275C190.95 371.303 189.395 368.259 187.959 365.149L187.051 365.568C185.612 362.452 184.291 359.269 183.094 356.027L184.033 355.681C182.855 352.49 181.799 349.241 180.869 345.938L179.906 346.209C178.978 342.911 178.175 339.561 177.503 336.164L178.484 335.97C177.825 332.64 177.293 329.265 176.893 325.849L175.9 325.966C175.502 322.572 175.234 319.138 175.1 315.67L176.099 315.632C176.033 313.929 176 312.219 176 310.5L176 305.804L175 305.804L175 296.411L176 296.411L176 287.018L175 287.018L175 277.625L176 277.625L176 268.232L175 268.232L175 258.839L176 258.839L176 249.446L175 249.446L175 240.054L176 240.054L176 230.661L175 230.661L175 221.268L176 221.268L176 211.875L175 211.875L175 202.482L176 202.482L176 193.089L175 193.089L175 183.696L176 183.696L176 180L179.696 180L179.696 179L189.089 179L189.089 180L198.482 180L198.482 179L207.875 179L207.875 180L217.268 180L217.268 179L226.661 179L226.661 180L236.054 180L236.054 179L245.446 179L245.446 180L254.839 180L254.839 179L264.232 179L264.232 180L273.625 180L273.625 179L283.018 179L283.018 180L292.411 180L292.411 179L301.804 179L301.804 180L306.5 180C308.219 180 309.929 180.033 311.632 180.099L311.67 179.1C315.138 179.234 318.572 179.502 321.966 179.9L321.849 180.893C325.265 181.293 328.64 181.825 331.97 182.484L332.164 181.503C335.561 182.175 338.911 182.978 342.209 183.906L341.938 184.869C345.241 185.799 348.49 186.855 351.681 188.033L352.027 187.094C355.269 188.291 358.452 189.612 361.568 191.051L361.149 191.959C364.259 193.395 367.303 194.95 370.275 196.618L370.765 195.746C373.773 197.434 376.708 199.237 379.564 201.149L379.007 201.98C381.85 203.884 384.615 205.896 387.294 208.011L387.913 207.226C390.618 209.361 393.236 211.599 395.762 213.936L395.083 214.67C397.592 216.99 400.01 219.408 402.33 221.917L403.064 221.238C405.401 223.764 407.639 226.382 409.774 229.087L408.989 229.706C411.104 232.386 413.116 235.15 415.02 237.993L415.851 237.437C417.763 240.292 419.566 243.227 421.254 246.236L420.382 246.725C422.05 249.697 423.605 252.741 425.041 255.851L425.949 255.432C427.388 258.548 428.709 261.731 429.906 264.973L428.967 265.319C430.145 268.51 431.201 271.759 432.131 275.062L433.094 274.791C434.022 278.089 434.825 281.439 435.497 284.836L434.516 285.03C435.175 288.36 435.707 291.735 436.107 295.151L437.1 295.034Z" stroke="#3191FF" stroke-width="2" stroke-dasharray="10 10"/>
<path d="M102.543 117.836H93.4375V121.746H88.9805V117.836H79.4648V114.418H102.543V117.836ZM100.027 127.352H82.0352V119.668H86.4648V123.852H100.027V127.352ZM91.0039 102.824C92.8359 102.824 94.4492 103.043 95.8438 103.48C97.2474 103.918 98.3366 104.542 99.1113 105.354C99.8861 106.165 100.273 107.108 100.273 108.184C100.273 109.25 99.8861 110.184 99.1113 110.986C98.3366 111.788 97.2474 112.408 95.8438 112.846C94.4492 113.274 92.8359 113.488 91.0039 113.488C89.1536 113.488 87.5221 113.274 86.1094 112.846C84.7057 112.408 83.6165 111.788 82.8418 110.986C82.0671 110.184 81.6797 109.25 81.6797 108.184C81.6797 107.108 82.0671 106.165 82.8418 105.354C83.6165 104.542 84.7057 103.918 86.1094 103.48C87.5221 103.043 89.1536 102.824 91.0039 102.824ZM91.0039 106.242C89.5273 106.242 88.3926 106.402 87.5996 106.721C86.8158 107.031 86.4284 107.518 86.4375 108.184C86.4284 108.794 86.8158 109.25 87.5996 109.551C88.3926 109.842 89.5273 109.997 91.0039 110.016C92.4622 109.997 93.5833 109.842 94.3672 109.551C95.151 109.25 95.543 108.794 95.543 108.184C95.543 106.889 94.0299 106.242 91.0039 106.242ZM126.797 117.453H103.664V114.008H113.098V112.367H106.398V103.508H124.09V106.898H110.746V108.949H124.199V112.367H117.418V114.008H126.797V117.453ZM115.148 118.328C116.99 118.328 118.571 118.515 119.893 118.889C121.214 119.253 122.226 119.791 122.928 120.502C123.639 121.213 123.999 122.074 124.008 123.086C123.999 124.07 123.639 124.913 122.928 125.615C122.226 126.326 121.21 126.864 119.879 127.229C118.557 127.602 116.98 127.789 115.148 127.789C113.298 127.789 111.703 127.602 110.363 127.229C109.023 126.864 107.993 126.326 107.273 125.615C106.562 124.913 106.207 124.07 106.207 123.086C106.207 122.074 106.562 121.213 107.273 120.502C107.984 119.791 109.01 119.253 110.35 118.889C111.689 118.515 113.289 118.328 115.148 118.328ZM115.148 121.637C113.581 121.637 112.441 121.751 111.73 121.979C111.02 122.206 110.673 122.576 110.691 123.086C110.682 123.432 110.828 123.706 111.129 123.906C111.439 124.107 111.917 124.253 112.564 124.344C113.212 124.435 114.073 124.48 115.148 124.48C116.716 124.48 117.851 124.376 118.553 124.166C119.255 123.956 119.605 123.596 119.605 123.086C119.605 122.585 119.245 122.22 118.525 121.992C117.814 121.755 116.689 121.637 115.148 121.637ZM131.5 118.984C131.017 118.984 130.57 118.866 130.16 118.629C129.75 118.392 129.426 118.073 129.189 117.672C128.952 117.262 128.839 116.815 128.848 116.332C128.839 115.858 128.952 115.421 129.189 115.02C129.426 114.618 129.75 114.299 130.16 114.062C130.57 113.826 131.017 113.707 131.5 113.707C131.956 113.707 132.389 113.826 132.799 114.062C133.209 114.299 133.537 114.618 133.783 115.02C134.029 115.421 134.152 115.858 134.152 116.332C134.152 116.815 134.029 117.262 133.783 117.672C133.537 118.073 133.209 118.392 132.799 118.629C132.389 118.866 131.956 118.984 131.5 118.984ZM146.43 105.969C146.411 107.564 146.835 108.981 147.701 110.221C148.567 111.46 150.021 112.358 152.062 112.914L149.93 116.359C147.268 115.566 145.34 114.09 144.146 111.93C143.554 113.069 142.757 114.053 141.754 114.883C140.76 115.703 139.557 116.323 138.145 116.742L135.984 113.297C138.062 112.677 139.557 111.706 140.469 110.385C141.38 109.063 141.845 107.591 141.863 105.969V103.562H146.43V105.969ZM157.613 127.707H153.211V121.883H140.031V118.41H157.613V127.707ZM157.613 117.426H153.211V102.414H157.613V117.426ZM180.719 108.949H183.891V112.531H180.719V120.707H176.316V102.469H180.719V108.949ZM172.816 107.828H165.707V113.229C167.885 113.21 169.626 113.151 170.93 113.051C172.242 112.951 173.5 112.768 174.703 112.504L175.141 116.004C173.719 116.296 172.178 116.492 170.52 116.592C168.87 116.692 166.546 116.742 163.547 116.742H161.332V104.355H172.816V107.828ZM181.457 127.352H163.957V118.684H168.359V123.852H181.457V127.352ZM82.8008 138.914C82.8008 140.245 82.7689 141.475 82.7051 142.605C82.6504 143.736 82.5091 144.966 82.2812 146.297L77.9883 145.887C78.2708 144.228 78.4395 142.514 78.4941 140.746H69.5391V137.191H82.8008V138.914ZM76.6484 147.664C79.2826 147.536 81.5977 147.327 83.5938 147.035L83.8125 150.152C81.4792 150.599 79.0547 150.895 76.5391 151.041C74.0234 151.178 71.3255 151.246 68.4453 151.246L68.0625 147.828H69.4844C69.9401 147.819 70.4004 147.814 70.8652 147.814C71.3392 147.805 71.8177 147.796 72.3008 147.787V143.18H76.6484V147.664ZM89.2266 142.797H91.8789V146.434H89.2266V154.281H84.7148V135.414H89.2266V142.797ZM89.9922 160.352H71.6719V152.613H76.0742V156.852H89.9922V160.352ZM114.109 160.789H109.734V135.414H114.109V160.789ZM106.18 147.637H98.5508V151.424C100.438 151.396 102.151 151.324 103.691 151.205C105.241 151.077 106.79 150.882 108.34 150.617L108.695 154.145C106.9 154.482 105.059 154.71 103.172 154.828C101.285 154.938 99.0247 154.992 96.3906 154.992H94.0117V144.219H101.695V140.91H94.0117V137.41H106.18V147.637ZM136.695 145.34H146.102V148.758H123.023V145.34H132.32V142.961H136.695V145.34ZM136.75 135.934C136.75 138.996 139.475 140.755 144.926 141.211L143.422 144.547C141.234 144.301 139.398 143.845 137.912 143.18C136.426 142.514 135.278 141.662 134.467 140.623C132.808 142.747 129.832 144.055 125.539 144.547L124.035 141.211C127.043 140.956 129.167 140.354 130.406 139.406C131.646 138.449 132.266 137.292 132.266 135.934V135.688H136.75V135.934ZM143.367 156.523H129.887V157.371H143.969V160.598H125.594V153.516H139.047V152.777H125.621V149.523H143.367V156.523ZM167.758 144.191H154.305V145.586H168.359V149.031H149.875V140.938H163.219V139.57H149.793V136.07H167.758V144.191ZM170.301 153.898H160.922V160.789H156.492V153.898H147.223V150.453H170.301V153.898ZM181.402 139.598C181.402 141.493 181.822 143.18 182.66 144.656C183.499 146.124 184.893 147.208 186.844 147.91L184.41 151.301C182.013 150.389 180.277 148.735 179.201 146.338C178.035 148.872 176.152 150.608 173.555 151.547L171.176 148.129C173.236 147.427 174.712 146.324 175.605 144.82C176.499 143.307 176.945 141.566 176.945 139.598V136.891H181.402V139.598ZM192.941 154.117H188.566V146.652H184.82V143.152H188.566V141.949H184.82V138.449H188.566V135.469H192.941V154.117ZM193.461 160.352H175.797V152.449H180.254V156.852H193.461V160.352Z" fill="#3191FF"/>
<path d="M271.379 284.07C271.379 286.139 271.712 287.967 272.377 289.553C273.051 291.139 274.223 292.392 275.891 293.312V289.32H273.539V285.766H275.891V276.742H279.965V300.641H275.891V293.518L273.621 296.566C271.68 295.609 270.253 294.005 269.342 291.754C268.421 294.26 266.977 296.074 265.008 297.195L262.52 293.914C264.27 292.911 265.491 291.558 266.184 289.854C266.876 288.149 267.232 286.221 267.25 284.07V283.934H263.641V280.461H267.25V277.289H271.324V280.461H274.879V283.934H271.379V284.07ZM285.188 301.707H281.059V276.414H285.188V301.707ZM310.453 291.18H301.074V292.533C303.18 292.743 304.811 293.24 305.969 294.023C307.126 294.798 307.71 295.819 307.719 297.086C307.71 298.079 307.35 298.923 306.639 299.615C305.928 300.317 304.911 300.85 303.59 301.215C302.268 301.579 300.691 301.762 298.859 301.762C297 301.762 295.4 301.579 294.061 301.215C292.721 300.85 291.695 300.317 290.984 299.615C290.273 298.923 289.918 298.079 289.918 297.086C289.918 295.81 290.51 294.78 291.695 293.996C292.88 293.212 294.557 292.725 296.727 292.533V291.18H287.375V287.707H310.453V291.18ZM298.859 295.719C297.273 295.737 296.13 295.851 295.428 296.061C294.735 296.27 294.393 296.612 294.402 297.086C294.384 297.569 294.73 297.924 295.441 298.152C296.152 298.371 297.292 298.48 298.859 298.48C300.391 298.48 301.516 298.371 302.236 298.152C302.956 297.924 303.316 297.569 303.316 297.086C303.316 296.612 302.961 296.27 302.25 296.061C301.539 295.851 300.409 295.737 298.859 295.719ZM308.348 280.871H302.332C302.76 281.573 303.558 282.179 304.725 282.689C305.9 283.2 307.546 283.533 309.66 283.688L308.156 287.105C305.732 286.914 303.749 286.436 302.209 285.67C300.669 284.904 299.552 283.934 298.859 282.758C298.167 283.934 297.059 284.904 295.537 285.67C294.015 286.436 292.051 286.914 289.645 287.105L288.195 283.688C290.237 283.533 291.837 283.2 292.994 282.689C294.161 282.17 294.967 281.564 295.414 280.871H289.48V277.426H308.348V280.871ZM331.809 281.555H334.953V285.137H331.809V290.414H327.406V276.414H331.809V281.555ZM324.617 277.809C324.617 281.236 323.619 284.075 321.623 286.326C319.636 288.577 316.715 290.204 312.859 291.207L311.137 287.707C313.689 287.115 315.689 286.258 317.139 285.137C318.588 284.007 319.467 282.712 319.777 281.254H312.449V277.809H324.617ZM331.809 301.434H314.938V291.234H331.809V301.434ZM319.285 298.043H327.488V294.734H319.285V298.043ZM359.18 283.086H356.008V284.836H359.18V288.418H356.008V291.672H351.605V276.469H356.008V279.477H359.18V283.086ZM348.27 285.902H340.941V287.283C342.983 287.265 344.701 287.21 346.096 287.119C347.49 287.019 348.862 286.841 350.211 286.586L350.676 290.031C349.099 290.359 347.44 290.578 345.699 290.688C343.958 290.797 341.652 290.852 338.781 290.852H336.566V282.676H344.004V281.309H336.539V277.918H348.27V285.902ZM347.531 291.836C349.29 291.845 350.826 292.055 352.139 292.465C353.451 292.866 354.463 293.445 355.174 294.201C355.894 294.949 356.254 295.837 356.254 296.867C356.254 297.879 355.898 298.745 355.188 299.465C354.477 300.194 353.465 300.75 352.152 301.133C350.84 301.516 349.299 301.707 347.531 301.707C345.727 301.707 344.159 301.516 342.828 301.133C341.497 300.75 340.477 300.194 339.766 299.465C339.055 298.745 338.699 297.879 338.699 296.867C338.699 295.837 339.055 294.949 339.766 294.201C340.486 293.445 341.507 292.866 342.828 292.465C344.159 292.055 345.727 291.845 347.531 291.836ZM347.531 295.227C345.982 295.227 344.842 295.354 344.113 295.609C343.384 295.865 343.02 296.284 343.02 296.867C343.02 297.432 343.384 297.842 344.113 298.098C344.842 298.353 345.982 298.48 347.531 298.48C349.053 298.48 350.161 298.353 350.854 298.098C351.555 297.842 351.906 297.432 351.906 296.867C351.906 296.284 351.555 295.865 350.854 295.609C350.161 295.354 349.053 295.227 347.531 295.227ZM258.049 315.758H236.83V312.285H245.225V309.633H249.6V312.285H258.049V315.758ZM259.033 332.41H235.928V328.965H241.096V325.109C240.275 324.681 239.646 324.152 239.209 323.523C238.771 322.885 238.553 322.165 238.553 321.363C238.553 320.342 238.913 319.463 239.633 318.725C240.353 317.977 241.378 317.408 242.709 317.016C244.04 316.615 245.607 316.414 247.412 316.414C249.208 316.414 250.766 316.615 252.088 317.016C253.419 317.408 254.439 317.977 255.15 318.725C255.861 319.463 256.217 320.342 256.217 321.363C256.217 322.165 256.003 322.885 255.574 323.523C255.146 324.152 254.521 324.681 253.701 325.109V328.965H259.033V332.41ZM247.412 319.75C245.917 319.75 244.824 319.878 244.131 320.133C243.438 320.388 243.092 320.798 243.092 321.363C243.092 321.928 243.438 322.339 244.131 322.594C244.833 322.849 245.926 322.967 247.412 322.949C248.87 322.967 249.951 322.849 250.652 322.594C251.354 322.339 251.705 321.928 251.705 321.363C251.705 320.798 251.354 320.388 250.652 320.133C249.951 319.878 248.87 319.75 247.412 319.75ZM249.408 328.965V326.244C248.825 326.308 248.16 326.34 247.412 326.34C246.738 326.34 246.1 326.312 245.498 326.258V328.965H249.408ZM274.455 314.254C274.455 316.068 274.419 317.672 274.346 319.066C274.273 320.461 274.09 322.02 273.799 323.742L269.506 323.414C269.734 321.928 269.884 320.575 269.957 319.354C270.03 318.123 270.076 316.76 270.094 315.266H261.193V311.793H274.455V314.254ZM268.357 326.176C270.973 326.048 273.215 325.866 275.084 325.629L275.357 328.855C273.261 329.229 271.069 329.484 268.781 329.621C266.503 329.749 264.101 329.812 261.576 329.812H260.291L259.936 326.367H260.291L264.064 326.312V319.066H268.357V326.176ZM280.471 319.312H283.479V322.949H280.471V334.707H276.014V309.414H280.471V319.312ZM310.986 312.285C310.986 313.57 310.959 314.76 310.904 315.854C310.859 316.938 310.74 318.155 310.549 319.504H313.529V322.949H290.424V319.504H306.146C306.402 317.663 306.548 315.803 306.584 313.926H293.186V310.453H310.986V312.285ZM310.986 334.68H306.584V328.828H292.857V325.383H310.986V334.68ZM336.635 334.707H332.506V322.402H330.865V333.559H326.873V309.797H330.865V318.93H332.506V309.414H336.635V334.707ZM324.604 315.758H319.6V325.684C320.693 325.656 321.719 325.602 322.676 325.52C323.642 325.438 324.622 325.31 325.615 325.137L325.916 328.664C324.485 328.928 323.081 329.106 321.705 329.197C320.338 329.279 318.788 329.32 317.057 329.32H315.197V312.258H324.604V315.758ZM359.412 319.395H362.256V323.004H359.412V334.707H354.982V309.414H359.412V319.395ZM338.549 327.324C340.992 327.324 342.906 327.315 344.291 327.297V325.492C343.024 325.182 342.017 324.626 341.27 323.824C340.531 323.013 340.162 322.056 340.162 320.953C340.162 320.023 340.431 319.199 340.969 318.479C341.516 317.749 342.272 317.184 343.238 316.783C344.204 316.373 345.303 316.168 346.533 316.168C347.745 316.168 348.83 316.373 349.787 316.783C350.753 317.184 351.51 317.749 352.057 318.479C352.604 319.208 352.877 320.033 352.877 320.953C352.877 321.682 352.704 322.357 352.357 322.977C352.011 323.587 351.523 324.111 350.895 324.549C350.266 324.986 349.532 325.305 348.693 325.506V327.133C350.589 327.033 352.33 326.878 353.916 326.668L354.217 329.812C352.585 330.132 350.89 330.368 349.131 330.523C347.381 330.669 345.754 330.76 344.25 330.797C342.755 330.833 341.028 330.852 339.068 330.852L338.549 327.324ZM353.889 315.484H339.041V312.066H344.291V309.633H348.693V312.066H353.889V315.484ZM346.533 319.449C345.84 319.467 345.298 319.6 344.906 319.846C344.523 320.092 344.337 320.461 344.346 320.953C344.337 321.464 344.523 321.842 344.906 322.088C345.289 322.334 345.831 322.457 346.533 322.457C347.208 322.457 347.732 322.334 348.105 322.088C348.479 321.842 348.666 321.464 348.666 320.953C348.666 320.461 348.475 320.092 348.092 319.846C347.718 319.6 347.199 319.467 346.533 319.449ZM370.514 310.836C371.799 310.836 372.975 311.114 374.041 311.67C375.117 312.217 375.969 312.978 376.598 313.953C377.227 314.919 377.541 316.004 377.541 317.207C377.541 318.182 377.336 319.085 376.926 319.914C376.516 320.734 375.946 321.436 375.217 322.02C374.497 322.594 373.667 323.013 372.729 323.277V326.23C374.579 326.13 376.292 325.975 377.869 325.766L378.17 328.965C376.32 329.339 374.401 329.598 372.414 329.744C370.436 329.881 368.372 329.949 366.221 329.949C365.51 329.949 364.99 329.94 364.662 329.922H363.268L362.748 326.422H364.635C365.236 326.413 365.847 326.408 366.467 326.408C367.087 326.399 367.715 326.39 368.354 326.381V323.305C367.378 323.049 366.517 322.635 365.77 322.061C365.022 321.477 364.443 320.771 364.033 319.941C363.623 319.112 363.423 318.201 363.432 317.207C363.423 315.995 363.723 314.906 364.334 313.939C364.954 312.964 365.806 312.203 366.891 311.656C367.975 311.109 369.183 310.836 370.514 310.836ZM370.514 314.555C369.675 314.555 368.996 314.783 368.477 315.238C367.957 315.694 367.697 316.35 367.697 317.207C367.697 318.055 367.957 318.715 368.477 319.189C369.005 319.654 369.684 319.878 370.514 319.859C371.024 319.868 371.484 319.773 371.895 319.572C372.305 319.372 372.628 319.071 372.865 318.67C373.111 318.26 373.239 317.772 373.248 317.207C373.239 316.35 372.979 315.694 372.469 315.238C371.958 314.783 371.307 314.555 370.514 314.555ZM383.447 319.012H386.455V322.676H383.447V334.707H379.045V309.414H383.447V319.012ZM241.287 350.398H244.186V353.953H241.287V362.156H236.912V342.414H241.287V350.398ZM242.135 367.352H223.787V360.844H228.217V363.852H242.135V367.352ZM220.396 356.66C222.557 356.66 224.452 356.633 226.084 356.578V355.416C224.771 355.179 223.742 354.742 222.994 354.104C222.247 353.456 221.873 352.668 221.873 351.738C221.873 350.9 222.133 350.184 222.652 349.592C223.181 348.99 223.924 348.535 224.881 348.225C225.838 347.906 226.959 347.746 228.244 347.746C229.511 347.746 230.623 347.906 231.58 348.225C232.537 348.535 233.275 348.99 233.795 349.592C234.324 350.193 234.588 350.909 234.588 351.738C234.588 352.659 234.219 353.438 233.48 354.076C232.751 354.714 231.744 355.156 230.459 355.402V356.373C232.391 356.264 234.232 356.086 235.982 355.84L236.283 358.793C234.096 359.221 231.849 359.513 229.543 359.668C227.237 359.814 224.571 359.914 221.545 359.969H220.834L220.396 356.66ZM235.436 347.309H221.08V344.191H226.084V342.359H230.459V344.191H235.436V347.309ZM228.244 350.617C227.488 350.617 226.932 350.704 226.576 350.877C226.23 351.041 226.057 351.328 226.057 351.738C226.057 352.395 226.786 352.723 228.244 352.723C229.657 352.723 230.377 352.395 230.404 351.738C230.395 351.328 230.217 351.041 229.871 350.877C229.525 350.704 228.982 350.617 228.244 350.617ZM254.822 348.758C254.813 350.107 255 351.433 255.383 352.736C255.775 354.04 256.413 355.243 257.297 356.346C258.181 357.449 259.334 358.319 260.756 358.957L258.35 362.375C257.028 361.792 255.893 360.967 254.945 359.9C254.007 358.834 253.25 357.585 252.676 356.154C252.102 357.749 251.327 359.139 250.352 360.324C249.385 361.5 248.205 362.402 246.811 363.031L244.295 359.586C245.744 358.921 246.92 358.014 247.822 356.865C248.725 355.708 249.372 354.436 249.764 353.051C250.165 351.656 250.365 350.225 250.365 348.758V348.32H245.361V344.766H259.525V348.32H254.822V348.758ZM265.158 351.711H268.576V355.348H265.158V367.707H260.756V342.414H265.158V351.711ZM288.236 356.852H275.822V344.41H288.236V356.852ZM280.17 353.434H283.889V347.855H280.17V353.434ZM295.51 349.469H298.654V353.051H295.51V360.844H291.107V342.469H295.51V349.469ZM296.248 367.352H278.748V358.984H283.15V363.852H296.248V367.352ZM320.447 346.734H314.35C314.742 347.482 315.53 348.133 316.715 348.689C317.909 349.245 319.59 349.615 321.76 349.797L320.174 353.215C317.777 352.996 315.812 352.499 314.281 351.725C312.759 350.941 311.652 349.956 310.959 348.771C310.285 349.965 309.191 350.95 307.678 351.725C306.165 352.499 304.214 352.996 301.826 353.215L300.295 349.797C302.419 349.615 304.064 349.245 305.23 348.689C306.406 348.133 307.199 347.482 307.609 346.734H301.58V343.262H320.447V346.734ZM322.498 357.973H299.475V354.5H308.771V351.52H313.146V354.5H322.498V357.973ZM319.764 367.707H315.389V362.785H302.045V359.34H319.764V367.707ZM344.4 356.852H337.373V361.5H346.779V365.055H323.674V361.5H333.025V356.852H326.244V344.055H344.236V347.5H330.646V353.406H344.4V356.852ZM363.678 346.352C363.66 347.928 364.074 349.323 364.922 350.535C365.77 351.747 367.178 352.632 369.146 353.188L366.822 356.578C364.398 355.831 362.62 354.427 361.49 352.367C360.305 354.828 358.4 356.469 355.775 357.289L353.424 353.871C355.502 353.215 356.988 352.176 357.881 350.754C358.774 349.332 359.23 347.71 359.248 345.887V343.809H363.678V346.352ZM374.205 347.91H377.35V351.52H374.205V357.18H369.803V342.414H374.205V347.91ZM365.811 357.617C367.551 357.608 369.074 357.809 370.377 358.219C371.68 358.62 372.683 359.203 373.385 359.969C374.096 360.725 374.451 361.628 374.451 362.676C374.451 363.733 374.096 364.645 373.385 365.41C372.683 366.176 371.68 366.759 370.377 367.16C369.083 367.561 367.561 367.762 365.811 367.762C364.006 367.762 362.438 367.561 361.107 367.16C359.777 366.759 358.751 366.176 358.031 365.41C357.32 364.654 356.969 363.742 356.979 362.676C356.969 361.628 357.325 360.725 358.045 359.969C358.765 359.203 359.79 358.62 361.121 358.219C362.452 357.809 364.015 357.608 365.811 357.617ZM365.811 361.008C364.307 361.008 363.186 361.145 362.447 361.418C361.718 361.682 361.354 362.102 361.354 362.676C361.354 363.268 361.714 363.697 362.434 363.961C363.163 364.216 364.288 364.344 365.811 364.344C367.296 364.344 368.381 364.216 369.064 363.961C369.757 363.697 370.104 363.268 370.104 362.676C370.104 362.102 369.753 361.682 369.051 361.418C368.358 361.145 367.278 361.008 365.811 361.008ZM391.979 343.426C391.969 344.273 392.225 345.112 392.744 345.941C393.264 346.762 394.134 347.491 395.355 348.129C396.586 348.758 398.195 349.177 400.182 349.387L398.623 352.832C396.481 352.559 394.663 352.035 393.168 351.26C391.682 350.485 390.529 349.514 389.709 348.348C388.88 349.514 387.722 350.485 386.236 351.26C384.76 352.035 382.955 352.559 380.822 352.832L379.154 349.387C381.141 349.177 382.75 348.753 383.98 348.115C385.22 347.477 386.104 346.748 386.633 345.928C387.171 345.098 387.439 344.264 387.439 343.426V342.824H391.979V343.426ZM401.248 357.18H378.17V353.789H401.248V357.18ZM389.654 358.465C391.486 358.465 393.063 358.647 394.385 359.012C395.715 359.367 396.732 359.896 397.434 360.598C398.145 361.29 398.505 362.138 398.514 363.141C398.505 364.116 398.145 364.95 397.434 365.643C396.723 366.344 395.702 366.878 394.371 367.242C393.049 367.607 391.477 367.789 389.654 367.789C387.804 367.789 386.204 367.607 384.855 367.242C383.516 366.878 382.49 366.344 381.779 365.643C381.068 364.95 380.713 364.116 380.713 363.141C380.713 362.138 381.068 361.29 381.779 360.598C382.49 359.896 383.516 359.367 384.855 359.012C386.195 358.647 387.795 358.465 389.654 358.465ZM389.654 361.746C388.57 361.755 387.704 361.805 387.057 361.896C386.419 361.979 385.945 362.12 385.635 362.32C385.334 362.521 385.188 362.794 385.197 363.141C385.188 363.478 385.334 363.747 385.635 363.947C385.945 364.139 386.423 364.275 387.07 364.357C387.717 364.439 388.579 364.48 389.654 364.48C390.702 364.48 391.55 364.439 392.197 364.357C392.844 364.275 393.323 364.139 393.633 363.947C393.952 363.747 394.111 363.478 394.111 363.141C394.111 362.794 393.952 362.525 393.633 362.334C393.323 362.133 392.844 361.988 392.197 361.896C391.559 361.805 390.712 361.755 389.654 361.746Z" fill="#3191FF"/>
</svg>
