<svg width="185" height="24" viewBox="0 0 185 24" fill="none" xmlns="http://www.w3.org/2000/svg">
<g clip-path="url(#clip0_1278_1211)">
<path d="M18.4462 10.547C18.5495 11.0117 18.6011 11.4911 18.6011 11.9852C18.6011 15.6361 15.6435 18.5937 12 18.5937C8.35648 18.5937 5.39889 15.6361 5.39889 11.9852C5.39889 8.64413 7.8697 5.88568 11.0854 5.43577V0C4.88261 0.472034 0 5.65704 0 11.9852C0 18.3135 5.37677 24.0074 12 24.0074C18.6232 24.0074 24 18.6232 24 11.9852C24 10.9084 23.8599 9.86109 23.5943 8.87277L18.4462 10.547Z" fill="white"/>
<path d="M22.9896 7.13952L17.8046 8.82852C17.3399 7.96558 16.6835 7.22065 15.887 6.63798C15.0093 5.99631 13.9915 5.59066 12.922 5.43577V0C15.1347 0.169637 17.2588 0.951444 19.0584 2.25691L20.2754 3.27474C20.4082 3.40012 20.5336 3.52551 20.6589 3.65827C21.6251 4.66872 22.4217 5.84143 22.9896 7.13952Z" fill="#F9F9F9"/>
<path d="M178.916 3.67302C180.686 3.67302 182.036 4.0713 182.95 4.86048C183.865 5.65704 184.329 6.71174 184.329 8.03196C184.329 8.42287 184.3 8.76952 184.234 9.07929C184.034 10.2004 183.548 11.1887 182.788 12.0443C182.028 12.8851 181.04 13.4899 179.823 13.866L182.294 20.1868H176.6L174.52 14.2643L173.473 20.1868H168.295L171.208 3.67302H178.908H178.916ZM175.14 10.8125H177.19C177.684 10.8125 178.075 10.7019 178.355 10.488C178.65 10.252 178.842 9.89797 178.938 9.41856C178.953 9.33743 178.96 9.24155 178.96 9.11617C178.96 8.77689 178.849 8.51137 178.636 8.31961C178.414 8.12047 178.097 8.01721 177.677 8.01721H175.626L175.132 10.8199L175.14 10.8125Z" fill="white"/>
<path d="M158.014 20.3491C156.612 20.3491 155.388 20.0615 154.326 19.4862C153.271 18.9109 152.452 18.0996 151.877 17.0596C151.302 16.0049 151.014 14.7953 151.014 13.4456C151.014 11.469 151.42 9.72833 152.231 8.22372C153.057 6.69699 154.2 5.5169 155.661 4.67609C157.136 3.82053 158.832 3.39275 160.75 3.39275C162.181 3.39275 163.427 3.68039 164.482 4.25568C165.559 4.81622 166.377 5.62016 166.953 6.66011C167.528 7.68531 167.816 8.87277 167.816 10.2299C167.816 12.1918 167.403 13.9398 166.577 15.4813C165.765 17.0227 164.615 18.2176 163.125 19.0731C161.65 19.9287 159.946 20.3565 158.014 20.3565V20.3491ZM158.803 15.5255C159.614 15.5255 160.315 15.319 160.905 14.8986C161.51 14.4634 161.967 13.8955 162.284 13.1948C162.594 12.4794 162.749 11.7124 162.749 10.8863C162.749 10.0602 162.513 9.36693 162.048 8.90227C161.598 8.42286 160.942 8.17947 160.086 8.17947C159.275 8.17947 158.567 8.38598 157.962 8.80639C157.357 9.2268 156.885 9.79471 156.561 10.5101C156.251 11.2108 156.096 11.9705 156.096 12.7966C156.096 13.6226 156.325 14.3233 156.774 14.8027C157.239 15.2821 157.918 15.5255 158.803 15.5255Z" fill="white"/>
<path d="M151.427 3.67302L150.704 7.78119H146.316L144.125 20.1942H138.948L141.138 7.78119H136.802L137.524 3.67302H151.427Z" fill="white"/>
<path d="M129.514 17.6939H124.012L122.751 20.1868H117.315L126.277 3.67302H132.251L135.356 20.1868H129.898L129.522 17.6939H129.514ZM128.954 13.7996L128.275 9.20467L125.967 13.7996H128.954Z" fill="white"/>
<path d="M109.918 16.1156H116.946L116.246 20.032H104.039L106.953 3.51814H112.13L109.918 16.1156Z" fill="white"/>
<path d="M95.1813 3.67302L93.5513 12.9809C93.507 13.2317 93.4775 13.4899 93.4775 13.748C93.4775 14.279 93.6176 14.6994 93.8979 15.0092C94.1782 15.3042 94.6207 15.4518 95.2255 15.4518C95.9704 15.4518 96.5605 15.2305 96.9956 14.7953C97.4308 14.3454 97.7184 13.7406 97.8586 12.9736L99.4886 3.66564H104.644L103.014 12.9736C102.734 14.5888 102.173 15.9533 101.332 17.0596C100.506 18.1659 99.4886 18.9846 98.279 19.5304C97.0841 20.0762 95.7566 20.3491 94.3109 20.3491C92.4597 20.3491 90.9846 19.8697 89.8782 18.9035C88.7719 17.9226 88.2188 16.5286 88.2188 14.7289C88.2188 14.1537 88.2704 13.571 88.381 12.9809L90.011 3.67302H95.1665H95.1813Z" fill="white"/>
<path d="M86.5814 7.40504C85.571 5.8488 84.0885 4.66134 82.3405 4.01967C80.5999 3.38537 78.697 3.32637 76.9195 3.86478C75.142 4.40319 73.5931 5.50215 72.4942 6.99938C71.3952 8.49662 70.8199 10.311 70.842 12.1623C70.8642 14.0209 71.4911 15.8132 72.6269 17.2809C73.7628 18.7486 75.3411 19.8107 77.1334 20.2975C78.9256 20.7843 80.8211 20.681 82.547 20.0025C84.2729 19.3165 85.7259 18.0922 86.6921 16.5065L82.5101 13.9545C82.0971 14.6331 81.4776 15.1567 80.74 15.4444C80.0025 15.732 79.1911 15.7837 78.4315 15.5698C77.6644 15.3632 76.9932 14.906 76.5065 14.279C76.0197 13.6521 75.7541 12.8851 75.7468 12.0959C75.7394 11.3067 75.9828 10.5323 76.4548 9.8906C76.9195 9.24892 77.5833 8.78426 78.343 8.55562C79.1026 8.32698 79.914 8.34911 80.6589 8.622C81.4038 8.8949 82.0381 9.40381 82.4659 10.0676L86.5814 7.40504Z" fill="white"/>
<path d="M71.1518 3.67302L70.429 7.78119H66.0406L63.85 20.1942H58.6724L60.8629 7.78119H56.5261L57.2489 3.67302H71.1518Z" fill="white"/>
<path d="M55.8402 3.67302L52.9269 20.1868H47.7493L50.6626 3.67302H55.8402Z" fill="white"/>
<path d="M49.1063 3.47388L48.3762 7.6263H41.8046L41.4063 9.94222H47.9484L47.2403 13.8881H40.6982L39.5845 20.1942H34.3331L37.2907 3.47388H49.1137H49.1063Z" fill="white"/>
</g>
<defs>
<clipPath id="clip0_1278_1211">
<rect width="184.329" height="24" fill="white"/>
</clipPath>
</defs>
</svg>
