<svg width="888" height="280" viewBox="0 0 888 280" fill="none" xmlns="http://www.w3.org/2000/svg">
<rect x="1" y="1" width="278" height="278" rx="139" stroke="#3191FF" stroke-width="2"/>
<g clip-path="url(#clip0_1298_407)">
<mask id="mask0_1298_407" style="mask-type:luminance" maskUnits="userSpaceOnUse" x="99" y="32" width="81" height="91">
<path d="M179.447 32H99.5V123H179.447V32Z" fill="white"/>
</mask>
<g mask="url(#mask0_1298_407)">
<path d="M143.59 62.6732C152.012 62.6732 158.858 55.7976 158.858 47.3436C158.858 38.8896 152.009 32.0225 143.59 32.0225C135.172 32.0225 128.328 38.8952 128.328 47.3436C128.328 55.792 135.175 62.6732 143.59 62.6732ZM127.968 90.3355L149.67 97.5397C151.547 98.1632 152.949 99.6293 153.537 101.421L165.749 93.5626V91.0124L154.745 79.9576C151.083 76.281 151.083 70.2958 154.745 66.6137C154.857 66.4985 154.972 66.389 155.089 66.2851C153.391 65.684 151.589 65.3695 149.782 65.3695H137.402C128.597 65.3695 121.432 72.5596 121.432 81.3984V90.4282C123.519 89.6389 125.743 89.5968 127.968 90.3383V90.3355ZM172.603 76.2249C172.603 75.4806 172.002 74.8767 171.263 74.8767H168.432V72.0372C168.432 71.2929 167.83 70.6918 167.092 70.6918C166.353 70.6918 165.752 71.2957 165.752 72.0372V74.8767H162.929C162.187 74.8767 161.586 75.4806 161.586 76.2249C161.586 76.9692 162.187 77.5702 162.929 77.5702H165.752V80.4041C165.752 81.1484 166.353 81.7495 167.092 81.7495C167.83 81.7495 168.432 81.1456 168.432 80.4041V77.5702H171.263C172.005 77.5702 172.603 76.9664 172.603 76.2249ZM179.5 73.2842C179.5 75.0902 178.803 76.7838 177.539 78.0505L167.092 88.5436L156.645 78.0505C154.029 75.4244 154.029 71.144 156.645 68.5123C157.907 67.2456 159.594 66.5491 161.393 66.5491C163.192 66.5491 164.882 67.2456 166.143 68.5151C166.667 69.0404 167.517 69.0404 168.04 68.5151C170.662 65.8891 174.926 65.8891 177.542 68.5151C178.806 69.7847 179.503 71.4783 179.503 73.2842H179.5ZM167.414 95.6888L153.688 104.519C153.329 106.207 152.336 107.701 150.951 108.586C150.045 109.167 149.01 109.46 147.927 109.46C147.25 109.46 146.553 109.344 145.857 109.114L135.969 105.834C135.267 105.6 134.886 104.839 135.119 104.132C135.351 103.427 136.109 103.045 136.811 103.278L146.699 106.558C147.762 106.912 148.705 106.831 149.51 106.317C150.375 105.763 150.996 104.719 151.125 103.595C151.13 103.542 151.139 103.494 151.153 103.443C151.198 101.958 150.244 100.565 148.825 100.096L127.123 92.8885C125.01 92.1864 122.979 92.4195 121.085 93.5795L111.659 99.3372L120.033 112.513L124.688 109.67C125.021 109.465 125.433 109.42 125.808 109.544L143.677 115.473C146.078 116.273 148.473 115.97 150.599 114.599L171.076 101.424C172.648 100.413 173.11 98.298 172.103 96.7139C171.093 95.1355 168.989 94.6748 167.414 95.6916V95.6888ZM118.48 115.077L120.083 117.599L111.659 122.992L99.5 103.853L107.921 98.4609L118.455 115.037C118.455 115.037 118.458 115.046 118.461 115.052C118.469 115.06 118.475 115.071 118.48 115.08V115.077Z" fill="#3191FF"/>
</g>
</g>
<path d="M80.9864 138.828V145.836H83.7052V148.297H80.9864V155.469H77.9864V138.828H80.9864ZM81.713 157.391V159.781H66.6895V154.367H69.6895V157.391H81.713ZM63.6895 151.086C65.2247 151.086 67.0059 151.074 68.8692 151.016V149.773C66.5489 149.457 65.0958 148.297 65.1192 146.633C65.0958 144.523 67.1817 143.281 70.3458 143.305C73.4864 143.281 75.5489 144.523 75.5723 146.633C75.5489 148.285 74.1309 149.445 71.8458 149.773V150.875C73.6036 150.77 75.3614 150.605 77.002 150.359L77.213 152.422C72.713 153.289 67.6739 153.336 63.9942 153.383L63.6895 151.086ZM76.463 140.562V142.695H64.252V140.562H68.8692V138.758H71.8458V140.562H76.463ZM70.3458 145.297C68.8223 145.297 67.9552 145.719 67.9786 146.633C67.9552 147.43 68.8223 147.875 70.3458 147.875C71.8458 147.875 72.6895 147.43 72.713 146.633C72.6895 145.719 71.8458 145.297 70.3458 145.297ZM92.0611 144.641C92.0377 147.898 93.772 151.648 97.2877 153.266L95.6236 155.609C93.2447 154.52 91.5455 152.34 90.608 149.773C89.647 152.598 87.9009 154.988 85.4283 156.148L83.6939 153.781C87.2564 152.117 89.0377 148.156 89.0611 144.641V143.328H84.5377V140.891H96.3502V143.328H92.0611V144.641ZM101.014 138.828V146.961H104.155V149.469H101.014V160.156H98.0142V138.828H101.014ZM120.375 140.586V150.828H110.132V140.586H120.375ZM113.085 142.977V148.484H117.421V142.977H113.085ZM126.421 138.828V144.969H129.304V147.43H126.421V154.391H123.421V138.828H126.421ZM127.195 157.391V159.781H112.593V152.867H115.57V157.391H127.195ZM147.457 139.602V141.969H141.621C142.09 143.527 144.293 145.039 148.395 145.414L147.316 147.758C143.309 147.359 140.602 145.836 139.465 143.727C138.34 145.824 135.68 147.359 131.684 147.758L130.629 145.414C134.672 145.039 136.863 143.516 137.332 141.969H131.543V139.602H147.457ZM149.215 149.211V151.602H129.762V149.211H137.988V146.422H140.941V149.211H149.215ZM146.848 153.125V160.156H143.871V155.516H131.918V153.125H146.848ZM167.415 148.367V150.734H161.227V155.281H169.547V157.719H150.024V155.281H158.25V150.734H152.321V140.328H167.25V142.719H155.321V148.367H167.415ZM194.79 148.648V151.062H175.337V148.648H194.79ZM185.04 152.258C189.658 152.258 192.447 153.711 192.47 156.219C192.447 158.75 189.658 160.156 185.04 160.156C180.376 160.156 177.564 158.75 177.564 156.219C177.564 153.711 180.376 152.258 185.04 152.258ZM185.04 154.578C182.087 154.578 180.587 155.094 180.611 156.219C180.587 157.32 182.087 157.836 185.04 157.836C187.923 157.836 189.447 157.32 189.47 156.219C189.447 155.094 187.923 154.578 185.04 154.578ZM193.033 139.812V142.203H187.22C187.701 143.691 189.869 145.168 193.97 145.531L192.915 147.875C188.896 147.488 186.177 145.965 185.04 143.891C183.915 145.965 181.244 147.488 177.189 147.875L176.205 145.531C180.212 145.168 182.404 143.703 182.908 142.203H177.119V139.812H193.033ZM212.428 138.828V147.008H215.451V149.469H212.428V160.109H209.428V138.828H212.428ZM206.732 141.008C206.709 147.383 204.225 152.914 197.053 156.43L195.365 154.133C200.416 151.602 203.123 148.203 203.685 143.445H196.584V141.008H206.732Z" fill="#3191FF"/>
<path d="M62.9207 179.863C65.5965 179.844 67.5496 181.367 67.5496 183.574C67.5496 185.742 65.5965 187.285 62.9207 187.266C60.2645 187.285 58.3309 185.742 58.3309 183.574C58.3309 181.367 60.2645 179.844 62.9207 179.863ZM62.9207 181.621C61.4754 181.602 60.4207 182.363 60.4402 183.574C60.4207 184.766 61.4754 185.488 62.9207 185.488C64.4246 185.488 65.4793 184.766 65.4793 183.574C65.4793 182.363 64.4246 181.602 62.9207 181.621ZM71.9246 179.102V196.719H69.7762V179.102H71.9246ZM57.1785 188.477C60.3621 188.477 64.8152 188.418 68.6238 187.852L68.7801 189.453C67.2566 189.746 65.6746 189.932 64.1316 190.039V196.191H61.9441V190.176C60.3133 190.244 58.7801 190.254 57.452 190.273L57.1785 188.477ZM88.4582 180.703V182.402C88.4387 184.59 88.4387 187.051 87.7551 190.742L85.5676 190.508C86.2512 187.07 86.2512 184.561 86.2707 182.441H75.7238V180.703H88.4582ZM90.1379 192.676V194.453H74.0441V192.676H79.9816V186.543H82.1301V192.676H90.1379ZM105.617 179.082V196.758H103.429V179.082H105.617ZM94.0348 180.527V184.941H98.3121V180.527H100.461V192.598H91.8668V180.527H94.0348ZM94.0348 190.82H98.3121V186.641H94.0348V190.82ZM126.086 179.082V184.043H128.567V185.84H126.086V191.855H123.918V179.082H126.086ZM120.813 180.547V182.285H115.051V187.09C118.371 187.1 120.217 186.982 122.317 186.543L122.551 188.301C120.246 188.75 118.176 188.867 114.329 188.867H112.903V180.547H120.813ZM126.789 194.629V196.387H114.778V190.508H116.946V194.629H126.789ZM145.139 187.715V189.453H129.046V187.715H135.999V185.957H131.018V179.805H143.206V181.523H133.186V184.199H143.362V185.957H138.167V187.715H145.139ZM143.206 190.84V196.797H141.057V192.578H130.823V190.84H143.206ZM165.082 179.082V196.758H162.914V187.734H159.496V185.977H162.914V179.082H165.082ZM156.722 184.688C156.703 187.363 158.304 190.215 161.097 191.445L159.925 193.105C157.904 192.246 156.439 190.479 155.668 188.359C154.886 190.605 153.431 192.49 151.41 193.398L150.238 191.719C152.992 190.469 154.554 187.461 154.554 184.688V183.77H150.765V182.031H154.574V179.453H156.742V182.031H160.433V183.77H156.722V184.688ZM175.346 189.98C178.998 189.98 181.244 191.211 181.264 193.34C181.244 195.488 178.998 196.738 175.346 196.738C171.654 196.738 169.369 195.488 169.369 193.34C169.369 191.211 171.654 189.98 175.346 189.98ZM175.346 191.68C172.924 191.68 171.537 192.246 171.537 193.34C171.537 194.434 172.924 195.02 175.346 195.02C177.768 195.02 179.115 194.434 179.115 193.34C179.115 192.246 177.768 191.68 175.346 191.68ZM181.088 179.082V183.301H183.549V185.117H181.088V189.551H178.92V179.082H181.088ZM169.916 180.195V182.578H174.037V180.195H176.186V188.438H167.768V180.195H169.916ZM169.916 186.719H174.037V184.277H169.916V186.719ZM200.18 192.832V194.609H184.047V192.832H191V189.395H185.825V180.254H187.993V183.145H196.176V180.254H198.344V189.395H193.149V192.832H200.18ZM187.993 187.637H196.176V184.883H187.993V187.637ZM214.761 179.082V185.781H217.475V187.559H214.761V196.758H212.593V179.082H214.761ZM209.917 180.762V182.52H203.823V190.625C206.567 190.625 208.735 190.488 211.167 190.059L211.421 191.895C208.686 192.363 206.304 192.441 203.12 192.441H201.655V180.762H209.917ZM93.8102 204.684V206.461H87.9313V214.684C90.6852 214.664 92.6285 214.547 94.8258 214.137L95.0602 215.895C92.5797 216.383 90.4508 216.48 87.15 216.48H85.7438V204.684H93.8102ZM99.7086 203.082V220.758H97.5406V211.07H92.8727V209.293H97.5406V203.082H99.7086ZM122.561 209.898V211.676H119.944V220.699H117.776V203.082H119.944V209.898H122.561ZM108.889 204.801V214.547C111.243 214.508 113.752 214.303 116.409 213.746L116.643 215.582C113.674 216.168 110.842 216.344 108.225 216.344H106.741V204.801H108.889ZM139.095 212.203V213.941H123.001V212.203H139.095ZM137.278 218.629V220.387H124.993V215.25H127.161V218.629H137.278ZM131.028 203.648C134.876 203.648 137.376 204.996 137.395 207.223C137.376 209.469 134.876 210.836 131.028 210.836C127.18 210.836 124.661 209.469 124.661 207.223C124.661 204.996 127.18 203.648 131.028 203.648ZM131.028 205.387C128.47 205.387 126.907 206.051 126.927 207.223C126.907 208.414 128.47 209.078 131.028 209.059C133.606 209.078 135.149 208.414 135.149 207.223C135.149 206.051 133.606 205.387 131.028 205.387ZM159.017 203.082V212.027H156.849V210.484H152.591V208.824H156.849V207.086H152.826C151.713 209.781 149.134 211.539 145.228 212.418L144.466 210.641C148.617 209.781 150.687 207.955 150.99 205.602H145.443V203.844H153.412C153.412 204.4 153.363 204.928 153.295 205.426H156.849V203.082H159.017ZM159.017 212.711V217.359H149.584V218.824H159.486V220.562H147.416V215.738H156.849V214.43H147.396V212.711H159.017ZM170.98 204.918V206.168C170.98 207.75 170.98 209.957 170.492 213.004L168.344 212.828C168.764 210.152 168.812 208.18 168.832 206.656H161.898V204.918H170.98ZM166.527 209.957V215.172C168.324 215.104 170.17 214.977 171.859 214.762L171.977 216.383C168.324 216.969 164.281 217.047 161.176 217.027L160.961 215.289C162.006 215.279 163.168 215.27 164.379 215.23V209.957H166.527ZM174.965 203.082V210.27H177.523V212.105H174.965V220.738H172.777V203.082H174.965ZM194.135 216.891V218.688H178.002V216.891H184.955V214.02H179.916V208.238H190.073V206.051H179.877V204.293H192.221V209.957H182.084V212.242H192.631V214.02H187.104V216.891H194.135ZM90.4262 227.082V233H92.809V234.797H90.4262V240.871H88.2582V227.082H90.4262ZM91.0512 242.629V244.387H78.8246V239.953H80.9926V242.629H91.0512ZM76.2855 237.336C77.6039 237.336 79.1371 237.326 80.7387 237.258V236.145C78.7758 235.91 77.5355 234.943 77.5355 233.527C77.5355 231.789 79.2348 230.773 81.7934 230.793C84.3715 230.773 86.0512 231.789 86.0512 233.527C86.0512 234.934 84.8402 235.891 82.9066 236.145V237.16C84.4105 237.082 85.9242 236.945 87.3402 236.73L87.516 238.254C83.7855 238.957 79.5668 238.996 76.5199 239.035L76.2855 237.336ZM86.8715 228.625V230.207H76.7348V228.625H80.7387V227.023H82.9066V228.625H86.8715ZM81.7934 232.258C80.4262 232.258 79.6059 232.707 79.6254 233.527C79.6059 234.289 80.4262 234.738 81.7934 234.738C83.1605 234.738 83.9809 234.289 83.9809 233.527C83.9809 232.707 83.1605 232.258 81.7934 232.258ZM99.6551 232.102C99.6551 234.836 101.276 237.941 104.069 239.23L102.858 240.949C100.866 240.012 99.3914 238.117 98.6004 235.91C97.7996 238.332 96.2566 240.402 94.2254 241.379L92.9559 239.68C95.7684 238.352 97.4676 235.031 97.4871 232.102V230.617H93.6395V228.82H103.346V230.617H99.6551V232.102ZM107.155 227.082V233.957H109.87V235.773H107.155V244.738H104.987V227.082H107.155ZM129.265 227.102V239.992H127.078V227.102H129.265ZM129.754 242.629V244.387H117.586V238.762H119.773V242.629H129.754ZM121.14 229.797C121.14 232.258 122.586 234.582 125.379 235.52L124.265 237.238C122.254 236.535 120.818 235.129 120.046 233.332C119.246 235.256 117.791 236.799 115.711 237.551L114.578 235.832C117.449 234.816 118.894 232.336 118.894 229.797V228.078H121.14V229.797ZM141.775 228.664V233.703H134.939V235.461H142.205V237.16H138.436V239.602C139.959 239.543 141.482 239.445 142.928 239.289L143.104 240.871C139.217 241.496 135.135 241.535 131.795 241.496L131.521 239.699C132.986 239.709 134.598 239.709 136.248 239.66V237.16H132.752V232.102H139.627V230.383H132.732V228.664H141.775ZM146.15 227.082V244.758H143.982V227.082H146.15ZM162.664 235.109V236.828H157.43V240.871H164.461V242.648H148.329V240.871H155.282V236.828H150.282V228.391H162.528V230.129H152.45V235.109H162.664ZM175.81 229.895C175.81 232.121 177.255 234.211 179.97 235.07L178.798 236.77C176.894 236.125 175.527 234.836 174.775 233.195C173.993 235.07 172.568 236.545 170.536 237.258L169.364 235.559C172.216 234.562 173.622 232.219 173.642 229.699V228.02H175.81V229.895ZM183.486 227.082V231.379H185.946V233.176H183.486V237.648H181.318V227.082H183.486ZM177.743 238.039C181.396 238.02 183.642 239.27 183.661 241.359C183.642 243.488 181.396 244.719 177.743 244.719C174.052 244.719 171.767 243.488 171.767 241.359C171.767 239.27 174.052 238.02 177.743 238.039ZM177.743 239.738C175.321 239.738 173.935 240.324 173.935 241.359C173.935 242.453 175.321 243 177.743 243C180.165 243 181.513 242.453 181.513 241.359C181.513 240.324 180.165 239.738 177.743 239.738ZM195.605 228.02C195.605 230.012 198.046 232.043 201.679 232.473L200.879 234.191C197.959 233.781 195.634 232.443 194.511 230.617C193.369 232.463 191.035 233.781 188.105 234.191L187.285 232.473C190.937 232.043 193.359 230.031 193.379 228.02V227.375H195.605V228.02ZM202.539 235.305V237.023H186.445V235.305H202.539ZM194.472 238.391C198.281 238.371 200.566 239.504 200.586 241.555C200.566 243.586 198.281 244.738 194.472 244.738C190.625 244.738 188.32 243.586 188.32 241.555C188.32 239.504 190.625 238.371 194.472 238.391ZM194.472 240.031C191.894 240.031 190.507 240.539 190.527 241.555C190.507 242.57 191.894 243.059 194.472 243.059C196.992 243.059 198.398 242.57 198.418 241.555C198.398 240.539 196.992 240.031 194.472 240.031Z" fill="#3191FF"/>
<rect x="305" y="1" width="278" height="278" rx="139" stroke="#3191FF" stroke-width="2"/>
<mask id="mask1_1298_407" style="mask-type:luminance" maskUnits="userSpaceOnUse" x="406" y="40" width="76" height="76">
<path d="M482 40H406V116H482V40Z" fill="white"/>
</mask>
<g mask="url(#mask1_1298_407)">
<path d="M444.79 96.9977H443.207C440.151 96.9977 437.667 94.5112 437.667 91.4572V84.331H430.54C427.484 84.331 425 81.8446 425 78.7905V77.2072C425 74.1507 427.486 71.6667 430.54 71.6667H437.667V64.5405C437.667 61.4841 440.153 59 443.207 59H444.79C447.847 59 450.331 61.4864 450.331 64.5405V71.6667H457.457C460.514 71.6667 462.998 74.1531 462.998 77.2072V78.7905C462.998 81.8469 460.511 84.331 457.457 84.331H450.331V91.4572C450.331 94.5136 447.845 96.9977 444.79 96.9977Z" fill="#3191FF"/>
<path d="M471.613 47.03L469.092 49.5516C462.242 43.4481 453.418 40 444 40C423.046 40 406 57.046 406 78C406 81.7156 406.549 85.4076 407.626 88.9754C407.933 90.0052 408.876 90.6667 409.896 90.6667C410.121 90.6667 410.356 90.6362 410.583 90.5658C411.838 90.1858 412.549 88.8628 412.169 87.6056C411.229 84.4811 410.75 81.2511 410.75 78C410.75 59.6662 425.664 44.75 444 44.75C452.142 44.75 459.777 47.6938 465.733 52.9083L463.697 54.9467C462.202 56.4362 463.256 59 465.374 59H473.29C474.602 59 475.664 57.9351 475.664 56.6262V48.7095C475.664 46.6101 473.115 45.5311 471.611 47.0323L471.613 47.03Z" fill="#3191FF"/>
<path d="M480.374 67.0245C479.994 65.7696 478.681 65.0518 477.414 65.4341C476.159 65.8141 475.449 67.1371 475.829 68.3944C476.772 71.5188 477.25 74.7488 477.25 77.9999C477.25 96.3361 462.336 111.25 444 111.25C435.858 111.25 428.223 108.306 422.267 103.092L424.303 101.053C425.798 99.5638 424.744 96.9999 422.624 96.9999H414.707C413.396 96.9999 412.333 98.0649 412.333 99.3738V107.29C412.333 109.409 414.902 110.455 416.387 108.97L418.908 106.448C425.758 112.549 434.584 116 444 116C464.954 116 482 98.9539 482 77.9999C482 74.2844 481.451 70.5923 480.374 67.0245Z" fill="#3191FF"/>
</g>
<path d="M409.821 139.328V160.656H406.962V149.969H405.157V159.672H402.321V153.555L400.634 155.805C398.653 154.762 397.376 152.992 396.626 150.789C395.911 153.32 394.645 155.371 392.618 156.578L390.766 154.281C394.001 152.453 395.102 148.68 395.102 144.602V143.922H391.493V141.531H401.266V143.922H398.009V144.602C398.009 148.316 399.11 151.855 402.321 153.508V139.633H405.157V147.531H406.962V139.328H409.821ZM421.411 152.383C425.841 152.383 428.607 153.906 428.607 156.508C428.607 159.156 425.841 160.68 421.411 160.68C416.888 160.68 414.099 159.156 414.099 156.508C414.099 153.906 416.888 152.383 421.411 152.383ZM421.411 154.703C418.599 154.703 417.075 155.289 417.099 156.508C417.075 157.727 418.599 158.359 421.411 158.359C424.177 158.359 425.654 157.727 425.654 156.508C425.654 155.289 424.177 154.703 421.411 154.703ZM428.396 139.328V144.273H431.279V146.781H428.396V151.914H425.396V139.328H428.396ZM415.083 140.664V143.359H419.443V140.664H422.443V150.695H412.107V140.664H415.083ZM415.083 148.328H419.443V145.68H415.083V148.328ZM451.236 149.875V152.242H443.197V155.922H440.244V152.242H431.713V149.875H451.236ZM448.728 140.266V148.117H434.15V140.266H448.728ZM437.08 142.586V145.797H445.799V142.586H437.08ZM449.08 157.891V160.281H434.01V154.07H436.986V157.891H449.08ZM476.55 151.188V153.602H471.979V160.656H468.932V153.602H464.573V160.656H461.503V153.602H457.026V151.188H476.55ZM466.729 140.031C471.3 140.031 474.51 141.93 474.51 144.859C474.51 147.742 471.3 149.547 466.729 149.547C462.159 149.547 458.971 147.742 458.995 144.859C458.971 141.93 462.159 140.031 466.729 140.031ZM466.729 142.422C463.87 142.422 462.042 143.289 462.065 144.859C462.042 146.359 463.87 147.203 466.729 147.203C469.612 147.203 471.417 146.359 471.417 144.859C471.417 143.289 469.612 142.422 466.729 142.422ZM494.702 148.867V151.234H488.515V155.781H496.835V158.219H477.312V155.781H485.538V151.234H479.609V140.828H494.538V143.219H482.609V148.867H494.702Z" fill="#3191FF"/>
<path d="M378.583 183.82C378.564 186.965 380.146 190.168 382.88 191.477L381.552 193.215C379.638 192.248 378.261 190.383 377.509 188.137C376.738 190.539 375.292 192.531 373.271 193.547L371.943 191.809C374.775 190.461 376.396 187.082 376.415 183.82V181.008H378.583V183.82ZM386.103 179.582V186.496H388.818V188.352H386.103V197.238H383.935V179.582H386.103ZM404.375 181.477V183.234H389.961V181.477H396.113V179.543H398.261V181.477H404.375ZM405.293 190.988V192.766H398.261V197.258H396.113V192.766H389.16V190.988H405.293ZM397.187 184.035C400.918 184.035 403.164 185.09 403.164 187.023C403.164 188.957 400.918 190.012 397.187 190.012C393.457 190.012 391.211 188.957 391.211 187.023C391.211 185.09 393.457 184.035 397.187 184.035ZM397.187 185.656C394.746 185.656 393.457 186.125 393.476 187.023C393.457 187.922 394.746 188.391 397.187 188.391C399.629 188.391 400.918 187.922 400.918 187.023C400.918 186.125 399.629 185.656 397.187 185.656ZM415.908 180.891V181.945C415.889 183.156 415.889 184.895 415.479 187.141L413.33 186.945C413.672 185.119 413.74 183.771 413.779 182.688H406.904V180.891H415.908ZM411.455 184.914V188.43C413.281 188.361 415.156 188.225 416.865 187.98L416.982 189.543C413.311 190.207 409.15 190.266 406.045 190.285L405.85 188.547C406.895 188.537 408.066 188.527 409.307 188.508V184.914H411.455ZM420.127 179.582V185.09H422.412V186.906H420.127V192.805H417.9V179.582H420.127ZM420.693 195.129V196.887H408.486V191.633H410.674V195.129H420.693ZM437.637 179.582V197.258H435.489V179.582H437.637ZM432.207 181.125V187.746H426.133V191.301C428.916 191.281 431.319 191.145 434.063 190.676L434.258 192.453C431.25 192.98 428.614 193.078 425.45 193.078H423.907V186.027H430V182.883H423.887V181.125H432.207ZM459.357 179.582V197.238H457.286V179.582H459.357ZM455.763 179.914V196.379H453.712V187.492H451.173V185.734H453.712V179.914H455.763ZM449.611 184.406C449.611 187.395 450.685 190.383 453.204 191.828L451.915 193.43C450.284 192.453 449.2 190.773 448.595 188.762C447.97 190.939 446.847 192.795 445.177 193.84L443.849 192.219C446.407 190.676 447.521 187.473 447.521 184.406V183.234H444.454V181.477H452.462V183.234H449.611V184.406ZM468.996 190.617C472.824 190.637 475.246 191.848 475.265 193.938C475.246 195.988 472.824 197.219 468.996 197.219C465.187 197.219 462.746 195.988 462.746 193.938C462.746 191.848 465.187 190.637 468.996 190.617ZM468.996 192.258C466.457 192.258 464.914 192.863 464.933 193.938C464.914 194.973 466.457 195.539 468.996 195.539C471.554 195.539 473.097 194.973 473.117 193.938C473.097 192.863 471.554 192.258 468.996 192.258ZM475.148 180.422V181.887C475.148 183.273 475.148 184.758 474.66 186.574L472.511 186.379C472.951 184.66 472.98 183.42 472.98 182.141H462.921V180.422H475.148ZM477.101 187.59V189.348H461.086V187.59H467.296V184.387H469.445V187.59H477.101ZM485.959 180.578C489.689 180.578 492.541 182.551 492.541 185.559C492.541 188.605 489.689 190.578 485.959 190.578C482.248 190.578 479.396 188.605 479.416 185.559C479.396 182.551 482.248 180.578 485.959 180.578ZM485.959 182.336C483.4 182.316 481.506 183.605 481.506 185.559C481.506 187.551 483.4 188.801 485.959 188.801C488.537 188.801 490.412 187.551 490.412 185.559C490.412 183.605 488.537 182.316 485.959 182.336ZM494.064 193.234V195.012H477.932V193.234H494.064ZM510.95 193.391V195.188H494.817V193.391H501.77V190.52H496.731V184.738H506.887V182.551H496.692V180.793H509.036V186.457H498.899V188.742H509.446V190.52H503.918V193.391H510.95ZM394.526 204.656V207.195H398.471V204.656H400.62V206.297H404.175V203.582H406.343V214.188H404.175V211.648H400.62V213.055H392.358V204.656H394.526ZM394.526 211.355H398.471V208.895H394.526V211.355ZM400.366 214.5C404.116 214.5 406.401 215.73 406.401 217.879C406.401 219.988 404.116 221.219 400.366 221.219C396.636 221.219 394.35 219.988 394.37 217.879C394.35 215.73 396.636 214.5 400.366 214.5ZM400.366 216.16C397.905 216.16 396.518 216.746 396.518 217.879C396.518 218.953 397.905 219.539 400.366 219.539C402.827 219.539 404.233 218.953 404.233 217.879C404.233 216.746 402.827 216.16 400.366 216.16ZM400.62 209.891H404.175V208.016H400.62V209.891ZM423.247 203.602V216.961H421.06V215.418H417.603V213.895H421.06V203.602H423.247ZM423.657 219.129V220.887H410.708V215.672H412.876V219.129H423.657ZM408.364 211.531C411.626 211.512 416.001 211.473 419.751 211.004L419.868 212.566C418.413 212.811 416.909 212.977 415.415 213.074V216.473H413.247V213.191C411.597 213.26 410.025 213.27 408.638 213.27L408.364 211.531ZM414.126 204.246C416.704 204.246 418.501 205.516 418.521 207.371C418.501 209.266 416.704 210.477 414.126 210.477C411.509 210.477 409.712 209.266 409.712 207.371C409.712 205.516 411.509 204.246 414.126 204.246ZM414.126 205.848C412.72 205.848 411.763 206.414 411.763 207.371C411.763 208.328 412.72 208.895 414.126 208.895C415.474 208.895 416.431 208.328 416.45 207.371C416.431 206.414 415.474 205.848 414.126 205.848ZM435.396 204.812C438.189 204.793 440.24 206.57 440.26 209.07C440.24 211.59 438.189 213.348 435.396 213.348C432.623 213.348 430.553 211.59 430.553 209.07C430.553 206.57 432.623 204.793 435.396 204.812ZM435.396 206.688C433.854 206.688 432.701 207.605 432.701 209.07C432.701 210.555 433.854 211.453 435.396 211.453C436.959 211.453 438.131 210.555 438.131 209.07C438.131 207.605 436.959 206.688 435.396 206.688ZM444.381 203.582V221.258H442.213V203.582H444.381ZM429.752 215.789C432.936 215.789 437.35 215.75 441.158 215.203L441.334 216.785C437.369 217.547 433.131 217.566 430.025 217.566L429.752 215.789ZM461.207 204.383V206.121H456.09C456.276 207.82 458.444 209.422 461.852 209.812L461.032 211.551C457.868 211.141 455.534 209.734 454.586 207.82C453.639 209.734 451.325 211.141 448.161 211.551L447.36 209.812C450.768 209.422 452.897 207.801 453.102 206.121H448.024V204.383H461.207ZM460.836 219.129V220.887H448.551V215.848H450.719V219.129H460.836ZM462.653 212.879V214.656H446.559V212.879H453.512V210.281H455.661V212.879H462.653ZM477.78 211.609V213.328H472.546V217.371H479.577V219.148H463.444V217.371H470.397V213.328H465.397V204.891H477.643V206.629H467.565V211.609H477.78ZM485.603 204.676C488.318 204.676 490.388 206.434 490.407 208.934C490.388 211.092 488.864 212.684 486.716 213.094V215.691C488.181 215.623 489.655 215.506 491.032 215.32L491.189 216.941C487.497 217.605 483.454 217.625 480.427 217.586L480.114 215.809C481.443 215.809 482.966 215.809 484.548 215.77V213.094C482.331 212.723 480.798 211.121 480.818 208.934C480.798 206.434 482.829 204.676 485.603 204.676ZM485.603 206.512C484.06 206.531 482.927 207.449 482.927 208.934C482.927 210.418 484.06 211.355 485.603 211.336C487.126 211.355 488.259 210.418 488.259 208.934C488.259 207.449 487.126 206.531 485.603 206.512ZM494.216 203.582V210.633H496.775V212.469H494.216V221.238H492.048V203.582H494.216ZM397.568 238.48C401.22 238.48 403.466 239.711 403.486 241.84C403.466 243.988 401.22 245.238 397.568 245.238C393.877 245.238 391.591 243.988 391.591 241.84C391.591 239.711 393.877 238.48 397.568 238.48ZM397.568 240.18C395.146 240.18 393.759 240.746 393.759 241.84C393.759 242.934 395.146 243.52 397.568 243.52C399.99 243.52 401.338 242.934 401.338 241.84C401.338 240.746 399.99 240.18 397.568 240.18ZM403.31 227.582V231.801H405.771V233.617H403.31V238.051H401.142V227.582H403.31ZM392.138 228.695V231.078H396.259V228.695H398.408V236.938H389.99V228.695H392.138ZM392.138 235.219H396.259V232.777H392.138V235.219ZM422.383 236.41V238.148H415.566V241.391H413.418V238.148H406.25V236.41H422.383ZM420.312 228.383V234.77H408.301V228.383H420.312ZM410.41 230.082V233.07H418.164V230.082H410.41ZM420.605 243.129V244.887H408.203V239.77H410.371V243.129H420.605ZM430.548 228.852V231.527H434.747V228.852H436.915V237.699H428.399V228.852H430.548ZM430.548 235.98H434.747V233.207H430.548V235.98ZM442.208 227.602V240.59H440.02V227.602H442.208ZM442.618 243.129V244.887H430.45V239.262H432.637V243.129H442.618ZM458.722 235.609V237.328H453.488V241.371H460.519V243.148H444.386V241.371H451.339V237.328H446.339V228.891H458.585V230.629H448.507V235.609H458.722ZM481.711 235.805V237.562H465.617V235.805H481.711ZM473.645 238.734C477.453 238.734 479.738 239.926 479.758 241.977C479.738 244.047 477.453 245.219 473.645 245.219C469.797 245.219 467.492 244.047 467.492 241.977C467.492 239.926 469.797 238.734 473.645 238.734ZM473.645 240.434C471.066 240.434 469.68 240.961 469.699 241.977C469.68 242.992 471.066 243.52 473.645 243.52C476.164 243.52 477.57 242.992 477.59 241.977C477.57 240.961 476.164 240.434 473.645 240.434ZM480.266 228.422V230.199H475.168C475.49 231.664 477.609 232.982 480.949 233.305L480.188 235.023C476.984 234.682 474.602 233.422 473.645 231.625C472.688 233.412 470.344 234.682 467.141 235.023L466.398 233.305C469.67 232.982 471.799 231.664 472.141 230.199H467.082V228.422H480.266ZM496.33 227.582V234.477H498.948V236.293H496.33V245.199H494.163V227.582H496.33ZM491.663 229.418C491.663 234.613 489.514 239.164 483.635 242.055L482.405 240.375C486.702 238.236 489.026 235.229 489.475 231.215H483.362V229.418H491.663Z" fill="#3191FF"/>
<rect x="609" y="1" width="278" height="278" rx="139" stroke="#3191FF" stroke-width="2"/>
<mask id="mask2_1298_407" style="mask-type:luminance" maskUnits="userSpaceOnUse" x="703" y="49" width="88" height="88">
<path d="M791 49H703V137H791V49Z" fill="white"/>
</mask>
<g mask="url(#mask2_1298_407)">
<path d="M786.668 97.1474C781.094 91.6175 772.031 91.6175 766.458 97.1474C766.281 97.324 766.104 97.5141 765.931 97.7042C765.754 97.5141 765.578 97.324 765.404 97.1474C759.83 91.6175 750.767 91.6175 745.194 97.1474C742.494 99.8309 741 103.394 741 107.194C741 110.994 742.48 114.557 745.194 117.254L764.907 136.571C765.186 136.851 765.567 136.997 765.933 136.997C766.3 136.997 766.68 136.851 766.96 136.571L786.673 117.254C789.373 114.571 790.867 111.007 790.867 107.208C790.867 103.408 789.386 99.8444 786.673 97.161V97.1474H786.668Z" fill="#3191FF"/>
<path d="M777.8 112.067H774.193L771.7 108.327C771.406 107.887 770.937 107.653 770.393 107.68C769.866 107.71 769.41 108.017 769.177 108.487L766.183 114.457L763.03 107.094C762.824 106.61 762.37 106.273 761.857 106.214C761.33 106.154 760.817 106.374 760.507 106.787L756.547 112.067H752.88C752.074 112.067 751.414 112.727 751.414 113.533C751.414 114.34 752.074 115 752.88 115H757.28C757.734 115 758.174 114.78 758.454 114.413L761.327 110.57L764.73 118.504C764.95 119.031 765.464 119.37 766.037 119.397H766.08C766.637 119.397 767.137 119.09 767.387 118.591L770.657 112.05L772.183 114.354C772.463 114.764 772.917 115.014 773.4 115.014H777.8C778.607 115.014 779.267 114.354 779.267 113.547C779.267 112.74 778.607 112.08 777.8 112.08V112.067Z" fill="white"/>
<path d="M741.133 51.9333V57.8C741.133 58.6067 740.473 59.2667 739.667 59.2667H727.933C727.127 59.2667 726.467 58.6067 726.467 57.8V51.9333H741.133ZM748.7 125.267H711.8C708.56 125.267 705.933 122.64 705.933 119.4V57.8C705.933 54.5598 708.56 51.9333 711.8 51.9333H723.533V54.8667H711.8C710.187 54.8667 708.867 56.1867 708.867 57.8V119.4C708.867 121.013 710.187 122.333 711.8 122.333H742.717C743.523 122.333 744.183 121.673 744.183 120.867C744.183 120.06 743.523 119.4 742.717 119.4H711.8V57.8H723.533C723.533 60.22 725.513 62.2 727.933 62.2H739.667C742.087 62.2 744.067 60.22 744.067 57.8H755.8V88.7032C755.8 89.5099 756.46 90.1699 757.267 90.1699C758.073 90.1699 758.733 89.5099 758.733 88.7032V57.8C758.733 56.1867 757.413 54.8667 755.8 54.8667H744.067V51.9333H755.8C759.04 51.9333 761.667 54.5598 761.667 57.8V90.2568C761.667 91.0635 762.327 91.7235 763.133 91.7235C763.94 91.7235 764.6 91.0635 764.6 90.2568V57.8C764.6 52.9464 760.654 49 755.8 49H711.8C706.946 49 703 52.9464 703 57.8V119.4C703 124.254 706.946 128.2 711.8 128.2H748.7C749.507 128.2 750.167 127.54 750.167 126.733C750.167 125.927 749.507 125.267 748.7 125.267Z" fill="#3191FF"/>
<path d="M741.133 79.8H736.733C735.927 79.8 735.267 80.46 735.267 81.2667V85.6667H732.333V81.2667C732.333 80.46 731.673 79.8 730.867 79.8H726.467V76.8667H730.867C731.673 76.8667 732.333 76.2067 732.333 75.4V71H735.267V75.4C735.267 76.2067 735.927 76.8667 736.733 76.8667H741.133V79.8ZM744.067 81.2667V75.4C744.067 74.5933 743.407 73.9333 742.6 73.9333H738.2V69.5333C738.2 68.7267 737.54 68.0667 736.733 68.0667H730.867C730.06 68.0667 729.4 68.7267 729.4 69.5333V73.9333H725C724.193 73.9333 723.533 74.5933 723.533 75.4V81.2667C723.533 82.0733 724.193 82.7333 725 82.7333H729.4V87.1333C729.4 87.94 730.06 88.6 730.867 88.6H736.733C737.54 88.6 738.2 87.94 738.2 87.1333V82.7333H742.6C743.407 82.7333 744.067 82.0733 744.067 81.2667Z" fill="#3191FF"/>
<path d="M722.067 98.8667H719.133V95.9333H722.067V98.8667ZM725 94.4667C725 93.66 724.34 93 723.533 93H717.667C716.86 93 716.2 93.66 716.2 94.4667V100.333C716.2 101.14 716.86 101.8 717.667 101.8H723.533C724.34 101.8 725 101.14 725 100.333V94.4667Z" fill="#3191FF"/>
<path d="M729.4 95.9333H733.8C734.607 95.9333 735.267 95.2733 735.267 94.4667C735.267 93.66 734.607 93 733.8 93H729.4C728.593 93 727.933 93.66 727.933 94.4667C727.933 95.2733 728.593 95.9333 729.4 95.9333Z" fill="#3191FF"/>
<path d="M738.2 98.8667H729.4C728.593 98.8667 727.933 99.5267 727.933 100.333C727.933 101.14 728.593 101.8 729.4 101.8H738.2C739.007 101.8 739.667 101.14 739.667 100.333C739.667 99.5267 739.007 98.8667 738.2 98.8667Z" fill="#3191FF"/>
<path d="M722.067 112.067H719.133V109.133H722.067V112.067ZM723.533 106.2H717.667C716.86 106.2 716.2 106.86 716.2 107.667V113.533C716.2 114.34 716.86 115 717.667 115H723.533C724.34 115 725 114.34 725 113.533V107.667C725 106.86 724.34 106.2 723.533 106.2Z" fill="#3191FF"/>
<path d="M729.4 109.133H733.8C734.607 109.133 735.267 108.473 735.267 107.667C735.267 106.86 734.607 106.2 733.8 106.2H729.4C728.593 106.2 727.933 106.86 727.933 107.667C727.933 108.473 728.593 109.133 729.4 109.133Z" fill="#3191FF"/>
<path d="M729.4 115H738.2C739.007 115 739.667 114.34 739.667 113.533C739.667 112.727 739.007 112.067 738.2 112.067H729.4C728.593 112.067 727.933 112.727 727.933 113.533C727.933 114.34 728.593 115 729.4 115Z" fill="#3191FF"/>
</g>
<path d="M682.16 158.008C682.16 161.031 683.731 164.477 687.129 166.07L685.465 168.32C683.192 167.301 681.61 165.285 680.707 162.906C679.793 165.473 678.106 167.641 675.692 168.695L674.051 166.375C677.52 164.852 679.184 161.219 679.207 158.008V157.188H674.801V154.797H679.184V151.797H682.184V154.797H686.52V157.188H682.16V158.008ZM691.278 151.328V159.602H694.418V162.109H691.278V172.656H688.278V151.328H691.278ZM712.688 151.328V162.297H709.712V160.164H705.774V161.688H695.626V152.242H698.626V154.727H702.821V152.242H705.774V154.047H709.712V151.328H712.688ZM712.688 163.094V168.789H701.509V170.078H713.321V172.422H698.509V166.609H709.712V165.391H698.485V163.094H712.688ZM698.626 159.344H702.821V157H698.626V159.344ZM705.774 157.914H709.712V156.273H705.774V157.914ZM732.036 151.328V160H734.825V162.484H732.036V172.656H729.013V151.328H732.036ZM714.716 166.633C716.275 166.633 718.091 166.633 719.99 166.586V164.758C717.716 164.312 716.24 162.871 716.263 160.891C716.24 158.5 718.396 156.883 721.513 156.883C724.56 156.883 726.74 158.5 726.763 160.891C726.74 162.871 725.24 164.324 722.99 164.758V166.469C724.677 166.387 726.376 166.246 727.958 166.023L728.146 168.203C723.599 169.047 718.724 169.07 715.115 169.07L714.716 166.633ZM727.794 153.695V156.039H715.138V153.695H719.99V151.445H722.99V153.695H727.794ZM721.513 159.156C720.06 159.156 719.075 159.789 719.099 160.891C719.075 162.016 720.06 162.625 721.513 162.625C722.919 162.625 723.88 162.016 723.88 160.891C723.88 159.789 722.919 159.156 721.513 159.156ZM747.681 157.867V160.258H743.861V162.414C745.549 162.332 747.224 162.227 748.806 162.062L749.017 164.195C744.494 164.828 739.666 164.945 735.728 164.945L735.33 162.578C737.041 162.566 738.928 162.555 740.861 162.508V160.258H737.135V152.617H747.494V155.008H740.135V157.867H747.681ZM753.166 151.305V167.383H750.119V151.305H753.166ZM753.728 169.891V172.281H738.635V166.164H741.658V169.891H753.728ZM768.612 156.156C768.612 160.164 770.229 164.055 773.792 165.602L771.964 167.992C769.596 166.832 768.014 164.711 767.135 162.086C766.198 164.875 764.557 167.16 762.12 168.367L760.245 165.93C763.901 164.289 765.565 160.164 765.589 156.156V152.969H768.612V156.156ZM778.55 151.328V172.703H775.596V160.445H771.401V158.031H775.596V151.328H778.55ZM798.671 151.328V172.703H795.648V151.328H798.671ZM784.866 153.016V158.219H789.46V153.016H792.413V167.711H781.866V153.016H784.866ZM784.866 165.297H789.46V160.539H784.866V165.297ZM812.3 154.141C812.3 157.258 815.066 160.609 819.894 161.43L818.582 163.914C814.867 163.176 812.101 161.09 810.73 158.336C809.312 161.066 806.547 163.164 802.855 163.914L801.566 161.43C806.3 160.586 809.09 157.234 809.113 154.141V152.594H812.3V154.141ZM820.597 167.57V170.031H801.074V167.57H820.597Z" fill="#3191FF"/>
<path d="M673.899 188.602V198.914H671.731V196.961H667.532V195.203H671.731V193.309H667.708C666.585 196.121 664.016 198.084 660.169 199.148L659.29 197.43C663.421 196.307 665.618 194.217 665.97 191.59H660.227V189.832H668.333C668.333 190.447 668.284 191.033 668.177 191.59H671.731V188.602H673.899ZM668.059 199.109C671.634 199.109 674.016 200.457 674.016 202.625C674.016 204.793 671.634 206.141 668.059 206.141C664.446 206.141 662.063 204.793 662.063 202.625C662.063 200.457 664.446 199.109 668.059 199.109ZM668.059 200.809C665.677 200.809 664.231 201.453 664.231 202.625C664.231 203.777 665.677 204.422 668.059 204.422C670.384 204.422 671.848 203.777 671.848 202.625C671.848 201.453 670.384 200.809 668.059 200.809ZM681.429 192.078C681.429 194.109 682.445 195.906 684.691 196.766L683.558 198.445C682.044 197.85 681.019 196.775 680.433 195.438C679.788 196.961 678.685 198.221 677.034 198.895L675.862 197.215C678.245 196.238 679.339 194.168 679.339 192.078V191.688H676.37V189.949H684.28V191.688H681.429V192.078ZM691.097 188.602V199.324H689.027V194.793H687.327V198.777H685.277V188.934H687.327V193.016H689.027V188.602H691.097ZM685.14 199.637C688.831 199.656 691.175 200.867 691.195 202.918C691.175 204.969 688.831 206.219 685.14 206.219C681.409 206.219 679.085 204.969 679.085 202.918C679.085 200.867 681.409 199.656 685.14 199.637ZM685.14 201.297C682.698 201.297 681.253 201.883 681.253 202.918C681.253 203.992 682.698 204.539 685.14 204.539C687.562 204.539 689.007 203.992 689.007 202.918C689.007 201.883 687.562 201.297 685.14 201.297ZM700.199 189.656V192.195H704.145V189.656H706.293V191.297H709.848V188.582H712.016V199.188H709.848V196.648H706.293V198.055H698.031V189.656H700.199ZM700.199 196.355H704.145V193.895H700.199V196.355ZM706.039 199.5C709.789 199.5 712.074 200.73 712.074 202.879C712.074 204.988 709.789 206.219 706.039 206.219C702.309 206.219 700.023 204.988 700.043 202.879C700.023 200.73 702.309 199.5 706.039 199.5ZM706.039 201.16C703.578 201.16 702.191 201.746 702.191 202.879C702.191 203.953 703.578 204.539 706.039 204.539C708.5 204.539 709.906 203.953 709.906 202.879C709.906 201.746 708.5 201.16 706.039 201.16ZM706.293 194.891H709.848V193.016H706.293V194.891ZM728.92 188.602V201.961H726.733V200.418H723.276V198.895H726.733V188.602H728.92ZM729.33 204.129V205.887H716.381V200.672H718.549V204.129H729.33ZM714.037 196.531C717.299 196.512 721.674 196.473 725.424 196.004L725.541 197.566C724.086 197.811 722.582 197.977 721.088 198.074V201.473H718.92V198.191C717.27 198.26 715.698 198.27 714.311 198.27L714.037 196.531ZM719.799 189.246C722.377 189.246 724.174 190.516 724.194 192.371C724.174 194.266 722.377 195.477 719.799 195.477C717.182 195.477 715.385 194.266 715.385 192.371C715.385 190.516 717.182 189.246 719.799 189.246ZM719.799 190.848C718.393 190.848 717.436 191.414 717.436 192.371C717.436 193.328 718.393 193.895 719.799 193.895C721.147 193.895 722.104 193.328 722.123 192.371C722.104 191.414 721.147 190.848 719.799 190.848ZM740.864 190.418V191.668C740.864 193.25 740.864 195.457 740.376 198.504L738.227 198.328C738.647 195.652 738.696 193.68 738.716 192.156H731.782V190.418H740.864ZM736.411 195.457V200.672C738.208 200.604 740.054 200.477 741.743 200.262L741.86 201.883C738.208 202.469 734.165 202.547 731.059 202.527L730.845 200.789C731.889 200.779 733.052 200.77 734.262 200.73V195.457H736.411ZM744.848 188.582V195.77H747.407V197.605H744.848V206.238H742.661V188.582H744.848ZM753.609 189.812C756.402 189.793 758.452 191.57 758.472 194.07C758.452 196.59 756.402 198.348 753.609 198.348C750.835 198.348 748.765 196.59 748.765 194.07C748.765 191.57 750.835 189.793 753.609 189.812ZM753.609 191.688C752.066 191.688 750.913 192.605 750.913 194.07C750.913 195.555 752.066 196.453 753.609 196.453C755.171 196.453 756.343 195.555 756.343 194.07C756.343 192.605 755.171 191.688 753.609 191.688ZM762.593 188.582V206.258H760.425V188.582H762.593ZM747.964 200.789C751.148 200.789 755.562 200.75 759.37 200.203L759.546 201.785C755.581 202.547 751.343 202.566 748.237 202.566L747.964 200.789ZM775.328 194.188C775.328 196.805 776.812 199.656 779.527 200.945L778.316 202.586C776.412 201.697 775.025 199.949 774.293 197.879C773.512 200.105 772.057 201.99 770.035 202.898L768.844 201.219C771.617 199.969 773.18 196.961 773.18 194.188V193.27H769.41V191.531H773.18V188.953H775.348V191.531H779.059V193.27H775.328V194.188ZM782.945 188.582V195.574H785.66V197.391H782.945V206.238H780.777V188.582H782.945ZM800.788 188.582V197.703H798.62V195.789H795.065V197.137H786.803V189.363H788.971V191.59H792.916V189.363H795.065V190.926H798.62V188.582H800.788ZM800.788 198.426V202.957H791.334V204.305H801.354V206.023H789.166V201.355H798.62V200.125H789.147V198.426H800.788ZM788.971 195.418H792.916V193.25H788.971V195.418ZM795.065 194.129H798.62V192.566H795.065V194.129ZM816.852 188.582V195.867H819.333V197.684H816.852V206.238H814.665V188.582H816.852ZM802.673 201.336C804.011 201.336 805.563 201.336 807.184 201.297V199.637C805.261 199.314 804.001 198.104 804.02 196.453C804.001 194.461 805.759 193.133 808.298 193.133C810.798 193.133 812.575 194.461 812.595 196.453C812.575 198.113 811.296 199.324 809.372 199.637V201.219C810.856 201.141 812.341 201.023 813.727 200.828L813.864 202.41C810.075 203.094 805.993 203.133 802.985 203.133L802.673 201.336ZM813.532 190.613V192.332H803.005V190.613H807.184V188.66H809.372V190.613H813.532ZM808.298 194.793C806.95 194.812 806.071 195.418 806.071 196.453C806.071 197.469 806.95 198.074 808.298 198.055C809.626 198.074 810.505 197.469 810.505 196.453C810.505 195.418 809.626 194.812 808.298 194.793ZM835.905 202.391V204.188H819.773V202.391H826.726V199.52H821.687V193.738H831.843V191.551H821.648V189.793H833.991V195.457H823.855V197.742H834.402V199.52H828.874V202.391H835.905ZM688.533 212.602V225.492H686.346V212.602H688.533ZM689.021 228.129V229.887H676.854V224.262H679.041V228.129H689.021ZM680.408 215.297C680.408 217.758 681.854 220.082 684.646 221.02L683.533 222.738C681.521 222.035 680.086 220.629 679.314 218.832C678.514 220.756 677.059 222.299 674.979 223.051L673.846 221.332C676.717 220.316 678.162 217.836 678.162 215.297V213.578H680.408V215.297ZM704.676 213.617V214.848C704.657 216.361 704.657 218.383 704.188 221.254H706.805V223.012H702.821V230.219H700.672V223.012H696.727V230.219H694.539V223.012H690.711V221.254H702C702.479 218.725 702.537 216.84 702.547 215.395H692.684V213.617H704.676ZM725.927 212.582V218.5H728.31V220.297H725.927V226.371H723.759V212.582H725.927ZM726.552 228.129V229.887H714.325V225.453H716.493V228.129H726.552ZM711.786 222.836C713.105 222.836 714.638 222.826 716.239 222.758V221.645C714.277 221.41 713.036 220.443 713.036 219.027C713.036 217.289 714.736 216.273 717.294 216.293C719.872 216.273 721.552 217.289 721.552 219.027C721.552 220.434 720.341 221.391 718.407 221.645V222.66C719.911 222.582 721.425 222.445 722.841 222.23L723.017 223.754C719.286 224.457 715.068 224.496 712.021 224.535L711.786 222.836ZM722.372 214.125V215.707H712.236V214.125H716.239V212.523H718.407V214.125H722.372ZM717.294 217.758C715.927 217.758 715.107 218.207 715.126 219.027C715.107 219.789 715.927 220.238 717.294 220.238C718.661 220.238 719.482 219.789 719.482 219.027C719.482 218.207 718.661 217.758 717.294 217.758ZM735.156 217.602C735.156 220.336 736.777 223.441 739.57 224.73L738.359 226.449C736.367 225.512 734.892 223.617 734.101 221.41C733.3 223.832 731.757 225.902 729.726 226.879L728.457 225.18C731.269 223.852 732.968 220.531 732.988 217.602V216.117H729.14V214.32H738.847V216.117H735.156V217.602ZM742.656 212.582V219.457H745.371V221.273H742.656V230.238H740.488V212.582H742.656ZM766.172 222.484V224.242H762.246V230.238H760.039V224.242H756.133V230.238H753.907V224.242H750.039V222.484H766.172ZM758.067 213.207C761.817 213.227 764.434 214.75 764.434 217.152C764.434 219.516 761.817 221.02 758.067 221.02C754.297 221.02 751.719 219.516 751.739 217.152C751.719 214.75 754.297 213.227 758.067 213.207ZM758.067 214.965C755.567 214.965 753.946 215.766 753.965 217.152C753.946 218.5 755.567 219.301 758.067 219.301C760.567 219.301 762.188 218.5 762.188 217.152C762.188 215.766 760.567 214.965 758.067 214.965ZM781.651 212.582V222.055H779.464V212.582H781.651ZM772.12 222.875V224.691H779.483V222.875H781.651V230.023H769.971V222.875H772.12ZM772.12 228.266H779.483V226.391H772.12V228.266ZM772.022 213.363C774.737 213.344 776.768 215.043 776.768 217.504C776.768 219.906 774.737 221.605 772.022 221.605C769.288 221.605 767.257 219.906 767.257 217.504C767.257 215.043 769.288 213.344 772.022 213.363ZM772.022 215.18C770.479 215.18 769.366 216.078 769.386 217.504C769.366 218.91 770.479 219.809 772.022 219.828C773.546 219.809 774.639 218.91 774.639 217.504C774.639 216.078 773.546 215.18 772.022 215.18ZM804.269 220.805V222.562H788.175V220.805H804.269ZM796.203 223.734C800.011 223.734 802.296 224.926 802.316 226.977C802.296 229.047 800.011 230.219 796.203 230.219C792.355 230.219 790.05 229.047 790.05 226.977C790.05 224.926 792.355 223.734 796.203 223.734ZM796.203 225.434C793.625 225.434 792.238 225.961 792.257 226.977C792.238 227.992 793.625 228.52 796.203 228.52C798.722 228.52 800.129 227.992 800.148 226.977C800.129 225.961 798.722 225.434 796.203 225.434ZM802.824 213.422V215.199H797.726C798.048 216.664 800.168 217.982 803.507 218.305L802.746 220.023C799.543 219.682 797.16 218.422 796.203 216.625C795.246 218.412 792.902 219.682 789.699 220.023L788.957 218.305C792.228 217.982 794.357 216.664 794.699 215.199H789.64V213.422H802.824ZM818.889 212.582V219.477H821.506V221.293H818.889V230.199H816.721V212.582H818.889ZM814.221 214.418C814.221 219.613 812.072 224.164 806.193 227.055L804.963 225.375C809.26 223.236 811.584 220.229 812.033 216.215H805.92V214.418H814.221Z" fill="#3191FF"/>
<defs>
<clipPath id="clip0_1298_407">
<rect width="80" height="91" fill="white" transform="translate(99.5 32)"/>
</clipPath>
</defs>
</svg>
