<svg width="281" height="898" viewBox="0 0 281 898" fill="none" xmlns="http://www.w3.org/2000/svg">
<rect x="2" y="1" width="278" height="278" rx="139" stroke="#3191FF" stroke-width="2"/>
<g clip-path="url(#clip0_1341_55)">
<mask id="mask0_1341_55" style="mask-type:luminance" maskUnits="userSpaceOnUse" x="100" y="32" width="81" height="91">
<path d="M180.447 32H100.5V123H180.447V32Z" fill="white"/>
</mask>
<g mask="url(#mask0_1341_55)">
<path d="M144.59 62.6732C153.012 62.6732 159.858 55.7976 159.858 47.3436C159.858 38.8896 153.009 32.0225 144.59 32.0225C136.172 32.0225 129.328 38.8952 129.328 47.3436C129.328 55.792 136.175 62.6732 144.59 62.6732ZM128.968 90.3355L150.67 97.5397C152.547 98.1632 153.949 99.6293 154.537 101.421L166.749 93.5626V91.0124L155.745 79.9576C152.083 76.281 152.083 70.2958 155.745 66.6137C155.857 66.4985 155.972 66.389 156.089 66.2851C154.391 65.684 152.589 65.3695 150.782 65.3695H138.402C129.597 65.3695 122.432 72.5596 122.432 81.3984V90.4282C124.519 89.6389 126.743 89.5968 128.968 90.3383V90.3355ZM173.603 76.2249C173.603 75.4806 173.002 74.8767 172.263 74.8767H169.432V72.0372C169.432 71.2929 168.83 70.6918 168.092 70.6918C167.353 70.6918 166.752 71.2957 166.752 72.0372V74.8767H163.929C163.187 74.8767 162.586 75.4806 162.586 76.2249C162.586 76.9692 163.187 77.5702 163.929 77.5702H166.752V80.4041C166.752 81.1484 167.353 81.7495 168.092 81.7495C168.83 81.7495 169.432 81.1456 169.432 80.4041V77.5702H172.263C173.005 77.5702 173.603 76.9664 173.603 76.2249ZM180.5 73.2842C180.5 75.0902 179.803 76.7838 178.539 78.0505L168.092 88.5436L157.645 78.0505C155.029 75.4244 155.029 71.144 157.645 68.5123C158.907 67.2456 160.594 66.5491 162.393 66.5491C164.192 66.5491 165.882 67.2456 167.143 68.5151C167.667 69.0404 168.517 69.0404 169.04 68.5151C171.662 65.8891 175.926 65.8891 178.542 68.5151C179.806 69.7847 180.503 71.4783 180.503 73.2842H180.5ZM168.414 95.6888L154.688 104.519C154.329 106.207 153.336 107.701 151.951 108.586C151.045 109.167 150.01 109.46 148.927 109.46C148.25 109.46 147.553 109.344 146.857 109.114L136.969 105.834C136.267 105.6 135.886 104.839 136.119 104.132C136.351 103.427 137.109 103.045 137.811 103.278L147.699 106.558C148.762 106.912 149.705 106.831 150.51 106.317C151.375 105.763 151.996 104.719 152.125 103.595C152.13 103.542 152.139 103.494 152.153 103.443C152.198 101.958 151.244 100.565 149.825 100.096L128.123 92.8885C126.01 92.1864 123.979 92.4195 122.085 93.5795L112.659 99.3372L121.033 112.513L125.688 109.67C126.021 109.465 126.433 109.42 126.808 109.544L144.677 115.473C147.078 116.273 149.473 115.97 151.599 114.599L172.076 101.424C173.648 100.413 174.11 98.298 173.103 96.7139C172.093 95.1355 169.989 94.6748 168.414 95.6916V95.6888ZM119.48 115.077L121.083 117.599L112.659 122.992L100.5 103.853L108.921 98.4609L119.455 115.037C119.455 115.037 119.458 115.046 119.461 115.052C119.469 115.06 119.475 115.071 119.48 115.08V115.077Z" fill="#3191FF"/>
</g>
</g>
<path d="M81.9864 138.828V145.836H84.7052V148.297H81.9864V155.469H78.9864V138.828H81.9864ZM82.713 157.391V159.781H67.6895V154.367H70.6895V157.391H82.713ZM64.6895 151.086C66.2247 151.086 68.0059 151.074 69.8692 151.016V149.773C67.5489 149.457 66.0958 148.297 66.1192 146.633C66.0958 144.523 68.1817 143.281 71.3458 143.305C74.4864 143.281 76.5489 144.523 76.5723 146.633C76.5489 148.285 75.1309 149.445 72.8458 149.773V150.875C74.6036 150.77 76.3614 150.605 78.002 150.359L78.213 152.422C73.713 153.289 68.6739 153.336 64.9942 153.383L64.6895 151.086ZM77.463 140.562V142.695H65.252V140.562H69.8692V138.758H72.8458V140.562H77.463ZM71.3458 145.297C69.8223 145.297 68.9552 145.719 68.9786 146.633C68.9552 147.43 69.8223 147.875 71.3458 147.875C72.8458 147.875 73.6895 147.43 73.713 146.633C73.6895 145.719 72.8458 145.297 71.3458 145.297ZM93.0611 144.641C93.0377 147.898 94.772 151.648 98.2877 153.266L96.6236 155.609C94.2447 154.52 92.5455 152.34 91.608 149.773C90.647 152.598 88.9009 154.988 86.4283 156.148L84.6939 153.781C88.2564 152.117 90.0377 148.156 90.0611 144.641V143.328H85.5377V140.891H97.3502V143.328H93.0611V144.641ZM102.014 138.828V146.961H105.155V149.469H102.014V160.156H99.0142V138.828H102.014ZM121.375 140.586V150.828H111.132V140.586H121.375ZM114.085 142.977V148.484H118.421V142.977H114.085ZM127.421 138.828V144.969H130.304V147.43H127.421V154.391H124.421V138.828H127.421ZM128.195 157.391V159.781H113.593V152.867H116.57V157.391H128.195ZM148.457 139.602V141.969H142.621C143.09 143.527 145.293 145.039 149.395 145.414L148.316 147.758C144.309 147.359 141.602 145.836 140.465 143.727C139.34 145.824 136.68 147.359 132.684 147.758L131.629 145.414C135.672 145.039 137.863 143.516 138.332 141.969H132.543V139.602H148.457ZM150.215 149.211V151.602H130.762V149.211H138.988V146.422H141.941V149.211H150.215ZM147.848 153.125V160.156H144.871V155.516H132.918V153.125H147.848ZM168.415 148.367V150.734H162.227V155.281H170.547V157.719H151.024V155.281H159.25V150.734H153.321V140.328H168.25V142.719H156.321V148.367H168.415ZM195.79 148.648V151.062H176.337V148.648H195.79ZM186.04 152.258C190.658 152.258 193.447 153.711 193.47 156.219C193.447 158.75 190.658 160.156 186.04 160.156C181.376 160.156 178.564 158.75 178.564 156.219C178.564 153.711 181.376 152.258 186.04 152.258ZM186.04 154.578C183.087 154.578 181.587 155.094 181.611 156.219C181.587 157.32 183.087 157.836 186.04 157.836C188.923 157.836 190.447 157.32 190.47 156.219C190.447 155.094 188.923 154.578 186.04 154.578ZM194.033 139.812V142.203H188.22C188.701 143.691 190.869 145.168 194.97 145.531L193.915 147.875C189.896 147.488 187.177 145.965 186.04 143.891C184.915 145.965 182.244 147.488 178.189 147.875L177.205 145.531C181.212 145.168 183.404 143.703 183.908 142.203H178.119V139.812H194.033ZM213.428 138.828V147.008H216.451V149.469H213.428V160.109H210.428V138.828H213.428ZM207.732 141.008C207.709 147.383 205.225 152.914 198.053 156.43L196.365 154.133C201.416 151.602 204.123 148.203 204.685 143.445H197.584V141.008H207.732Z" fill="#3191FF"/>
<path d="M63.9207 179.863C66.5965 179.844 68.5496 181.367 68.5496 183.574C68.5496 185.742 66.5965 187.285 63.9207 187.266C61.2645 187.285 59.3309 185.742 59.3309 183.574C59.3309 181.367 61.2645 179.844 63.9207 179.863ZM63.9207 181.621C62.4754 181.602 61.4207 182.363 61.4402 183.574C61.4207 184.766 62.4754 185.488 63.9207 185.488C65.4246 185.488 66.4793 184.766 66.4793 183.574C66.4793 182.363 65.4246 181.602 63.9207 181.621ZM72.9246 179.102V196.719H70.7762V179.102H72.9246ZM58.1785 188.477C61.3621 188.477 65.8152 188.418 69.6238 187.852L69.7801 189.453C68.2566 189.746 66.6746 189.932 65.1316 190.039V196.191H62.9441V190.176C61.3133 190.244 59.7801 190.254 58.452 190.273L58.1785 188.477ZM89.4582 180.703V182.402C89.4387 184.59 89.4387 187.051 88.7551 190.742L86.5676 190.508C87.2512 187.07 87.2512 184.561 87.2707 182.441H76.7238V180.703H89.4582ZM91.1379 192.676V194.453H75.0441V192.676H80.9816V186.543H83.1301V192.676H91.1379ZM106.617 179.082V196.758H104.429V179.082H106.617ZM95.0348 180.527V184.941H99.3121V180.527H101.461V192.598H92.8668V180.527H95.0348ZM95.0348 190.82H99.3121V186.641H95.0348V190.82ZM127.086 179.082V184.043H129.567V185.84H127.086V191.855H124.918V179.082H127.086ZM121.813 180.547V182.285H116.051V187.09C119.371 187.1 121.217 186.982 123.317 186.543L123.551 188.301C121.246 188.75 119.176 188.867 115.329 188.867H113.903V180.547H121.813ZM127.789 194.629V196.387H115.778V190.508H117.946V194.629H127.789ZM146.139 187.715V189.453H130.046V187.715H136.999V185.957H132.018V179.805H144.206V181.523H134.186V184.199H144.362V185.957H139.167V187.715H146.139ZM144.206 190.84V196.797H142.057V192.578H131.823V190.84H144.206ZM166.082 179.082V196.758H163.914V187.734H160.496V185.977H163.914V179.082H166.082ZM157.722 184.688C157.703 187.363 159.304 190.215 162.097 191.445L160.925 193.105C158.904 192.246 157.439 190.479 156.668 188.359C155.886 190.605 154.431 192.49 152.41 193.398L151.238 191.719C153.992 190.469 155.554 187.461 155.554 184.688V183.77H151.765V182.031H155.574V179.453H157.742V182.031H161.433V183.77H157.722V184.688ZM176.346 189.98C179.998 189.98 182.244 191.211 182.264 193.34C182.244 195.488 179.998 196.738 176.346 196.738C172.654 196.738 170.369 195.488 170.369 193.34C170.369 191.211 172.654 189.98 176.346 189.98ZM176.346 191.68C173.924 191.68 172.537 192.246 172.537 193.34C172.537 194.434 173.924 195.02 176.346 195.02C178.768 195.02 180.115 194.434 180.115 193.34C180.115 192.246 178.768 191.68 176.346 191.68ZM182.088 179.082V183.301H184.549V185.117H182.088V189.551H179.92V179.082H182.088ZM170.916 180.195V182.578H175.037V180.195H177.186V188.438H168.768V180.195H170.916ZM170.916 186.719H175.037V184.277H170.916V186.719ZM201.18 192.832V194.609H185.047V192.832H192V189.395H186.825V180.254H188.993V183.145H197.176V180.254H199.344V189.395H194.149V192.832H201.18ZM188.993 187.637H197.176V184.883H188.993V187.637ZM215.761 179.082V185.781H218.475V187.559H215.761V196.758H213.593V179.082H215.761ZM210.917 180.762V182.52H204.823V190.625C207.567 190.625 209.735 190.488 212.167 190.059L212.421 191.895C209.686 192.363 207.304 192.441 204.12 192.441H202.655V180.762H210.917ZM94.8102 204.684V206.461H88.9313V214.684C91.6852 214.664 93.6285 214.547 95.8258 214.137L96.0602 215.895C93.5797 216.383 91.4508 216.48 88.15 216.48H86.7438V204.684H94.8102ZM100.709 203.082V220.758H98.5406V211.07H93.8727V209.293H98.5406V203.082H100.709ZM123.561 209.898V211.676H120.944V220.699H118.776V203.082H120.944V209.898H123.561ZM109.889 204.801V214.547C112.243 214.508 114.752 214.303 117.409 213.746L117.643 215.582C114.674 216.168 111.842 216.344 109.225 216.344H107.741V204.801H109.889ZM140.095 212.203V213.941H124.001V212.203H140.095ZM138.278 218.629V220.387H125.993V215.25H128.161V218.629H138.278ZM132.028 203.648C135.876 203.648 138.376 204.996 138.395 207.223C138.376 209.469 135.876 210.836 132.028 210.836C128.18 210.836 125.661 209.469 125.661 207.223C125.661 204.996 128.18 203.648 132.028 203.648ZM132.028 205.387C129.47 205.387 127.907 206.051 127.927 207.223C127.907 208.414 129.47 209.078 132.028 209.059C134.606 209.078 136.149 208.414 136.149 207.223C136.149 206.051 134.606 205.387 132.028 205.387ZM160.017 203.082V212.027H157.849V210.484H153.591V208.824H157.849V207.086H153.826C152.713 209.781 150.134 211.539 146.228 212.418L145.466 210.641C149.617 209.781 151.687 207.955 151.99 205.602H146.443V203.844H154.412C154.412 204.4 154.363 204.928 154.295 205.426H157.849V203.082H160.017ZM160.017 212.711V217.359H150.584V218.824H160.486V220.562H148.416V215.738H157.849V214.43H148.396V212.711H160.017ZM171.98 204.918V206.168C171.98 207.75 171.98 209.957 171.492 213.004L169.344 212.828C169.764 210.152 169.812 208.18 169.832 206.656H162.898V204.918H171.98ZM167.527 209.957V215.172C169.324 215.104 171.17 214.977 172.859 214.762L172.977 216.383C169.324 216.969 165.281 217.047 162.176 217.027L161.961 215.289C163.006 215.279 164.168 215.27 165.379 215.23V209.957H167.527ZM175.965 203.082V210.27H178.523V212.105H175.965V220.738H173.777V203.082H175.965ZM195.135 216.891V218.688H179.002V216.891H185.955V214.02H180.916V208.238H191.073V206.051H180.877V204.293H193.221V209.957H183.084V212.242H193.631V214.02H188.104V216.891H195.135ZM91.4262 227.082V233H93.809V234.797H91.4262V240.871H89.2582V227.082H91.4262ZM92.0512 242.629V244.387H79.8246V239.953H81.9926V242.629H92.0512ZM77.2855 237.336C78.6039 237.336 80.1371 237.326 81.7387 237.258V236.145C79.7758 235.91 78.5355 234.943 78.5355 233.527C78.5355 231.789 80.2348 230.773 82.7934 230.793C85.3715 230.773 87.0512 231.789 87.0512 233.527C87.0512 234.934 85.8402 235.891 83.9066 236.145V237.16C85.4105 237.082 86.9242 236.945 88.3402 236.73L88.516 238.254C84.7855 238.957 80.5668 238.996 77.5199 239.035L77.2855 237.336ZM87.8715 228.625V230.207H77.7348V228.625H81.7387V227.023H83.9066V228.625H87.8715ZM82.7934 232.258C81.4262 232.258 80.6059 232.707 80.6254 233.527C80.6059 234.289 81.4262 234.738 82.7934 234.738C84.1605 234.738 84.9809 234.289 84.9809 233.527C84.9809 232.707 84.1605 232.258 82.7934 232.258ZM100.655 232.102C100.655 234.836 102.276 237.941 105.069 239.23L103.858 240.949C101.866 240.012 100.391 238.117 99.6004 235.91C98.7996 238.332 97.2566 240.402 95.2254 241.379L93.9559 239.68C96.7684 238.352 98.4676 235.031 98.4871 232.102V230.617H94.6395V228.82H104.346V230.617H100.655V232.102ZM108.155 227.082V233.957H110.87V235.773H108.155V244.738H105.987V227.082H108.155ZM130.265 227.102V239.992H128.078V227.102H130.265ZM130.754 242.629V244.387H118.586V238.762H120.773V242.629H130.754ZM122.14 229.797C122.14 232.258 123.586 234.582 126.379 235.52L125.265 237.238C123.254 236.535 121.818 235.129 121.046 233.332C120.246 235.256 118.791 236.799 116.711 237.551L115.578 235.832C118.449 234.816 119.894 232.336 119.894 229.797V228.078H122.14V229.797ZM142.775 228.664V233.703H135.939V235.461H143.205V237.16H139.436V239.602C140.959 239.543 142.482 239.445 143.928 239.289L144.104 240.871C140.217 241.496 136.135 241.535 132.795 241.496L132.521 239.699C133.986 239.709 135.598 239.709 137.248 239.66V237.16H133.752V232.102H140.627V230.383H133.732V228.664H142.775ZM147.15 227.082V244.758H144.982V227.082H147.15ZM163.664 235.109V236.828H158.43V240.871H165.461V242.648H149.329V240.871H156.282V236.828H151.282V228.391H163.528V230.129H153.45V235.109H163.664ZM176.81 229.895C176.81 232.121 178.255 234.211 180.97 235.07L179.798 236.77C177.894 236.125 176.527 234.836 175.775 233.195C174.993 235.07 173.568 236.545 171.536 237.258L170.364 235.559C173.216 234.562 174.622 232.219 174.642 229.699V228.02H176.81V229.895ZM184.486 227.082V231.379H186.946V233.176H184.486V237.648H182.318V227.082H184.486ZM178.743 238.039C182.396 238.02 184.642 239.27 184.661 241.359C184.642 243.488 182.396 244.719 178.743 244.719C175.052 244.719 172.767 243.488 172.767 241.359C172.767 239.27 175.052 238.02 178.743 238.039ZM178.743 239.738C176.321 239.738 174.935 240.324 174.935 241.359C174.935 242.453 176.321 243 178.743 243C181.165 243 182.513 242.453 182.513 241.359C182.513 240.324 181.165 239.738 178.743 239.738ZM196.605 228.02C196.605 230.012 199.046 232.043 202.679 232.473L201.879 234.191C198.959 233.781 196.634 232.443 195.511 230.617C194.369 232.463 192.035 233.781 189.105 234.191L188.285 232.473C191.937 232.043 194.359 230.031 194.379 228.02V227.375H196.605V228.02ZM203.539 235.305V237.023H187.445V235.305H203.539ZM195.472 238.391C199.281 238.371 201.566 239.504 201.586 241.555C201.566 243.586 199.281 244.738 195.472 244.738C191.625 244.738 189.32 243.586 189.32 241.555C189.32 239.504 191.625 238.371 195.472 238.391ZM195.472 240.031C192.894 240.031 191.507 240.539 191.527 241.555C191.507 242.57 192.894 243.059 195.472 243.059C197.992 243.059 199.398 242.57 199.418 241.555C199.398 240.539 197.992 240.031 195.472 240.031Z" fill="#3191FF"/>
<rect x="1" y="619" width="278" height="278" rx="139" stroke="#3191FF" stroke-width="2"/>
<mask id="mask1_1341_55" style="mask-type:luminance" maskUnits="userSpaceOnUse" x="95" y="667" width="88" height="88">
<path d="M183 667H95V755H183V667Z" fill="white"/>
</mask>
<g mask="url(#mask1_1341_55)">
<path d="M178.668 715.147C173.094 709.618 164.031 709.618 158.458 715.147C158.281 715.324 158.104 715.514 157.931 715.704C157.754 715.514 157.578 715.324 157.404 715.147C151.83 709.618 142.767 709.618 137.194 715.147C134.494 717.831 133 721.394 133 725.194C133 728.994 134.48 732.557 137.194 735.254L156.907 754.571C157.186 754.851 157.567 754.997 157.933 754.997C158.3 754.997 158.68 754.851 158.96 754.571L178.673 735.254C181.373 732.571 182.867 729.007 182.867 725.208C182.867 721.408 181.386 717.844 178.673 715.161V715.147H178.668Z" fill="#3191FF"/>
<path d="M169.8 730.067H166.193L163.7 726.327C163.406 725.887 162.937 725.653 162.393 725.68C161.866 725.71 161.41 726.017 161.177 726.487L158.183 732.457L155.03 725.094C154.824 724.61 154.37 724.274 153.857 724.214C153.33 724.154 152.817 724.374 152.507 724.787L148.547 730.067H144.88C144.074 730.067 143.414 730.727 143.414 731.534C143.414 732.34 144.074 733 144.88 733H149.28C149.734 733 150.174 732.78 150.454 732.414L153.327 728.57L156.73 736.504C156.95 737.031 157.464 737.37 158.037 737.397H158.08C158.637 737.397 159.137 737.091 159.387 736.591L162.657 730.051L164.183 732.354C164.463 732.764 164.917 733.014 165.4 733.014H169.8C170.607 733.014 171.267 732.354 171.267 731.547C171.267 730.74 170.607 730.08 169.8 730.08V730.067Z" fill="white"/>
<path d="M133.133 669.933V675.8C133.133 676.607 132.473 677.267 131.667 677.267H119.933C119.127 677.267 118.467 676.607 118.467 675.8V669.933H133.133ZM140.7 743.267H103.8C100.56 743.267 97.9333 740.64 97.9333 737.4V675.8C97.9333 672.56 100.56 669.933 103.8 669.933H115.533V672.867H103.8C102.187 672.867 100.867 674.187 100.867 675.8V737.4C100.867 739.013 102.187 740.333 103.8 740.333H134.717C135.523 740.333 136.183 739.673 136.183 738.867C136.183 738.06 135.523 737.4 134.717 737.4H103.8V675.8H115.533C115.533 678.22 117.513 680.2 119.933 680.2H131.667C134.087 680.2 136.067 678.22 136.067 675.8H147.8V706.703C147.8 707.51 148.46 708.17 149.267 708.17C150.073 708.17 150.733 707.51 150.733 706.703V675.8C150.733 674.187 149.413 672.867 147.8 672.867H136.067V669.933H147.8C151.04 669.933 153.667 672.56 153.667 675.8V708.257C153.667 709.063 154.327 709.723 155.133 709.723C155.94 709.723 156.6 709.063 156.6 708.257V675.8C156.6 670.946 152.654 667 147.8 667H103.8C98.9464 667 95 670.946 95 675.8V737.4C95 742.254 98.9464 746.2 103.8 746.2H140.7C141.507 746.2 142.167 745.54 142.167 744.733C142.167 743.927 141.507 743.267 140.7 743.267Z" fill="#3191FF"/>
<path d="M133.133 697.8H128.733C127.927 697.8 127.267 698.46 127.267 699.267V703.667H124.333V699.267C124.333 698.46 123.673 697.8 122.867 697.8H118.467V694.867H122.867C123.673 694.867 124.333 694.207 124.333 693.4V689H127.267V693.4C127.267 694.207 127.927 694.867 128.733 694.867H133.133V697.8ZM136.067 699.267V693.4C136.067 692.594 135.407 691.934 134.6 691.934H130.2V687.534C130.2 686.727 129.54 686.067 128.733 686.067H122.867C122.06 686.067 121.4 686.727 121.4 687.534V691.934H117C116.193 691.934 115.533 692.594 115.533 693.4V699.267C115.533 700.074 116.193 700.734 117 700.734H121.4V705.134C121.4 705.94 122.06 706.6 122.867 706.6H128.733C129.54 706.6 130.2 705.94 130.2 705.134V700.734H134.6C135.407 700.734 136.067 700.074 136.067 699.267Z" fill="#3191FF"/>
<path d="M114.067 716.867H111.133V713.933H114.067V716.867ZM117 712.467C117 711.66 116.34 711 115.533 711H109.667C108.86 711 108.2 711.66 108.2 712.467V718.333C108.2 719.14 108.86 719.8 109.667 719.8H115.533C116.34 719.8 117 719.14 117 718.333V712.467Z" fill="#3191FF"/>
<path d="M121.4 713.933H125.8C126.607 713.933 127.267 713.273 127.267 712.467C127.267 711.66 126.607 711 125.8 711H121.4C120.593 711 119.933 711.66 119.933 712.467C119.933 713.273 120.593 713.933 121.4 713.933Z" fill="#3191FF"/>
<path d="M130.2 716.867H121.4C120.593 716.867 119.933 717.527 119.933 718.333C119.933 719.14 120.593 719.8 121.4 719.8H130.2C131.007 719.8 131.667 719.14 131.667 718.333C131.667 717.527 131.007 716.867 130.2 716.867Z" fill="#3191FF"/>
<path d="M114.067 730.067H111.133V727.134H114.067V730.067ZM115.533 724.2H109.667C108.86 724.2 108.2 724.86 108.2 725.667V731.534C108.2 732.34 108.86 733 109.667 733H115.533C116.34 733 117 732.34 117 731.534V725.667C117 724.86 116.34 724.2 115.533 724.2Z" fill="#3191FF"/>
<path d="M121.4 727.134H125.8C126.607 727.134 127.267 726.474 127.267 725.667C127.267 724.86 126.607 724.2 125.8 724.2H121.4C120.593 724.2 119.933 724.86 119.933 725.667C119.933 726.474 120.593 727.134 121.4 727.134Z" fill="#3191FF"/>
<path d="M121.4 733H130.2C131.007 733 131.667 732.34 131.667 731.534C131.667 730.727 131.007 730.067 130.2 730.067H121.4C120.593 730.067 119.933 730.727 119.933 731.534C119.933 732.34 120.593 733 121.4 733Z" fill="#3191FF"/>
</g>
<path d="M74.1605 776.008C74.1605 779.031 75.7308 782.477 79.1292 784.07L77.4652 786.32C75.1917 785.301 73.6097 783.285 72.7073 780.906C71.7933 783.473 70.1058 785.641 67.6917 786.695L66.0511 784.375C69.5198 782.852 71.1839 779.219 71.2073 776.008V775.188H66.8011V772.797H71.1839V769.797H74.1839V772.797H78.5198V775.188H74.1605V776.008ZM83.2777 769.328V777.602H86.4183V780.109H83.2777V790.656H80.2777V769.328H83.2777ZM104.688 769.328V780.297H101.712V778.164H97.7742V779.688H87.6258V770.242H90.6258V772.727H94.8211V770.242H97.7742V772.047H101.712V769.328H104.688ZM104.688 781.094V786.789H93.5086V788.078H105.321V790.422H90.5086V784.609H101.712V783.391H90.4852V781.094H104.688ZM90.6258 777.344H94.8211V775H90.6258V777.344ZM97.7742 775.914H101.712V774.273H97.7742V775.914ZM124.036 769.328V778H126.825V780.484H124.036V790.656H121.013V769.328H124.036ZM106.716 784.633C108.275 784.633 110.091 784.633 111.99 784.586V782.758C109.716 782.312 108.24 780.871 108.263 778.891C108.24 776.5 110.396 774.883 113.513 774.883C116.56 774.883 118.74 776.5 118.763 778.891C118.74 780.871 117.24 782.324 114.99 782.758V784.469C116.677 784.387 118.376 784.246 119.958 784.023L120.146 786.203C115.599 787.047 110.724 787.07 107.115 787.07L106.716 784.633ZM119.794 771.695V774.039H107.138V771.695H111.99V769.445H114.99V771.695H119.794ZM113.513 777.156C112.06 777.156 111.075 777.789 111.099 778.891C111.075 780.016 112.06 780.625 113.513 780.625C114.919 780.625 115.88 780.016 115.88 778.891C115.88 777.789 114.919 777.156 113.513 777.156ZM139.681 775.867V778.258H135.861V780.414C137.549 780.332 139.224 780.227 140.806 780.062L141.017 782.195C136.494 782.828 131.666 782.945 127.728 782.945L127.33 780.578C129.041 780.566 130.928 780.555 132.861 780.508V778.258H129.135V770.617H139.494V773.008H132.135V775.867H139.681ZM145.166 769.305V785.383H142.119V769.305H145.166ZM145.728 787.891V790.281H130.635V784.164H133.658V787.891H145.728ZM160.612 774.156C160.612 778.164 162.229 782.055 165.792 783.602L163.964 785.992C161.596 784.832 160.014 782.711 159.135 780.086C158.198 782.875 156.557 785.16 154.12 786.367L152.245 783.93C155.901 782.289 157.565 778.164 157.589 774.156V770.969H160.612V774.156ZM170.55 769.328V790.703H167.596V778.445H163.401V776.031H167.596V769.328H170.55ZM190.671 769.328V790.703H187.648V769.328H190.671ZM176.866 771.016V776.219H181.46V771.016H184.413V785.711H173.866V771.016H176.866ZM176.866 783.297H181.46V778.539H176.866V783.297ZM204.3 772.141C204.3 775.258 207.066 778.609 211.894 779.43L210.582 781.914C206.867 781.176 204.101 779.09 202.73 776.336C201.312 779.066 198.547 781.164 194.855 781.914L193.566 779.43C198.3 778.586 201.09 775.234 201.113 772.141V770.594H204.3V772.141ZM212.597 785.57V788.031H193.074V785.57H212.597Z" fill="#3191FF"/>
<path d="M65.8992 806.602V816.914H63.7312V814.961H59.532V813.203H63.7312V811.309H59.7078C58.5848 814.121 56.0164 816.084 52.1687 817.148L51.2898 815.43C55.4207 814.307 57.618 812.217 57.9695 809.59H52.2273V807.832H60.3328C60.3328 808.447 60.284 809.033 60.1766 809.59H63.7312V806.602H65.8992ZM60.0594 817.109C63.6336 817.109 66.0164 818.457 66.0164 820.625C66.0164 822.793 63.6336 824.141 60.0594 824.141C56.4461 824.141 54.0633 822.793 54.0633 820.625C54.0633 818.457 56.4461 817.109 60.0594 817.109ZM60.0594 818.809C57.6766 818.809 56.2312 819.453 56.2312 820.625C56.2312 821.777 57.6766 822.422 60.0594 822.422C62.3836 822.422 63.8484 821.777 63.8484 820.625C63.8484 819.453 62.3836 818.809 60.0594 818.809ZM73.4289 810.078C73.4289 812.109 74.4445 813.906 76.6906 814.766L75.5578 816.445C74.0441 815.85 73.0187 814.775 72.4328 813.438C71.7883 814.961 70.6848 816.221 69.0344 816.895L67.8625 815.215C70.2453 814.238 71.3391 812.168 71.3391 810.078V809.688H68.3703V807.949H76.2805V809.688H73.4289V810.078ZM83.0969 806.602V817.324H81.0266V812.793H79.3273V816.777H77.2766V806.934H79.3273V811.016H81.0266V806.602H83.0969ZM77.1398 817.637C80.8312 817.656 83.175 818.867 83.1945 820.918C83.175 822.969 80.8312 824.219 77.1398 824.219C73.4094 824.219 71.0852 822.969 71.0852 820.918C71.0852 818.867 73.4094 817.656 77.1398 817.637ZM77.1398 819.297C74.6984 819.297 73.2531 819.883 73.2531 820.918C73.2531 821.992 74.6984 822.539 77.1398 822.539C79.5617 822.539 81.007 821.992 81.007 820.918C81.007 819.883 79.5617 819.297 77.1398 819.297ZM92.1992 807.656V810.195H96.1445V807.656H98.293V809.297H101.848V806.582H104.016V817.188H101.848V814.648H98.293V816.055H90.0312V807.656H92.1992ZM92.1992 814.355H96.1445V811.895H92.1992V814.355ZM98.0391 817.5C101.789 817.5 104.074 818.73 104.074 820.879C104.074 822.988 101.789 824.219 98.0391 824.219C94.3086 824.219 92.0234 822.988 92.043 820.879C92.0234 818.73 94.3086 817.5 98.0391 817.5ZM98.0391 819.16C95.5781 819.16 94.1914 819.746 94.1914 820.879C94.1914 821.953 95.5781 822.539 98.0391 822.539C100.5 822.539 101.906 821.953 101.906 820.879C101.906 819.746 100.5 819.16 98.0391 819.16ZM98.293 812.891H101.848V811.016H98.293V812.891ZM120.92 806.602V819.961H118.733V818.418H115.276V816.895H118.733V806.602H120.92ZM121.33 822.129V823.887H108.381V818.672H110.549V822.129H121.33ZM106.037 814.531C109.299 814.512 113.674 814.473 117.424 814.004L117.541 815.566C116.086 815.811 114.582 815.977 113.088 816.074V819.473H110.92V816.191C109.27 816.26 107.698 816.27 106.311 816.27L106.037 814.531ZM111.799 807.246C114.377 807.246 116.174 808.516 116.194 810.371C116.174 812.266 114.377 813.477 111.799 813.477C109.182 813.477 107.385 812.266 107.385 810.371C107.385 808.516 109.182 807.246 111.799 807.246ZM111.799 808.848C110.393 808.848 109.436 809.414 109.436 810.371C109.436 811.328 110.393 811.895 111.799 811.895C113.147 811.895 114.104 811.328 114.123 810.371C114.104 809.414 113.147 808.848 111.799 808.848ZM132.864 808.418V809.668C132.864 811.25 132.864 813.457 132.376 816.504L130.227 816.328C130.647 813.652 130.696 811.68 130.716 810.156H123.782V808.418H132.864ZM128.411 813.457V818.672C130.208 818.604 132.054 818.477 133.743 818.262L133.86 819.883C130.208 820.469 126.165 820.547 123.059 820.527L122.845 818.789C123.889 818.779 125.052 818.77 126.262 818.73V813.457H128.411ZM136.848 806.582V813.77H139.407V815.605H136.848V824.238H134.661V806.582H136.848ZM145.609 807.812C148.402 807.793 150.452 809.57 150.472 812.07C150.452 814.59 148.402 816.348 145.609 816.348C142.835 816.348 140.765 814.59 140.765 812.07C140.765 809.57 142.835 807.793 145.609 807.812ZM145.609 809.688C144.066 809.688 142.913 810.605 142.913 812.07C142.913 813.555 144.066 814.453 145.609 814.453C147.171 814.453 148.343 813.555 148.343 812.07C148.343 810.605 147.171 809.688 145.609 809.688ZM154.593 806.582V824.258H152.425V806.582H154.593ZM139.964 818.789C143.148 818.789 147.562 818.75 151.37 818.203L151.546 819.785C147.581 820.547 143.343 820.566 140.237 820.566L139.964 818.789ZM167.328 812.188C167.328 814.805 168.812 817.656 171.527 818.945L170.316 820.586C168.412 819.697 167.025 817.949 166.293 815.879C165.512 818.105 164.057 819.99 162.035 820.898L160.844 819.219C163.617 817.969 165.18 814.961 165.18 812.188V811.27H161.41V809.531H165.18V806.953H167.348V809.531H171.059V811.27H167.328V812.188ZM174.945 806.582V813.574H177.66V815.391H174.945V824.238H172.777V806.582H174.945ZM192.788 806.582V815.703H190.62V813.789H187.065V815.137H178.803V807.363H180.971V809.59H184.916V807.363H187.065V808.926H190.62V806.582H192.788ZM192.788 816.426V820.957H183.334V822.305H193.354V824.023H181.166V819.355H190.62V818.125H181.147V816.426H192.788ZM180.971 813.418H184.916V811.25H180.971V813.418ZM187.065 812.129H190.62V810.566H187.065V812.129ZM208.852 806.582V813.867H211.333V815.684H208.852V824.238H206.665V806.582H208.852ZM194.673 819.336C196.011 819.336 197.563 819.336 199.184 819.297V817.637C197.261 817.314 196.001 816.104 196.02 814.453C196.001 812.461 197.759 811.133 200.298 811.133C202.798 811.133 204.575 812.461 204.595 814.453C204.575 816.113 203.296 817.324 201.372 817.637V819.219C202.856 819.141 204.341 819.023 205.727 818.828L205.864 820.41C202.075 821.094 197.993 821.133 194.985 821.133L194.673 819.336ZM205.532 808.613V810.332H195.005V808.613H199.184V806.66H201.372V808.613H205.532ZM200.298 812.793C198.95 812.812 198.071 813.418 198.071 814.453C198.071 815.469 198.95 816.074 200.298 816.055C201.626 816.074 202.505 815.469 202.505 814.453C202.505 813.418 201.626 812.812 200.298 812.793ZM227.905 820.391V822.188H211.773V820.391H218.726V817.52H213.687V811.738H223.843V809.551H213.648V807.793H225.991V813.457H215.855V815.742H226.402V817.52H220.874V820.391H227.905ZM80.5332 830.602V843.492H78.3457V830.602H80.5332ZM81.0215 846.129V847.887H68.8535V842.262H71.041V846.129H81.0215ZM72.4082 833.297C72.4082 835.758 73.8535 838.082 76.6465 839.02L75.5332 840.738C73.5215 840.035 72.0859 838.629 71.3145 836.832C70.5137 838.756 69.0586 840.299 66.9785 841.051L65.8457 839.332C68.7168 838.316 70.1621 835.836 70.1621 833.297V831.578H72.4082V833.297ZM96.6762 831.617V832.848C96.6566 834.361 96.6566 836.383 96.1879 839.254H98.8051V841.012H94.8207V848.219H92.6723V841.012H88.727V848.219H86.5395V841.012H82.7113V839.254H94.0004C94.4789 836.725 94.5375 834.84 94.5473 833.395H84.684V831.617H96.6762ZM117.927 830.582V836.5H120.31V838.297H117.927V844.371H115.759V830.582H117.927ZM118.552 846.129V847.887H106.325V843.453H108.493V846.129H118.552ZM103.786 840.836C105.105 840.836 106.638 840.826 108.239 840.758V839.645C106.277 839.41 105.036 838.443 105.036 837.027C105.036 835.289 106.736 834.273 109.294 834.293C111.872 834.273 113.552 835.289 113.552 837.027C113.552 838.434 112.341 839.391 110.407 839.645V840.66C111.911 840.582 113.425 840.445 114.841 840.23L115.017 841.754C111.286 842.457 107.068 842.496 104.021 842.535L103.786 840.836ZM114.372 832.125V833.707H104.236V832.125H108.239V830.523H110.407V832.125H114.372ZM109.294 835.758C107.927 835.758 107.107 836.207 107.126 837.027C107.107 837.789 107.927 838.238 109.294 838.238C110.661 838.238 111.482 837.789 111.482 837.027C111.482 836.207 110.661 835.758 109.294 835.758ZM127.156 835.602C127.156 838.336 128.777 841.441 131.57 842.73L130.359 844.449C128.367 843.512 126.892 841.617 126.101 839.41C125.3 841.832 123.757 843.902 121.726 844.879L120.457 843.18C123.269 841.852 124.968 838.531 124.988 835.602V834.117H121.14V832.32H130.847V834.117H127.156V835.602ZM134.656 830.582V837.457H137.371V839.273H134.656V848.238H132.488V830.582H134.656ZM158.172 840.484V842.242H154.246V848.238H152.039V842.242H148.133V848.238H145.907V842.242H142.039V840.484H158.172ZM150.067 831.207C153.817 831.227 156.434 832.75 156.434 835.152C156.434 837.516 153.817 839.02 150.067 839.02C146.297 839.02 143.719 837.516 143.739 835.152C143.719 832.75 146.297 831.227 150.067 831.207ZM150.067 832.965C147.567 832.965 145.946 833.766 145.965 835.152C145.946 836.5 147.567 837.301 150.067 837.301C152.567 837.301 154.188 836.5 154.188 835.152C154.188 833.766 152.567 832.965 150.067 832.965ZM173.651 830.582V840.055H171.464V830.582H173.651ZM164.12 840.875V842.691H171.483V840.875H173.651V848.023H161.971V840.875H164.12ZM164.12 846.266H171.483V844.391H164.12V846.266ZM164.022 831.363C166.737 831.344 168.768 833.043 168.768 835.504C168.768 837.906 166.737 839.605 164.022 839.605C161.288 839.605 159.257 837.906 159.257 835.504C159.257 833.043 161.288 831.344 164.022 831.363ZM164.022 833.18C162.479 833.18 161.366 834.078 161.386 835.504C161.366 836.91 162.479 837.809 164.022 837.828C165.546 837.809 166.639 836.91 166.639 835.504C166.639 834.078 165.546 833.18 164.022 833.18ZM196.269 838.805V840.562H180.175V838.805H196.269ZM188.203 841.734C192.011 841.734 194.296 842.926 194.316 844.977C194.296 847.047 192.011 848.219 188.203 848.219C184.355 848.219 182.05 847.047 182.05 844.977C182.05 842.926 184.355 841.734 188.203 841.734ZM188.203 843.434C185.625 843.434 184.238 843.961 184.257 844.977C184.238 845.992 185.625 846.52 188.203 846.52C190.722 846.52 192.129 845.992 192.148 844.977C192.129 843.961 190.722 843.434 188.203 843.434ZM194.824 831.422V833.199H189.726C190.048 834.664 192.168 835.982 195.507 836.305L194.746 838.023C191.543 837.682 189.16 836.422 188.203 834.625C187.246 836.412 184.902 837.682 181.699 838.023L180.957 836.305C184.228 835.982 186.357 834.664 186.699 833.199H181.64V831.422H194.824ZM210.889 830.582V837.477H213.506V839.293H210.889V848.199H208.721V830.582H210.889ZM206.221 832.418C206.221 837.613 204.072 842.164 198.193 845.055L196.963 843.375C201.26 841.236 203.584 838.229 204.033 834.215H197.92V832.418H206.221Z" fill="#3191FF"/>
<rect x="1" y="310" width="278" height="278" rx="139" stroke="#3191FF" stroke-width="2"/>
<mask id="mask2_1341_55" style="mask-type:luminance" maskUnits="userSpaceOnUse" x="102" y="349" width="76" height="76">
<path d="M178 349H102V425H178V349Z" fill="white"/>
</mask>
<g mask="url(#mask2_1341_55)">
<path d="M140.79 405.998H139.207C136.151 405.998 133.667 403.511 133.667 400.457V393.331H126.54C123.484 393.331 121 390.845 121 387.79V386.207C121 383.151 123.486 380.667 126.54 380.667H133.667V373.54C133.667 370.484 136.153 368 139.207 368H140.79C143.847 368 146.331 370.486 146.331 373.54V380.667H153.457C156.514 380.667 158.998 383.153 158.998 386.207V387.79C158.998 390.847 156.511 393.331 153.457 393.331H146.331V400.457C146.331 403.514 143.845 405.998 140.79 405.998Z" fill="#3191FF"/>
<path d="M167.613 356.03L165.092 358.552C158.242 352.448 149.418 349 140 349C119.046 349 102 366.046 102 387C102 390.716 102.549 394.408 103.626 397.975C103.933 399.005 104.876 399.667 105.896 399.667C106.121 399.667 106.356 399.636 106.583 399.566C107.838 399.186 108.549 397.863 108.169 396.606C107.229 393.481 106.75 390.251 106.75 387C106.75 368.666 121.664 353.75 140 353.75C148.142 353.75 155.777 356.694 161.733 361.908L159.697 363.947C158.202 365.436 159.256 368 161.374 368H169.29C170.602 368 171.664 366.935 171.664 365.626V357.71C171.664 355.61 169.115 354.531 167.611 356.032L167.613 356.03Z" fill="#3191FF"/>
<path d="M176.374 376.025C175.994 374.77 174.681 374.052 173.414 374.434C172.159 374.814 171.448 376.137 171.828 377.395C172.771 380.519 173.25 383.749 173.25 387C173.25 405.336 158.336 420.25 140 420.25C131.858 420.25 124.223 417.306 118.267 412.092L120.303 410.054C121.797 408.564 120.744 406 118.624 406H110.707C109.396 406 108.333 407.065 108.333 408.374V416.291C108.333 418.409 110.902 419.455 112.387 417.97L114.908 415.449C121.758 421.55 130.584 425 140 425C160.954 425 178 407.954 178 387C178 383.285 177.451 379.593 176.374 376.025Z" fill="#3191FF"/>
</g>
<path d="M105.821 448.328V469.656H102.962V458.969H101.157V468.672H98.3211V462.555L96.6336 464.805C94.6531 463.762 93.3758 461.992 92.6258 459.789C91.9109 462.32 90.6453 464.371 88.618 465.578L86.7664 463.281C90.0008 461.453 91.1023 457.68 91.1023 453.602V452.922H87.493V450.531H97.2664V452.922H94.0086V453.602C94.0086 457.316 95.1102 460.855 98.3211 462.508V448.633H101.157V456.531H102.962V448.328H105.821ZM117.411 461.383C121.841 461.383 124.607 462.906 124.607 465.508C124.607 468.156 121.841 469.68 117.411 469.68C112.888 469.68 110.099 468.156 110.099 465.508C110.099 462.906 112.888 461.383 117.411 461.383ZM117.411 463.703C114.599 463.703 113.075 464.289 113.099 465.508C113.075 466.727 114.599 467.359 117.411 467.359C120.177 467.359 121.654 466.727 121.654 465.508C121.654 464.289 120.177 463.703 117.411 463.703ZM124.396 448.328V453.273H127.279V455.781H124.396V460.914H121.396V448.328H124.396ZM111.083 449.664V452.359H115.443V449.664H118.443V459.695H108.107V449.664H111.083ZM111.083 457.328H115.443V454.68H111.083V457.328ZM147.236 458.875V461.242H139.197V464.922H136.244V461.242H127.713V458.875H147.236ZM144.728 449.266V457.117H130.15V449.266H144.728ZM133.08 451.586V454.797H141.799V451.586H133.08ZM145.08 466.891V469.281H130.01V463.07H132.986V466.891H145.08ZM172.55 460.188V462.602H167.979V469.656H164.932V462.602H160.573V469.656H157.503V462.602H153.026V460.188H172.55ZM162.729 449.031C167.3 449.031 170.51 450.93 170.51 453.859C170.51 456.742 167.3 458.547 162.729 458.547C158.159 458.547 154.971 456.742 154.995 453.859C154.971 450.93 158.159 449.031 162.729 449.031ZM162.729 451.422C159.87 451.422 158.042 452.289 158.065 453.859C158.042 455.359 159.87 456.203 162.729 456.203C165.612 456.203 167.417 455.359 167.417 453.859C167.417 452.289 165.612 451.422 162.729 451.422ZM190.702 457.867V460.234H184.515V464.781H192.835V467.219H173.312V464.781H181.538V460.234H175.609V449.828H190.538V452.219H178.609V457.867H190.702Z" fill="#3191FF"/>
<path d="M74.5832 492.82C74.5637 495.965 76.1457 499.168 78.8801 500.477L77.552 502.215C75.6379 501.248 74.2609 499.383 73.509 497.137C72.7375 499.539 71.2922 501.531 69.2707 502.547L67.9426 500.809C70.7746 499.461 72.3957 496.082 72.4152 492.82V490.008H74.5832V492.82ZM82.1027 488.582V495.496H84.8176V497.352H82.1027V506.238H79.9348V488.582H82.1027ZM100.375 490.477V492.234H85.9605V490.477H92.1129V488.543H94.2613V490.477H100.375ZM101.293 499.988V501.766H94.2613V506.258H92.1129V501.766H85.1598V499.988H101.293ZM93.1871 493.035C96.9176 493.035 99.1637 494.09 99.1637 496.023C99.1637 497.957 96.9176 499.012 93.1871 499.012C89.4566 499.012 87.2105 497.957 87.2105 496.023C87.2105 494.09 89.4566 493.035 93.1871 493.035ZM93.1871 494.656C90.7457 494.656 89.4566 495.125 89.4762 496.023C89.4566 496.922 90.7457 497.391 93.1871 497.391C95.6285 497.391 96.9176 496.922 96.9176 496.023C96.9176 495.125 95.6285 494.656 93.1871 494.656ZM111.908 489.891V490.945C111.889 492.156 111.889 493.895 111.479 496.141L109.33 495.945C109.672 494.119 109.74 492.771 109.779 491.688H102.904V489.891H111.908ZM107.455 493.914V497.43C109.281 497.361 111.156 497.225 112.865 496.98L112.982 498.543C109.311 499.207 105.15 499.266 102.045 499.285L101.85 497.547C102.895 497.537 104.066 497.527 105.307 497.508V493.914H107.455ZM116.127 488.582V494.09H118.412V495.906H116.127V501.805H113.9V488.582H116.127ZM116.693 504.129V505.887H104.486V500.633H106.674V504.129H116.693ZM133.637 488.582V506.258H131.489V488.582H133.637ZM128.207 490.125V496.746H122.133V500.301C124.916 500.281 127.319 500.145 130.063 499.676L130.258 501.453C127.25 501.98 124.614 502.078 121.45 502.078H119.907V495.027H126V491.883H119.887V490.125H128.207ZM155.357 488.582V506.238H153.286V488.582H155.357ZM151.763 488.914V505.379H149.712V496.492H147.173V494.734H149.712V488.914H151.763ZM145.611 493.406C145.611 496.395 146.685 499.383 149.204 500.828L147.915 502.43C146.284 501.453 145.2 499.773 144.595 497.762C143.97 499.939 142.847 501.795 141.177 502.84L139.849 501.219C142.407 499.676 143.521 496.473 143.521 493.406V492.234H140.454V490.477H148.462V492.234H145.611V493.406ZM164.996 499.617C168.824 499.637 171.246 500.848 171.265 502.938C171.246 504.988 168.824 506.219 164.996 506.219C161.187 506.219 158.746 504.988 158.746 502.938C158.746 500.848 161.187 499.637 164.996 499.617ZM164.996 501.258C162.457 501.258 160.914 501.863 160.933 502.938C160.914 503.973 162.457 504.539 164.996 504.539C167.554 504.539 169.097 503.973 169.117 502.938C169.097 501.863 167.554 501.258 164.996 501.258ZM171.148 489.422V490.887C171.148 492.273 171.148 493.758 170.66 495.574L168.511 495.379C168.951 493.66 168.98 492.42 168.98 491.141H158.921V489.422H171.148ZM173.101 496.59V498.348H157.086V496.59H163.296V493.387H165.445V496.59H173.101ZM181.959 489.578C185.689 489.578 188.541 491.551 188.541 494.559C188.541 497.605 185.689 499.578 181.959 499.578C178.248 499.578 175.396 497.605 175.416 494.559C175.396 491.551 178.248 489.578 181.959 489.578ZM181.959 491.336C179.4 491.316 177.506 492.605 177.506 494.559C177.506 496.551 179.4 497.801 181.959 497.801C184.537 497.801 186.412 496.551 186.412 494.559C186.412 492.605 184.537 491.316 181.959 491.336ZM190.064 502.234V504.012H173.932V502.234H190.064ZM206.95 502.391V504.188H190.817V502.391H197.77V499.52H192.731V493.738H202.887V491.551H192.692V489.793H205.036V495.457H194.899V497.742H205.446V499.52H199.918V502.391H206.95ZM90.5262 513.656V516.195H94.4715V513.656H96.6199V515.297H100.175V512.582H102.343V523.188H100.175V520.648H96.6199V522.055H88.3582V513.656H90.5262ZM90.5262 520.355H94.4715V517.895H90.5262V520.355ZM96.366 523.5C100.116 523.5 102.401 524.73 102.401 526.879C102.401 528.988 100.116 530.219 96.366 530.219C92.6355 530.219 90.3504 528.988 90.3699 526.879C90.3504 524.73 92.6355 523.5 96.366 523.5ZM96.366 525.16C93.9051 525.16 92.5184 525.746 92.5184 526.879C92.5184 527.953 93.9051 528.539 96.366 528.539C98.827 528.539 100.233 527.953 100.233 526.879C100.233 525.746 98.827 525.16 96.366 525.16ZM96.6199 518.891H100.175V517.016H96.6199V518.891ZM119.247 512.602V525.961H117.06V524.418H113.603V522.895H117.06V512.602H119.247ZM119.657 528.129V529.887H106.708V524.672H108.876V528.129H119.657ZM104.364 520.531C107.626 520.512 112.001 520.473 115.751 520.004L115.868 521.566C114.413 521.811 112.909 521.977 111.415 522.074V525.473H109.247V522.191C107.597 522.26 106.025 522.27 104.638 522.27L104.364 520.531ZM110.126 513.246C112.704 513.246 114.501 514.516 114.521 516.371C114.501 518.266 112.704 519.477 110.126 519.477C107.509 519.477 105.712 518.266 105.712 516.371C105.712 514.516 107.509 513.246 110.126 513.246ZM110.126 514.848C108.72 514.848 107.763 515.414 107.763 516.371C107.763 517.328 108.72 517.895 110.126 517.895C111.474 517.895 112.431 517.328 112.45 516.371C112.431 515.414 111.474 514.848 110.126 514.848ZM131.396 513.812C134.189 513.793 136.24 515.57 136.26 518.07C136.24 520.59 134.189 522.348 131.396 522.348C128.623 522.348 126.553 520.59 126.553 518.07C126.553 515.57 128.623 513.793 131.396 513.812ZM131.396 515.688C129.854 515.688 128.701 516.605 128.701 518.07C128.701 519.555 129.854 520.453 131.396 520.453C132.959 520.453 134.131 519.555 134.131 518.07C134.131 516.605 132.959 515.688 131.396 515.688ZM140.381 512.582V530.258H138.213V512.582H140.381ZM125.752 524.789C128.936 524.789 133.35 524.75 137.158 524.203L137.334 525.785C133.369 526.547 129.131 526.566 126.025 526.566L125.752 524.789ZM157.207 513.383V515.121H152.09C152.276 516.82 154.444 518.422 157.852 518.812L157.032 520.551C153.868 520.141 151.534 518.734 150.586 516.82C149.639 518.734 147.325 520.141 144.161 520.551L143.36 518.812C146.768 518.422 148.897 516.801 149.102 515.121H144.024V513.383H157.207ZM156.836 528.129V529.887H144.551V524.848H146.719V528.129H156.836ZM158.653 521.879V523.656H142.559V521.879H149.512V519.281H151.661V521.879H158.653ZM173.78 520.609V522.328H168.546V526.371H175.577V528.148H159.444V526.371H166.397V522.328H161.397V513.891H173.643V515.629H163.565V520.609H173.78ZM181.603 513.676C184.318 513.676 186.388 515.434 186.407 517.934C186.388 520.092 184.864 521.684 182.716 522.094V524.691C184.181 524.623 185.655 524.506 187.032 524.32L187.189 525.941C183.497 526.605 179.454 526.625 176.427 526.586L176.114 524.809C177.443 524.809 178.966 524.809 180.548 524.77V522.094C178.331 521.723 176.798 520.121 176.818 517.934C176.798 515.434 178.829 513.676 181.603 513.676ZM181.603 515.512C180.06 515.531 178.927 516.449 178.927 517.934C178.927 519.418 180.06 520.355 181.603 520.336C183.126 520.355 184.259 519.418 184.259 517.934C184.259 516.449 183.126 515.531 181.603 515.512ZM190.216 512.582V519.633H192.775V521.469H190.216V530.238H188.048V512.582H190.216ZM93.568 547.48C97.2203 547.48 99.4664 548.711 99.4859 550.84C99.4664 552.988 97.2203 554.238 93.568 554.238C89.8766 554.238 87.5914 552.988 87.5914 550.84C87.5914 548.711 89.8766 547.48 93.568 547.48ZM93.568 549.18C91.1461 549.18 89.7594 549.746 89.7594 550.84C89.7594 551.934 91.1461 552.52 93.568 552.52C95.9898 552.52 97.3375 551.934 97.3375 550.84C97.3375 549.746 95.9898 549.18 93.568 549.18ZM99.3102 536.582V540.801H101.771V542.617H99.3102V547.051H97.1422V536.582H99.3102ZM88.1383 537.695V540.078H92.2594V537.695H94.4078V545.938H85.9898V537.695H88.1383ZM88.1383 544.219H92.2594V541.777H88.1383V544.219ZM118.383 545.41V547.148H111.566V550.391H109.418V547.148H102.25V545.41H118.383ZM116.312 537.383V543.77H104.301V537.383H116.312ZM106.41 539.082V542.07H114.164V539.082H106.41ZM116.605 552.129V553.887H104.203V548.77H106.371V552.129H116.605ZM126.548 537.852V540.527H130.747V537.852H132.915V546.699H124.399V537.852H126.548ZM126.548 544.98H130.747V542.207H126.548V544.98ZM138.208 536.602V549.59H136.02V536.602H138.208ZM138.618 552.129V553.887H126.45V548.262H128.637V552.129H138.618ZM154.722 544.609V546.328H149.488V550.371H156.519V552.148H140.386V550.371H147.339V546.328H142.339V537.891H154.585V539.629H144.507V544.609H154.722ZM177.711 544.805V546.562H161.617V544.805H177.711ZM169.645 547.734C173.453 547.734 175.738 548.926 175.758 550.977C175.738 553.047 173.453 554.219 169.645 554.219C165.797 554.219 163.492 553.047 163.492 550.977C163.492 548.926 165.797 547.734 169.645 547.734ZM169.645 549.434C167.066 549.434 165.68 549.961 165.699 550.977C165.68 551.992 167.066 552.52 169.645 552.52C172.164 552.52 173.57 551.992 173.59 550.977C173.57 549.961 172.164 549.434 169.645 549.434ZM176.266 537.422V539.199H171.168C171.49 540.664 173.609 541.982 176.949 542.305L176.188 544.023C172.984 543.682 170.602 542.422 169.645 540.625C168.688 542.412 166.344 543.682 163.141 544.023L162.398 542.305C165.67 541.982 167.799 540.664 168.141 539.199H163.082V537.422H176.266ZM192.33 536.582V543.477H194.948V545.293H192.33V554.199H190.163V536.582H192.33ZM187.663 538.418C187.663 543.613 185.514 548.164 179.635 551.055L178.405 549.375C182.702 547.236 185.026 544.229 185.475 540.215H179.362V538.418H187.663Z" fill="#3191FF"/>
<defs>
<clipPath id="clip0_1341_55">
<rect width="80" height="91" fill="white" transform="translate(100.5 32)"/>
</clipPath>
</defs>
</svg>
