<svg width="79" height="79" viewBox="0 0 79 79" fill="none" xmlns="http://www.w3.org/2000/svg">
<path d="M60.447 34.5096C60.7833 36.025 60.9606 37.6001 60.9606 39.2167C60.9606 51.1633 51.276 60.8479 39.3294 60.8479C27.3828 60.8479 17.6982 51.1633 17.6982 39.2167C17.6982 28.2881 25.8027 19.2524 36.3293 17.7919V0C16.0099 1.53266 0 18.505 0 39.2167C0 60.9377 17.6084 78.5461 39.3294 78.5461C61.0505 78.5461 78.6588 60.9377 78.6588 39.2167C78.6588 35.6921 78.1952 32.2758 77.3256 29.0254L60.447 34.5096Z" fill="white"/>
<path d="M75.3332 23.364L58.3348 28.8871C56.8054 26.0731 54.6617 23.6186 52.0438 21.7167C49.1637 19.6241 45.8249 18.284 42.3293 17.7945V0.00180499C49.5709 0.555715 56.5393 3.10664 62.4466 7.3985L66.4392 10.7235C66.8666 11.1301 67.2844 11.546 67.6924 11.9707C70.8621 15.2695 73.4618 19.1201 75.3332 23.364Z" fill="#26CBFF"/>
</svg>
