<svg width="35" height="29" viewBox="0 0 35 29" fill="none" xmlns="http://www.w3.org/2000/svg">
<g id="Group 2919">
<path id="&#226;&#128;&#156;" d="M8.16166 28.7793C5.9657 28.7793 4.09507 27.9144 2.54976 26.1847C1.08578 24.455 0.272462 22.462 0.109797 20.2059C-0.134198 17.4233 0.0284675 15.0543 0.597791 13.099C1.24845 11.0684 2.26509 9.11311 3.64774 7.23298C4.78639 5.50326 6.2097 3.99915 7.91767 2.72066C9.70697 1.44217 11.6183 0.614916 13.6516 0.23889C14.7902 -0.212345 15.3595 -0.0243322 15.3595 0.802929V5.20244C15.3595 5.80408 15.2782 6.21771 15.1156 6.44332C15.0342 6.59373 14.8716 6.74414 14.6276 6.89455C11.4556 8.17304 9.66631 10.3916 9.25965 13.5502C10.8863 13.9262 12.4723 14.7159 14.0176 15.9192C15.5629 17.0473 16.3355 18.6266 16.3355 20.6571C16.3355 23.0637 15.5629 25.019 14.0176 26.5231C12.4723 28.0272 10.5203 28.7793 8.16166 28.7793ZM26.9493 28.7793C24.6721 28.7793 22.7608 27.9144 21.2154 26.1847C19.7515 24.455 18.9381 22.462 18.7755 20.2059C18.5315 17.4233 18.7348 15.0543 19.3855 13.099C20.0361 11.0684 21.0528 9.11311 22.4354 7.23298C23.5741 5.50326 24.9974 3.99915 26.7054 2.72066C28.4133 1.44217 30.3246 0.614916 32.4393 0.23889C33.5779 -0.212345 34.1472 -0.0243322 34.1472 0.802929V5.20244C34.1472 5.80408 34.0659 6.21771 33.9032 6.44332C33.8219 6.59373 33.6186 6.74414 33.2932 6.89455C31.8293 7.4962 30.6093 8.39866 29.6333 9.60195C28.6573 10.73 28.1287 12.0461 28.0473 13.5502C29.674 13.9262 31.2193 14.7159 32.6833 15.9192C34.2286 17.0473 35.0012 18.6266 35.0012 20.6571C35.0012 23.0637 34.2286 25.019 32.6833 26.5231C31.2193 28.0272 29.308 28.7793 26.9493 28.7793Z" fill="#0066FF"/>
</g>
</svg>
