<svg width="262" height="149" viewBox="0 0 262 149" fill="none" xmlns="http://www.w3.org/2000/svg">
<g filter="url(#filter0_d_345_1062)">
<path d="M86.2188 87.7303C86.2188 83.6759 89.5055 80.3892 93.5599 80.3892H250.66C254.714 80.3892 258.001 83.6759 258.001 87.7303V121.132C258.001 125.187 254.714 128.473 250.66 128.473H93.5599C89.5055 128.473 86.2188 125.187 86.2188 121.132V87.7303Z" fill="#E4F9FF"/>
<path d="M245.704 120.765H217.257C219.607 134.713 237.201 140.036 245.704 140.953C236.601 134.053 241.911 124.619 245.704 120.765Z" fill="#E4F9FF"/>
</g>
<path d="M112.631 92.8169V96.8989H108.539V92.8169H112.631ZM109.447 96.1665H111.723V93.5688H109.447V96.1665ZM109.525 100.61V97.8364H110.453V99.8579H115.443V100.61H109.525ZM114.145 98.4517V92.0356H115.072V94.6528H116.342V95.4341H115.072V98.4517H114.145ZM119.945 93.354C119.94 94.5796 120.736 95.6733 122.064 96.1079L121.557 96.8306C120.595 96.479 119.887 95.8052 119.506 94.9263C119.13 95.9272 118.368 96.7134 117.309 97.0942L116.811 96.3521C118.207 95.8735 119.018 94.7065 119.027 93.3931V92.5337H119.945V93.354ZM118.246 99.1255C118.241 98.0659 119.364 97.4507 121.205 97.4556C123.036 97.4507 124.159 98.0659 124.164 99.1255C124.159 100.18 123.036 100.781 121.205 100.776C119.364 100.781 118.241 100.18 118.246 99.1255ZM119.164 99.1255C119.159 99.7065 119.921 100.048 121.205 100.043C122.479 100.048 123.241 99.7065 123.246 99.1255C123.241 98.5249 122.479 98.1782 121.205 98.1782C119.921 98.1782 119.159 98.5249 119.164 99.1255ZM121.361 94.5845V93.8228H123.207V92.0454H124.135V97.2114H123.207V94.5845H121.361ZM128.617 93.5981C128.612 94.7017 129.403 95.7808 130.727 96.2349L130.248 96.9575C129.267 96.6206 128.539 95.9175 128.158 95.0532C127.777 96.0151 127.011 96.7866 125.971 97.1528L125.492 96.4204C126.835 95.9614 127.675 94.7944 127.67 93.6079V93.3638H125.775V92.6118H130.492V93.3638H128.617V93.5981ZM126.85 98.4712V97.7192H132.777V100.795H131.85V98.4712H126.85ZM130.229 95.0337V94.272H131.85V92.0454H132.777V97.2798H131.85V95.0337H130.229ZM141.381 92.0552V98.4126H140.453V92.0552H141.381ZM134.301 94.8091C134.306 93.5444 135.312 92.646 136.635 92.6411C137.953 92.646 138.959 93.5444 138.959 94.8091C138.959 96.0933 137.953 96.9868 136.635 96.9868C135.312 96.9868 134.306 96.0933 134.301 94.8091ZM135.209 94.8091C135.204 95.6343 135.819 96.1763 136.635 96.1763C137.436 96.1763 138.051 95.6343 138.051 94.8091C138.051 94.0034 137.436 93.4517 136.635 93.4517C135.819 93.4517 135.204 94.0034 135.209 94.8091ZM135.658 100.61V97.7681H136.596V99.8579H141.645V100.61H135.658ZM152.289 92.8853V93.7446C152.284 94.8237 152.284 96.0347 151.957 97.8267L151.02 97.729C151.356 96.0347 151.356 94.7944 151.361 93.7446V93.6372H146.049V92.8853H152.289ZM145.209 99.6138V98.8423H148.246V95.7563H149.164V98.8423H153.188V99.6138H145.209ZM158.725 92.7095V93.1978C158.715 93.7837 158.715 94.6528 158.5 95.7856L157.582 95.6978C157.772 94.731 157.802 94.0229 157.812 93.4712H154.311V92.7095H158.725ZM153.783 96.5376C154.32 96.5376 154.931 96.5327 155.57 96.5181V94.6724H156.488V96.4888C157.426 96.4497 158.393 96.3813 159.271 96.2544L159.33 96.9282C157.504 97.2505 155.414 97.2847 153.871 97.2896L153.783 96.5376ZM155.111 100.61V98.022H156.039V99.8579H161.059V100.61H155.111ZM159.828 98.6177V92.0454H160.775V94.8286H161.977V95.6099H160.775V98.6177H159.828ZM165.6 93.3638C165.6 94.355 166.4 95.3462 167.699 95.7368L167.26 96.4692C166.264 96.1616 165.526 95.5171 165.146 94.7114C164.75 95.6001 163.979 96.3374 162.953 96.6743L162.494 95.9419C163.817 95.5024 164.672 94.4233 164.672 93.354V93.2173H162.768V92.4653H167.484V93.2173H165.6V93.3638ZM164.057 97.6899V96.9478H169.779V99.1353H165.004V99.9653H170.092V100.698H164.076V98.4321H168.861V97.6899H164.057ZM167.23 94.7017V93.9497H168.861V92.0454H169.779V96.5474H168.861V94.7017H167.23ZM181.557 96.645V97.3774H173.559V96.645H177.094V95.8833H174.604V92.2798H180.58V93.0122H175.541V93.7251H180.355V94.4185H175.541V95.1606H180.639V95.8833H178.021V96.645H181.557ZM174.525 99.3696C174.525 98.4517 175.614 97.9487 177.562 97.9536C179.481 97.9487 180.575 98.4517 180.58 99.3696C180.575 100.292 179.481 100.781 177.562 100.776C175.614 100.781 174.525 100.292 174.525 99.3696ZM175.453 99.3696C175.448 99.8433 176.181 100.083 177.562 100.073C178.925 100.083 179.652 99.8433 179.652 99.3696C179.652 98.896 178.925 98.647 177.562 98.647C176.181 98.647 175.448 98.896 175.453 99.3696ZM190.199 96.1665V96.9185H182.221V96.1665H190.199ZM182.641 94.9751C184.228 94.8042 185.482 94.0913 185.585 93.2368H182.953V92.4751H189.486V93.2368H186.825C186.933 94.0864 188.168 94.8042 189.789 94.9751L189.457 95.7075C187.938 95.5317 186.684 94.8921 186.21 93.9692C185.727 94.8921 184.481 95.5317 182.963 95.7075L182.641 94.9751ZM183.168 99.1938C183.168 98.1782 184.306 97.5923 186.205 97.5923C188.09 97.5923 189.218 98.1782 189.223 99.1938C189.218 100.209 188.09 100.781 186.205 100.776C184.306 100.781 183.168 100.209 183.168 99.1938ZM184.105 99.1938C184.101 99.7456 184.867 100.048 186.205 100.043C187.523 100.048 188.295 99.7456 188.295 99.1938C188.295 98.6274 187.523 98.3247 186.205 98.3149C184.867 98.3247 184.101 98.6274 184.105 99.1938ZM198.109 92.0454V100.815H197.182V92.0454H198.109ZM191.166 95.7661C191.166 93.896 192.108 92.7046 193.432 92.6997C194.73 92.7046 195.688 93.896 195.688 95.7661C195.688 97.6558 194.73 98.8472 193.432 98.8423C192.108 98.8472 191.166 97.6558 191.166 95.7661ZM192.064 95.7661C192.06 97.1577 192.616 98.0122 193.432 98.0122C194.232 98.0122 194.789 97.1577 194.789 95.7661C194.789 94.394 194.232 93.5347 193.432 93.5298C192.616 93.5347 192.06 94.394 192.064 95.7661ZM204.984 97.8267C204.984 98.5786 205.355 99.3745 206.151 99.8481C206.952 99.3354 207.348 98.5005 207.348 97.8267V97.4067H208.256V97.8267C208.251 98.7349 208.852 99.6138 209.994 99.9849L209.535 100.668C208.671 100.371 208.08 99.7847 207.777 99.0718C207.499 99.7749 206.977 100.415 206.176 100.747C205.336 100.429 204.804 99.8091 204.535 99.0962C204.218 99.7847 203.642 100.366 202.816 100.668L202.348 99.9849C203.471 99.5845 204.081 98.6714 204.086 97.8267V97.4067H204.984V97.8267ZM202.123 94.604C202.128 93.3784 203.114 92.5386 204.457 92.5337C205.795 92.5386 206.781 93.3784 206.781 94.604C206.781 95.8149 205.795 96.6548 204.457 96.6548C203.114 96.6548 202.128 95.8149 202.123 94.604ZM203.031 94.604C203.026 95.3657 203.627 95.8833 204.457 95.8833C205.277 95.8833 205.873 95.3657 205.873 94.604C205.873 93.8374 205.277 93.3198 204.457 93.3247C203.627 93.3198 203.026 93.8374 203.031 94.604ZM208.275 97.0356V92.0552H209.203V97.0356H208.275ZM217.67 94.604V95.3462H211.645V92.3579H212.562V94.604H217.67ZM210.58 97.1919V96.4497H218.588V97.1919H210.58ZM211.576 100.59V98.022H212.504V99.8286H217.729V100.59H211.576ZM226.752 92.0454V100.795H225.854V92.0454H226.752ZM219.545 98.7349V93.0903H222.865V93.8521H220.453V97.9634C221.596 97.9536 222.367 97.9048 223.275 97.7095L223.354 98.4907C222.353 98.6909 221.488 98.7349 220.121 98.7349H219.545ZM222.27 96.1079V95.3364H224.066V92.231H224.945V100.356H224.066V96.1079H222.27ZM229.447 99.2915L228.666 101.987H227.836L228.354 99.2915H229.447ZM110.57 104.7C111.762 104.705 112.626 105.71 112.768 107.327H114.574V104.045H115.492V112.815H114.574V108.079H112.777C112.675 109.788 111.791 110.847 110.57 110.842C109.267 110.847 108.344 109.656 108.354 107.766C108.344 105.896 109.267 104.705 110.57 104.7ZM109.232 107.766C109.237 109.158 109.779 110.012 110.57 110.012C111.361 110.012 111.903 109.158 111.908 107.766C111.903 106.394 111.361 105.535 110.57 105.53C109.779 105.535 109.237 106.394 109.232 107.766ZM124.447 111.858V112.61H118.275V109.866H119.203V111.858H124.447ZM117.055 109.045V104.749H119.291V105.5H117.953V108.293C118.393 108.279 118.856 108.235 119.379 108.118L119.457 108.879C118.686 109.045 118.075 109.045 117.445 109.045H117.055ZM119.76 109.045V104.749H122.201V105.5H120.678V108.298C121.391 108.289 121.903 108.245 122.484 108.108L122.582 108.86C121.83 109.026 121.225 109.045 120.209 109.045H119.76ZM121.82 107.18V106.428H123.305V104.055H124.213V110.403H123.305V107.18H121.82ZM135.189 104.465V105.208H132.523C132.577 106.16 133.837 107 135.463 107.2L135.111 107.932C133.612 107.737 132.382 107.039 131.913 106.057C131.435 107.039 130.209 107.737 128.715 107.932L128.363 107.2C129.999 107 131.249 106.155 131.293 105.208H128.656V104.465H135.189ZM127.914 109.25V108.499H135.922V109.25H132.445V110.95H131.527V109.25H127.914ZM128.91 112.61V110.11H129.838V111.858H135.033V112.61H128.91ZM143.812 104.045V112.815H142.885V104.045H143.812ZM137.055 110.715V104.778H137.982V107.024H140.336V104.778H141.254V110.715H137.055ZM137.982 109.954H140.336V107.756H137.982V109.954ZM153.207 108.43V109.182H149.74V110.881H148.803V109.182H145.199V108.43H153.207ZM146.078 106.028C146.073 104.934 147.313 104.255 149.193 104.25C151.073 104.255 152.304 104.934 152.299 106.028C152.304 107.117 151.073 107.795 149.193 107.795C147.313 107.795 146.073 107.117 146.078 106.028ZM146.205 112.61V110.042H147.133V111.848H152.318V112.61H146.205ZM147.074 106.028C147.064 106.658 147.914 107.043 149.193 107.043C150.478 107.043 151.317 106.658 151.322 106.028C151.317 105.378 150.478 104.998 149.193 104.993C147.914 104.998 147.064 105.378 147.074 106.028ZM161.84 108.303V109.045H153.852V108.303H157.396V107.375H154.848V104.446H160.854V105.178H155.766V106.633H160.912V107.375H158.295V108.303H161.84ZM154.799 111.204C154.799 110.188 155.937 109.617 157.836 109.612C159.721 109.617 160.849 110.188 160.854 111.204C160.849 112.219 159.721 112.791 157.836 112.795C155.937 112.791 154.799 112.219 154.799 111.204ZM155.736 111.204C155.731 111.765 156.498 112.073 157.836 112.063C159.154 112.073 159.926 111.765 159.926 111.204C159.926 110.652 159.154 110.334 157.836 110.334C156.498 110.334 155.731 110.652 155.736 111.204ZM166.479 104.192C168.451 104.187 169.599 104.719 169.604 105.696C169.599 106.677 168.451 107.209 166.479 107.209C164.506 107.209 163.349 106.677 163.354 105.696C163.349 104.719 164.506 104.187 166.479 104.192ZM162.494 108.489V107.747H170.473V108.489H162.494ZM163.451 109.856V109.163H169.467V111.213H164.369V111.995H169.711V112.708H163.461V110.54H168.549V109.856H163.451ZM164.32 105.696C164.315 106.238 165.087 106.516 166.479 106.516C167.88 106.516 168.651 106.238 168.646 105.696C168.651 105.178 167.88 104.875 166.479 104.875C165.087 104.875 164.315 105.178 164.32 105.696ZM180.395 104.045V107.59H181.801V108.362H180.395V112.795H179.477V104.045H180.395ZM173.529 106.174V105.413H175.688V104.163H176.615V105.413H178.715V106.174H173.529ZM173.979 108.85C173.979 107.659 174.896 106.819 176.156 106.819C177.411 106.819 178.329 107.659 178.334 108.85C178.329 110.051 177.411 110.886 176.156 110.891C174.896 110.886 173.979 110.051 173.979 108.85ZM174.867 108.85C174.862 109.612 175.409 110.12 176.156 110.11C176.898 110.12 177.44 109.612 177.445 108.85C177.44 108.103 176.898 107.585 176.156 107.581C175.409 107.585 174.862 108.103 174.867 108.85ZM186.684 104.788V105.53H188.588V104.055H189.516V110.432H188.588V108.167H186.684V108.928H182.621V104.788H186.684ZM183.539 108.196H185.775V105.54H183.539V108.196ZM183.803 112.61V109.846H184.74V111.858H189.711V112.61H183.803ZM186.684 107.405H188.588V106.292H186.684V107.405ZM197.748 106.653V107.61H201.303V108.362H193.295V107.61H196.83V106.653H197.748ZM193.705 106.477C195.263 106.37 196.508 105.764 196.659 105.012H194.037V104.299H200.57V105.012H197.919C198.07 105.769 199.301 106.37 200.883 106.477L200.58 107.17C199.037 107.039 197.758 106.477 197.299 105.603C196.83 106.472 195.551 107.039 194.008 107.17L193.705 106.477ZM194.037 110.149V109.436H196.83V108.665H197.748V109.436H200.541V110.149H194.037ZM194.633 111.672C194.628 110.916 195.58 110.525 197.279 110.52C198.979 110.525 199.95 110.916 199.955 111.672C199.95 112.439 198.979 112.839 197.279 112.834C195.58 112.839 194.628 112.439 194.633 111.672ZM195.58 111.672C195.57 112.024 196.186 112.209 197.279 112.2C198.393 112.209 198.993 112.024 198.998 111.672C198.993 111.321 198.393 111.16 197.279 111.155C196.186 111.16 195.57 111.321 195.58 111.672ZM205.932 104.192C207.904 104.187 209.052 104.719 209.057 105.696C209.052 106.677 207.904 107.209 205.932 107.209C203.959 107.209 202.802 106.677 202.807 105.696C202.802 104.719 203.959 104.187 205.932 104.192ZM201.947 108.489V107.747H209.926V108.489H201.947ZM202.904 109.856V109.163H208.92V111.213H203.822V111.995H209.164V112.708H202.914V110.54H208.002V109.856H202.904ZM203.773 105.696C203.769 106.238 204.54 106.516 205.932 106.516C207.333 106.516 208.104 106.238 208.1 105.696C208.104 105.178 207.333 104.875 205.932 104.875C204.54 104.875 203.769 105.178 203.773 105.696ZM217.543 104.045V107.6H218.812V108.362H217.543V112.795H216.615V104.045H217.543ZM210.512 110.334C211.791 109.001 212.255 107.498 212.348 105.745H210.824V104.983H213.227C213.222 107.17 212.831 109.163 211.244 110.852L210.512 110.334ZM213.012 110.92C214.315 109.397 214.696 107.61 214.765 105.745H213.51V104.983H215.639C215.639 107.195 215.36 109.529 213.754 111.428L213.012 110.92ZM227.24 110.93V111.702H219.232V110.93H221.146V108.645C220.429 108.25 219.989 107.625 219.994 106.838C219.989 105.461 221.342 104.558 223.217 104.553C225.097 104.558 226.449 105.461 226.449 106.838C226.449 107.61 226.029 108.23 225.326 108.625V110.93H227.24ZM220.893 106.838C220.893 107.776 221.845 108.386 223.217 108.391C224.579 108.386 225.546 107.776 225.551 106.838C225.546 105.896 224.579 105.295 223.217 105.295C221.845 105.295 220.893 105.896 220.893 106.838ZM222.064 110.93H224.389V108.987C224.032 109.07 223.637 109.114 223.217 109.114C222.807 109.114 222.416 109.07 222.064 108.987V110.93ZM229.311 109.866C229.325 108.586 229.701 108.196 230.346 107.795C230.756 107.546 231.068 107.185 231.068 106.672C231.068 106.062 230.6 105.676 230.014 105.676C229.486 105.676 228.974 105.999 228.93 106.721H227.875C227.914 105.476 228.852 104.797 230.014 104.797C231.283 104.797 232.133 105.559 232.133 106.672C232.133 107.458 231.757 107.981 231.137 108.362C230.551 108.718 230.321 109.07 230.307 109.866V109.924H229.311V109.866ZM229.154 111.34C229.149 110.959 229.467 110.647 229.848 110.647C230.224 110.647 230.536 110.959 230.541 111.34C230.536 111.721 230.224 112.029 229.848 112.034C229.467 112.029 229.149 111.721 229.154 111.34Z" fill="#5E5A5A"/>
<g filter="url(#filter1_d_345_1062)">
<path d="M146.969 40.8284C146.969 36.774 143.682 33.4873 139.628 33.4873H11.3418C7.28743 33.4873 4.0007 36.774 4.0007 40.8284V76.6163C4.0007 80.6707 7.28743 83.9574 11.3418 83.9574H139.628C143.682 83.9574 146.969 80.6707 146.969 76.6163V40.8284Z" fill="#9AE9FF"/>
<path d="M16.2971 76.2492H44.7438C42.3947 90.1973 24.8005 95.5196 16.2971 96.4373C25.4 89.5366 20.09 80.1033 16.2971 76.2492Z" fill="#9AE9FF"/>
</g>
<g filter="url(#filter2_d_345_1062)">
<path d="M52.7969 8.29618C52.7969 4.2418 56.0836 0.955078 60.138 0.955078H217.238C221.292 0.955078 224.579 4.2418 224.579 8.29618V33.2559C224.579 37.3103 221.292 40.597 217.238 40.597H60.138C56.0836 40.597 52.7969 37.3103 52.7969 33.2559V8.29618Z" fill="#E4F9FF"/>
<path d="M212.282 32.8889H183.836C186.185 46.837 203.779 52.1593 212.282 53.0769C203.179 46.1763 208.49 36.743 212.282 32.8889Z" fill="#E4F9FF"/>
</g>
<path d="M68.0801 22.7852C68.5879 22.7852 69.2227 22.7803 69.8965 22.7607V21.3398C68.9541 21.1738 68.3242 20.4658 68.3242 19.4844C68.3242 18.3711 69.1543 17.6094 70.3262 17.6094C71.5176 17.6094 72.3525 18.3711 72.3477 19.4844C72.3525 20.4561 71.7275 21.1641 70.7852 21.335V22.7217C71.4102 22.6875 72.0254 22.6387 72.5625 22.5605L72.6309 23.2441C71.1953 23.4932 69.3545 23.5469 68.1973 23.5469L68.0801 22.7852ZM69.1641 19.4844C69.1592 20.1729 69.6572 20.6123 70.3262 20.6074C71.0098 20.6123 71.5029 20.1729 71.498 19.4844C71.5029 18.8154 71.0098 18.3564 70.3262 18.3613C69.6572 18.3564 69.1592 18.8154 69.1641 19.4844ZM72.9629 25.0996V16.9746H73.8223V20.3926H74.7793V16.7988H75.6582V25.5488H74.7793V21.1641H73.8223V25.0996H72.9629ZM81.1758 22.043V22.9707H85.2871V22.043H86.2148V25.4414H80.2578V22.043H81.1758ZM79.2715 21.4961V20.7246H87.25V21.4961H79.2715ZM79.7012 19.4551C81.3955 19.2354 82.7822 18.3027 82.7871 17.2676V16.8965H83.7344V17.2676C83.7393 18.2734 85.1357 19.25 86.8105 19.4551L86.4785 20.1875C85.0625 19.9922 83.8271 19.3184 83.2656 18.3857C82.6992 19.3232 81.459 19.9922 80.0527 20.1875L79.7012 19.4551ZM81.1758 24.6992H85.2871V23.6934H81.1758V24.6992ZM94.7891 16.7695V18.8203H96.0684V19.582H94.7891V21.584H93.8613V16.7695H94.7891ZM87.9238 18.2734V17.541H90.0723V16.7207H91V17.541H93.1387V18.2734H87.9238ZM88.4023 20.041C88.3975 19.1572 89.2471 18.6055 90.5312 18.6055C91.8154 18.6055 92.6504 19.1572 92.6504 20.041C92.6504 20.9297 91.8154 21.4717 90.5312 21.4668C89.2471 21.4717 88.3975 20.9297 88.4023 20.041ZM89.1348 22.6875V21.9941H94.7891V24.0254H90.0625V24.7578H95.0918V25.4609H89.1543V23.3711H93.8711V22.6875H89.1348ZM89.3008 20.041C89.291 20.5146 89.7744 20.793 90.5312 20.793C91.2832 20.793 91.7715 20.5146 91.7812 20.041C91.7715 19.5674 91.2832 19.2744 90.5312 19.2695C89.7744 19.2744 89.291 19.5674 89.3008 20.041ZM104.818 16.9746V20.3145H105.746V16.7988H106.625V25.5488H105.746V21.0762H104.818V25.1289H103.959V16.9746H104.818ZM99.2227 23.3223V17.8828H101.117V18.6445H100.072V22.5312C100.38 22.5166 100.741 22.4727 101.146 22.375L101.225 23.1562C100.521 23.3076 99.9844 23.3223 99.584 23.3223H99.2227ZM101.479 23.3223V17.8828H103.422V18.6445H102.318V22.5361C102.689 22.5264 103.109 22.4824 103.568 22.3555L103.646 23.1367C102.943 23.3125 102.367 23.3223 101.85 23.3223H101.479ZM117.367 16.7988V25.5684H116.449V20.8613H114.848V20.0898H116.449V16.7988H117.367ZM110.385 18.3418V17.5898H114.33V20.7148H111.332V22.707C112.729 22.6973 113.803 22.6533 115.023 22.4336L115.102 23.1953C113.793 23.4248 112.641 23.4785 111.098 23.4883H110.404V19.9629H113.432V18.3418H110.385ZM125.961 16.7988V21.9941H125.043V16.7988H125.961ZM119.262 21.3008V17.3652H120.189V20.5293C121.605 20.5195 122.841 20.4268 124.164 20.1484L124.291 20.9102C122.851 21.2129 121.527 21.3105 119.984 21.3008H119.262ZM120.043 23.8105C120.043 22.707 121.19 22.0576 123.031 22.0625C124.857 22.0576 125.995 22.707 126 23.8105C125.995 24.8896 124.857 25.5342 123.031 25.5293C121.19 25.5342 120.043 24.8896 120.043 23.8105ZM120.98 23.8105C120.971 24.4258 121.737 24.792 123.031 24.7871C124.311 24.792 125.067 24.4258 125.072 23.8105C125.067 23.166 124.311 22.8145 123.031 22.8145C121.737 22.8145 120.971 23.166 120.98 23.8105ZM131.352 16.9453C133.324 16.9404 134.472 17.4727 134.477 18.4492C134.472 19.4307 133.324 19.9629 131.352 19.9629C129.379 19.9629 128.222 19.4307 128.227 18.4492C128.222 17.4727 129.379 16.9404 131.352 16.9453ZM127.367 21.2422V20.5H135.346V21.2422H127.367ZM128.324 22.6094V21.916H134.34V23.9668H129.242V24.748H134.584V25.4609H128.334V23.293H133.422V22.6094H128.324ZM129.193 18.4492C129.188 18.9912 129.96 19.2695 131.352 19.2695C132.753 19.2695 133.524 18.9912 133.52 18.4492C133.524 17.9316 132.753 17.6289 131.352 17.6289C129.96 17.6289 129.188 17.9316 129.193 18.4492ZM145.268 16.7988V20.3438H146.674V21.1152H145.268V25.5488H144.35V16.7988H145.268ZM138.402 18.9277V18.166H140.561V16.916H141.488V18.166H143.588V18.9277H138.402ZM138.852 21.6035C138.852 20.4121 139.77 19.5723 141.029 19.5723C142.284 19.5723 143.202 20.4121 143.207 21.6035C143.202 22.8047 142.284 23.6396 141.029 23.6445C139.77 23.6396 138.852 22.8047 138.852 21.6035ZM139.74 21.6035C139.735 22.3652 140.282 22.873 141.029 22.8633C141.771 22.873 142.313 22.3652 142.318 21.6035C142.313 20.8564 141.771 20.3389 141.029 20.334C140.282 20.3389 139.735 20.8564 139.74 21.6035ZM151.557 17.541V18.2832H153.461V16.8086H154.389V23.1855H153.461V20.9199H151.557V21.6816H147.494V17.541H151.557ZM148.412 20.9492H150.648V18.293H148.412V20.9492ZM148.676 25.3633V22.5996H149.613V24.6113H154.584V25.3633H148.676ZM151.557 20.1582H153.461V19.0449H151.557V20.1582ZM162.621 17.6094V18.3809H159.545V22.6484C161.015 22.6387 162.016 22.585 163.168 22.3652L163.275 23.127C162.016 23.3662 160.951 23.4199 159.301 23.4199H158.607V17.6094H162.621ZM162.123 20.6953V19.9238H164.555V16.7988H165.482V25.5684H164.555V20.6953H162.123ZM176.518 16.7988V22.1016H175.59V16.7988H176.518ZM169.379 18.4395V17.6875H171.586V16.7305H172.523V17.6875H174.73V18.4395H169.379ZM169.896 20.373C169.892 19.4209 170.756 18.8105 172.055 18.8105C173.363 18.8105 174.223 19.4209 174.223 20.373C174.223 21.3301 173.363 21.9404 172.055 21.9453C170.756 21.9404 169.892 21.3301 169.896 20.373ZM170.766 25.4414V22.5312H176.518V25.4414H170.766ZM170.785 20.373C170.775 20.915 171.278 21.2373 172.055 21.2422C172.836 21.2373 173.334 20.915 173.344 20.373C173.334 19.8408 172.836 19.5088 172.055 19.5039C171.278 19.5088 170.775 19.8408 170.785 20.373ZM171.684 24.6895H175.609V23.2637H171.684V24.6895ZM185.893 20.3828V21.125H177.904V20.3828H185.893ZM178.861 22.5312V21.8184H184.877V23.9375H179.779V24.7188H185.121V25.4512H178.871V23.2539H183.959V22.5312H178.861ZM178.949 19.748V17.0527H184.857V17.8047H179.877V19.0059H184.945V19.748H178.949ZM193.5 16.7988V20.3535H194.77V21.1152H193.5V25.5488H192.572V16.7988H193.5ZM186.469 23.0879C187.748 21.7549 188.212 20.251 188.305 18.498H186.781V17.7363H189.184C189.179 19.9238 188.788 21.916 187.201 23.6055L186.469 23.0879ZM188.969 23.6738C190.272 22.1504 190.653 20.3633 190.722 18.498H189.467V17.7363H191.596C191.596 19.9482 191.317 22.2822 189.711 24.1816L188.969 23.6738ZM203.197 23.6836V24.4551H195.189V23.6836H197.104V21.3984C196.386 21.0029 195.946 20.3779 195.951 19.5918C195.946 18.2148 197.299 17.3115 199.174 17.3066C201.054 17.3115 202.406 18.2148 202.406 19.5918C202.406 20.3633 201.986 20.9834 201.283 21.3789V23.6836H203.197ZM196.85 19.5918C196.85 20.5293 197.802 21.1396 199.174 21.1445C200.536 21.1396 201.503 20.5293 201.508 19.5918C201.503 18.6494 200.536 18.0488 199.174 18.0488C197.802 18.0488 196.85 18.6494 196.85 19.5918ZM198.021 23.6836H200.346V21.7402C199.989 21.8232 199.594 21.8672 199.174 21.8672C198.764 21.8672 198.373 21.8232 198.021 21.7402V23.6836ZM205.268 22.6191C205.282 21.3398 205.658 20.9492 206.303 20.5488C206.713 20.2998 207.025 19.9385 207.025 19.4258C207.025 18.8154 206.557 18.4297 205.971 18.4297C205.443 18.4297 204.931 18.752 204.887 19.4746H203.832C203.871 18.2295 204.809 17.5508 205.971 17.5508C207.24 17.5508 208.09 18.3125 208.09 19.4258C208.09 20.2119 207.714 20.7344 207.094 21.1152C206.508 21.4717 206.278 21.8232 206.264 22.6191V22.6777H205.268V22.6191ZM205.111 24.0938C205.106 23.7129 205.424 23.4004 205.805 23.4004C206.181 23.4004 206.493 23.7129 206.498 24.0938C206.493 24.4746 206.181 24.7822 205.805 24.7871C205.424 24.7822 205.106 24.4746 205.111 24.0938Z" fill="#5E5A5A"/>
<path d="M20.1367 56.6526V49.5823H22.6562C24.3018 49.5823 25.1074 50.5686 25.1074 51.8772C25.1074 53.1809 24.2969 54.1721 22.6562 54.1721H21.2109V56.6526H20.1367ZM21.2109 53.2542H22.5488C23.5889 53.259 24.0234 52.6731 24.0234 51.8772C24.0234 51.0764 23.5889 50.5051 22.5488 50.5002H21.2109V53.2542ZM26.2402 49.5823H27.5488L29.7852 55.0608H29.873L32.1094 49.5823H33.418V56.6526H32.3926V51.5452H32.3242L30.2539 56.6428H29.4043L27.3242 51.5354H27.2656V56.6526H26.2402V49.5823ZM38.7109 51.4475C38.6426 50.7883 38.0664 50.4124 37.2559 50.4124C36.3916 50.4124 35.8447 50.8567 35.8398 51.4573C35.8398 52.1262 36.5674 52.3899 37.1289 52.5217L37.8125 52.7073C38.7158 52.927 39.8486 53.4202 39.8535 54.6995C39.8486 55.8958 38.8965 56.7698 37.2266 56.7698C35.6445 56.7698 34.6484 55.9788 34.5801 54.6897H35.6543C35.7178 55.4612 36.4014 55.8274 37.2266 55.8323C38.1299 55.8274 38.7842 55.3733 38.7891 54.6799C38.7842 54.0647 38.1982 53.8157 37.4512 53.6155L36.6113 53.3909C35.4736 53.0784 34.7705 52.5022 34.7656 51.5159C34.7705 50.2952 35.8545 49.4846 37.2852 49.4846C38.7207 49.4846 39.7217 50.3049 39.7559 51.4475H38.7109ZM50.3223 48.7327V57.4827H49.3848V48.7327H50.3223ZM43.1348 55.1389C45.459 54.0305 46.5967 52.4534 46.7773 50.4124H43.5547V49.6702H47.7148C47.7148 52.2336 46.626 54.4504 43.623 55.8909L43.1348 55.1389ZM58.5645 48.7327V51.3206H59.834V52.092H58.5645V55.0901H57.627V48.7327H58.5645ZM51.6797 53.3909C53.7305 52.7756 55 51.6086 55.1807 50.1682H52.0508V49.3967H56.1914C56.1914 51.6917 54.6289 53.3567 52.0703 54.1331L51.6797 53.3909ZM53.0078 57.2971V54.4358H53.9453V56.5452H58.9258V57.2971H53.0078ZM67.8613 48.7327V57.4827H66.9727V48.7327H67.8613ZM60.4297 52.512C60.4297 50.6174 61.1719 49.4309 62.3145 49.4358C63.3789 49.4309 64.0967 50.4417 64.2041 52.0823H65.1953V48.8987H66.084V57.053H65.1953V52.8342H64.209C64.126 54.5432 63.3984 55.6028 62.3145 55.5979C61.1719 55.6028 60.4297 54.4114 60.4297 52.512ZM61.2891 52.512C61.2891 53.9036 61.6846 54.7239 62.3145 54.719C62.959 54.7239 63.3594 53.9036 63.3594 52.512C63.3594 51.1155 62.959 50.3 62.3145 50.3049C61.6846 50.3 61.2891 51.1155 61.2891 52.512ZM79.4141 53.6741V54.4358H77.3828V57.4827H76.4453V54.4358H74.3555V57.4827H73.3984V54.4358H71.4062V53.6741H79.4141ZM72.2754 50.9983C72.2803 49.8167 73.54 49.0647 75.3906 49.0647C77.2412 49.0647 78.5107 49.8167 78.5059 50.9983C78.5107 52.1653 77.2412 52.9026 75.3906 52.8928C73.54 52.9026 72.2803 52.1653 72.2754 50.9983ZM73.2324 50.9983C73.2275 51.7161 74.0918 52.1604 75.3906 52.1604C76.6943 52.1604 77.5537 51.7161 77.5586 50.9983C77.5537 50.261 76.6943 49.8118 75.3906 49.8069C74.0918 49.8118 73.2275 50.261 73.2324 50.9983ZM83.0957 50.3342C83.0957 51.5061 83.9111 52.6096 85.2441 53.0588L84.7656 53.7913C83.7842 53.4495 83.0518 52.7512 82.666 51.8674C82.2852 52.8538 81.5332 53.6155 80.5078 53.9963L79.9902 53.2639C81.377 52.7903 82.1729 51.6086 82.1777 50.3049V49.2698H83.0957V50.3342ZM81.3965 57.2971V54.553H82.3438V56.5452H87.3145V57.2971H81.3965ZM86.0059 55.178V48.7229H86.9336V51.3596H88.2031V52.1506H86.9336V55.178H86.0059ZM96.709 55.6077V56.3694H88.7012V55.6077H92.207V53.5276H93.125V55.6077H96.709ZM88.9746 52.9221C90.6592 52.6389 92.1631 51.3401 92.168 49.9534V49.2893H93.1445V49.9534C93.1445 51.3401 94.668 52.6389 96.3574 52.9221L95.957 53.6838C94.5361 53.4055 93.2373 52.5266 92.6611 51.3303C92.085 52.5217 90.7959 53.4055 89.3848 53.6838L88.9746 52.9221ZM107.783 53.1174V53.8694H104.316V55.5686H103.379V53.8694H99.7754V53.1174H107.783ZM100.654 50.7151C100.649 49.6213 101.89 48.9426 103.77 48.9377C105.649 48.9426 106.88 49.6213 106.875 50.7151C106.88 51.804 105.649 52.4827 103.77 52.4827C101.89 52.4827 100.649 51.804 100.654 50.7151ZM100.781 57.2971V54.7288H101.709V56.5354H106.895V57.2971H100.781ZM101.65 50.7151C101.641 51.345 102.49 51.7307 103.77 51.7307C105.054 51.7307 105.894 51.345 105.898 50.7151C105.894 50.0657 105.054 49.6848 103.77 49.6799C102.49 49.6848 101.641 50.0657 101.65 50.7151ZM116.416 52.9905V53.7327H108.428V52.9905H111.973V52.0627H109.424V49.1331H115.43V49.8655H110.342V51.3206H115.488V52.0627H112.871V52.9905H116.416ZM109.375 55.8909C109.375 54.8752 110.513 54.304 112.412 54.2991C114.297 54.304 115.425 54.8752 115.43 55.8909C115.425 56.9065 114.297 57.4778 112.412 57.4827C110.513 57.4778 109.375 56.9065 109.375 55.8909ZM110.312 55.8909C110.308 56.4524 111.074 56.76 112.412 56.7502C113.73 56.76 114.502 56.4524 114.502 55.8909C114.502 55.3391 113.73 55.0217 112.412 55.0217C111.074 55.0217 110.308 55.3391 110.312 55.8909ZM120.283 50.9592C120.273 52.5559 121.24 54.1672 122.598 54.7678L122.041 55.5002C121.035 55.0217 120.239 54.0403 119.829 52.844C119.424 54.1282 118.618 55.1829 117.568 55.6956L117.002 54.9143C118.379 54.304 119.346 52.6292 119.346 50.9592V49.4651H120.283V50.9592ZM123.389 57.5022V48.7327H124.316V57.5022H123.389ZM26.7383 66.4553V69.3752H20.6934V66.4553H26.7383ZM19.7363 65.6838V64.9319H23.2617V64.0237H20.752V61.0452H26.6992V64.0237H24.1797V64.9319H27.7148V65.6838H19.7363ZM21.6113 68.6233H25.8398V67.1975H21.6113V68.6233ZM21.6602 63.2815H25.7812V61.7971H21.6602V63.2815ZM35.625 60.7327V69.5022H34.6973V60.7327H35.625ZM28.6816 64.4534C28.6816 62.5833 29.624 61.3918 30.9473 61.387C32.2461 61.3918 33.2031 62.5833 33.2031 64.4534C33.2031 66.343 32.2461 67.5344 30.9473 67.5295C29.624 67.5344 28.6816 66.343 28.6816 64.4534ZM29.5801 64.4534C29.5752 65.845 30.1318 66.6995 30.9473 66.6995C31.748 66.6995 32.3047 65.845 32.3047 64.4534C32.3047 63.0813 31.748 62.2219 30.9473 62.217C30.1318 62.2219 29.5752 63.0813 29.5801 64.4534ZM47.4609 65.7522V66.5042H43.8867V69.4729H42.9785V66.5042H39.4531V65.7522H47.4609ZM40.459 64.6389V61.2014H46.4551V64.6389H40.459ZM41.3672 63.9163H45.5273V61.9436H41.3672V63.9163ZM55.3906 60.7327V65.4495H54.4727V63.6233H52.6562V62.8713H54.4727V60.7327H55.3906ZM48.2129 64.9124C50.3223 64.3899 51.4844 63.3547 51.6504 62.0217H48.6621V61.2502H52.6465C52.6465 63.4963 51.1621 64.9856 48.5645 65.6448L48.2129 64.9124ZM49.6484 69.3752V65.8596H50.5762V66.885H54.4727V65.8596H55.3906V69.3752H49.6484ZM50.5762 68.6233H54.4727V67.6174H50.5762V68.6233ZM64.2676 60.7327V69.4827H63.3887V60.7327H64.2676ZM56.7188 66.9534C58.5742 65.8499 59.4629 64.3801 59.624 62.5784H57.1289V61.8167H60.5469C60.542 62.6711 60.4248 63.4866 60.1562 64.2483H61.543V60.9573H62.4219V69.053H61.543V64.9905H59.834C59.3164 66.0061 58.4814 66.8948 57.2461 67.6174L56.7188 66.9534ZM74.9316 64.6584V65.4202H68.7891V61.4944H69.7168V64.6584H74.9316ZM67.832 68.3303V67.5491H75.8398V68.3303H67.832ZM83.7207 60.7327V69.4827H82.8027V66.1233H80.7666C80.4883 66.8118 80.1172 67.4758 79.6094 68.0862L78.8477 67.5881C80.1172 66.0745 80.5322 64.2971 80.6104 62.4319H79.375V61.6702H81.4844C81.4844 62.1194 81.4697 62.5784 81.4355 63.0374H82.8027V60.7327H83.7207ZM76.3867 66.9631C77.6123 65.6692 78.1152 64.1799 78.2129 62.4319H76.709V61.6702H79.1113C79.1064 63.8284 78.6572 65.8303 77.1094 67.4905L76.3867 66.9631ZM81.0254 65.3713H82.8027V63.7893H81.3574C81.2842 64.3215 81.1816 64.8538 81.0254 65.3713ZM88.3398 63.3108C88.335 64.7756 89.2969 66.2893 90.6445 66.8655L90.1367 67.5881C89.1064 67.134 88.2861 66.1672 87.8809 65.0002C87.4756 66.2502 86.6553 67.3147 85.6348 67.8127L85.0977 67.0803C86.416 66.4602 87.3926 64.8196 87.4023 63.3108V62.3831H85.4004V61.6116H90.332V62.3831H88.3398V63.3108ZM91.4355 69.4827V60.7327H92.3633V69.4827H91.4355ZM100.84 63.2913V64.0334H94.8145V61.0452H95.7324V63.2913H100.84ZM93.75 65.8792V65.137H101.758V65.8792H93.75ZM94.7461 69.2776V66.7092H95.6738V68.5159H100.898V69.2776H94.7461ZM112.09 60.7327V69.5022H111.162V60.7327H112.09ZM105.146 64.4534C105.146 62.5833 106.089 61.3918 107.412 61.387C108.711 61.3918 109.668 62.5833 109.668 64.4534C109.668 66.343 108.711 67.5344 107.412 67.5295C106.089 67.5344 105.146 66.343 105.146 64.4534ZM106.045 64.4534C106.04 65.845 106.597 66.6995 107.412 66.6995C108.213 66.6995 108.77 65.845 108.77 64.4534C108.77 63.0813 108.213 62.2219 107.412 62.217C106.597 62.2219 106.04 63.0813 106.045 64.4534ZM121.484 65.6741V66.4358H119.453V69.4827H118.516V66.4358H116.426V69.4827H115.469V66.4358H113.477V65.6741H121.484ZM114.346 62.9983C114.351 61.8167 115.61 61.0647 117.461 61.0647C119.312 61.0647 120.581 61.8167 120.576 62.9983C120.581 64.1653 119.312 64.9026 117.461 64.8928C115.61 64.9026 114.351 64.1653 114.346 62.9983ZM115.303 62.9983C115.298 63.7161 116.162 64.1604 117.461 64.1604C118.765 64.1604 119.624 63.7161 119.629 62.9983C119.624 62.261 118.765 61.8118 117.461 61.8069C116.162 61.8118 115.298 62.261 115.303 62.9983ZM123.564 66.553C123.579 65.2737 123.955 64.8831 124.6 64.4827C125.01 64.2336 125.322 63.8723 125.322 63.3596C125.322 62.7493 124.854 62.3635 124.268 62.3635C123.74 62.3635 123.228 62.6858 123.184 63.4084H122.129C122.168 62.1633 123.105 61.4846 124.268 61.4846C125.537 61.4846 126.387 62.2463 126.387 63.3596C126.387 64.1458 126.011 64.6682 125.391 65.0491C124.805 65.4055 124.575 65.7571 124.561 66.553V66.6116H123.564V66.553ZM123.408 68.0276C123.403 67.6467 123.721 67.3342 124.102 67.3342C124.478 67.3342 124.79 67.6467 124.795 68.0276C124.79 68.4084 124.478 68.7161 124.102 68.7209C123.721 68.7161 123.403 68.4084 123.408 68.0276Z" fill="#5E5A5A"/>
<defs>
<filter id="filter0_d_345_1062" x="82.2188" y="80.3892" width="179.781" height="68.5642" filterUnits="userSpaceOnUse" color-interpolation-filters="sRGB">
<feFlood flood-opacity="0" result="BackgroundImageFix"/>
<feColorMatrix in="SourceAlpha" type="matrix" values="0 0 0 0 0 0 0 0 0 0 0 0 0 0 0 0 0 0 127 0" result="hardAlpha"/>
<feOffset dy="4"/>
<feGaussianBlur stdDeviation="2"/>
<feComposite in2="hardAlpha" operator="out"/>
<feColorMatrix type="matrix" values="0 0 0 0 0 0 0 0 0 0 0 0 0 0 0 0 0 0 0.05 0"/>
<feBlend mode="normal" in2="BackgroundImageFix" result="effect1_dropShadow_345_1062"/>
<feBlend mode="normal" in="SourceGraphic" in2="effect1_dropShadow_345_1062" result="shape"/>
</filter>
<filter id="filter1_d_345_1062" x="0" y="33.4873" width="150.969" height="70.95" filterUnits="userSpaceOnUse" color-interpolation-filters="sRGB">
<feFlood flood-opacity="0" result="BackgroundImageFix"/>
<feColorMatrix in="SourceAlpha" type="matrix" values="0 0 0 0 0 0 0 0 0 0 0 0 0 0 0 0 0 0 127 0" result="hardAlpha"/>
<feOffset dy="4"/>
<feGaussianBlur stdDeviation="2"/>
<feComposite in2="hardAlpha" operator="out"/>
<feColorMatrix type="matrix" values="0 0 0 0 0 0 0 0 0 0 0 0 0 0 0 0 0 0 0.05 0"/>
<feBlend mode="normal" in2="BackgroundImageFix" result="effect1_dropShadow_345_1062"/>
<feBlend mode="normal" in="SourceGraphic" in2="effect1_dropShadow_345_1062" result="shape"/>
</filter>
<filter id="filter2_d_345_1062" x="48.7969" y="0.955078" width="179.781" height="60.1218" filterUnits="userSpaceOnUse" color-interpolation-filters="sRGB">
<feFlood flood-opacity="0" result="BackgroundImageFix"/>
<feColorMatrix in="SourceAlpha" type="matrix" values="0 0 0 0 0 0 0 0 0 0 0 0 0 0 0 0 0 0 127 0" result="hardAlpha"/>
<feOffset dy="4"/>
<feGaussianBlur stdDeviation="2"/>
<feComposite in2="hardAlpha" operator="out"/>
<feColorMatrix type="matrix" values="0 0 0 0 0 0 0 0 0 0 0 0 0 0 0 0 0 0 0.05 0"/>
<feBlend mode="normal" in2="BackgroundImageFix" result="effect1_dropShadow_345_1062"/>
<feBlend mode="normal" in="SourceGraphic" in2="effect1_dropShadow_345_1062" result="shape"/>
</filter>
</defs>
</svg>
