<svg width="270" height="189" viewBox="0 0 270 189" fill="none" xmlns="http://www.w3.org/2000/svg">
<g filter="url(#filter0_d_345_1072)">
<path d="M52.6816 10.0481C52.6816 5.02524 56.7535 0.953369 61.7764 0.953369H256.404C261.427 0.953369 265.499 5.02524 265.499 10.0481V40.9704C265.499 45.9933 261.427 50.0651 256.404 50.0651H61.7764C56.7535 50.0651 52.6816 45.9933 52.6816 40.9704V10.0481Z" fill="#E4F9FF"/>
<path d="M250.266 40.5156H215.023C217.934 57.7957 239.731 64.3894 250.266 65.5262C238.988 56.9772 245.567 45.2904 250.266 40.5156Z" fill="#E4F9FF"/>
</g>
<g filter="url(#filter1_d_345_1072)">
<path d="M217.318 74.6214C217.318 69.5985 213.246 65.5266 208.224 65.5266H13.5955C8.5726 65.5266 4.50075 69.5985 4.50075 74.6214V154.915C4.50075 159.938 8.5726 164.01 13.5955 164.01H208.224C213.246 164.01 217.318 159.938 217.318 154.915V74.6214Z" fill="#0066FF"/>
<path d="M19.7345 155.38H54.9767C52.0664 172.66 30.2693 179.254 19.7345 180.391C31.012 171.842 24.4335 160.155 19.7345 155.38Z" fill="#0066FF"/>
</g>
<path d="M79.2578 21.1057V22.0081H75.5547V25.1487C77.418 25.1428 78.5254 25.0901 79.8086 24.8323L79.9141 25.7346C78.5312 26.0042 77.3359 26.0686 75.25 26.0745H74.4531V21.1057H79.2578ZM75.707 30.8088V27.0237H82.6328V30.8088H75.707ZM76.8086 29.9065H81.543V27.9026H76.8086V29.9065ZM78.6719 23.8713V22.9573H81.5195V20.4495H82.6328V26.5198H81.5195V23.8713H78.6719ZM93.2031 20.4612V25.9456H92.1484V20.4612H93.2031ZM84.6953 25.5002V21.0588H85.75V22.3713H87.7773V21.0588H88.8086V22.7698H90.0508V20.6604H91.0938V25.887H90.0508V23.6838H88.8086V25.5002H84.6953ZM85.75 24.6213H87.7773V23.2151H85.75V24.6213ZM86.1602 27.2932V26.4143H93.2031V28.9924H87.2969V29.9768H93.6016V30.844H86.1836V28.1604H92.1016V27.2932H86.1602ZM106.504 20.4495V28.4182H105.449V20.4495H106.504ZM97.9961 26.4729V21.2815H99.0508V23.0042H101.078V21.2815H102.109V23.4495H103.398V20.637H104.453V28.0901H103.398V24.3518H102.109V26.4729H97.9961ZM99.0508 25.5706H101.078V23.8596H99.0508V25.5706ZM99.543 30.7268V27.3401H100.645V29.8245H106.809V30.7268H99.543ZM116.617 20.4495V30.9495H115.504V20.4495H116.617ZM108.074 28.0784C109.697 27.3518 110.775 25.5823 110.781 23.8245V23.1331H108.391V22.2424H110.77V20.6604H111.871V22.2424H114.227V23.1331H111.871V23.8245C111.877 25.5002 112.979 27.2112 114.613 27.9026L114.004 28.7581C112.791 28.2307 111.83 27.135 111.344 25.8108C110.869 27.217 109.914 28.3831 108.695 28.9338L108.074 28.0784ZM127.902 28.6995V29.637H118.293V28.6995H127.902ZM119.113 22.3713V21.4573H127.023V22.3713H125.418V25.8752H126.988V26.7659H119.137V25.8752H120.707V22.3713H119.113ZM121.809 25.8752H124.328V22.3713H121.809V25.8752ZM132.73 21.5745V25.3127H130.07V27.469C131.213 27.4631 132.303 27.4163 133.598 27.1877L133.691 28.1018C132.232 28.3655 131.037 28.3948 129.719 28.4065H128.992V24.4221H131.664V22.4768H128.98V21.5745H132.73ZM133.223 25.0667V24.1643H134.465V20.6838H135.52V30.4104H134.465V25.0667H133.223ZM136.609 30.9495V20.4495H137.676V30.9495H136.609ZM144.367 21.9377C144.367 23.6487 146.189 25.2659 148.211 25.6292L147.695 26.5549C146.014 26.1917 144.473 25.0901 143.793 23.6135C143.102 25.0842 141.561 26.1799 139.879 26.5549L139.387 25.6292C141.379 25.2542 143.189 23.6487 143.195 21.9377V21.1409H144.367V21.9377ZM139.035 29.5667V28.6409H148.645V29.5667H139.035ZM157.586 20.4495V24.7034H159.273V25.6292H157.586V30.9495H156.484V20.4495H157.586ZM149.348 23.0042V22.0901H151.938V20.5901H153.051V22.0901H155.57V23.0042H149.348ZM149.887 26.2151C149.887 24.7854 150.988 23.7776 152.5 23.7776C154.006 23.7776 155.107 24.7854 155.113 26.2151C155.107 27.6565 154.006 28.6584 152.5 28.6643C150.988 28.6584 149.887 27.6565 149.887 26.2151ZM150.953 26.2151C150.947 27.1292 151.604 27.7385 152.5 27.7268C153.391 27.7385 154.041 27.1292 154.047 26.2151C154.041 25.3186 153.391 24.6975 152.5 24.6917C151.604 24.6975 150.947 25.3186 150.953 26.2151ZM165.133 21.3401V22.2307H167.418V20.4612H168.531V28.1135H167.418V25.3948H165.133V26.3088H160.258V21.3401H165.133ZM161.359 25.4299H164.043V22.2424H161.359V25.4299ZM161.676 30.7268V27.4104H162.801V29.8245H168.766V30.7268H161.676ZM165.133 24.4807H167.418V23.1448H165.133V24.4807ZM175.926 21.2346C177.355 21.2405 178.393 22.4475 178.562 24.387H180.73V20.4495H181.832V30.9729H180.73V25.2893H178.574C178.451 27.3401 177.391 28.6116 175.926 28.6057C174.361 28.6116 173.254 27.1819 173.266 24.9143C173.254 22.6702 174.361 21.2405 175.926 21.2346ZM174.32 24.9143C174.326 26.5842 174.977 27.6096 175.926 27.6096C176.875 27.6096 177.525 26.5842 177.531 24.9143C177.525 23.2678 176.875 22.2366 175.926 22.2307C174.977 22.2366 174.326 23.2678 174.32 24.9143ZM192.637 20.4377V30.9377H191.559V25.5237H190.41V30.4456H189.367V20.6604H190.41V24.6096H191.559V20.4377H192.637ZM183.414 27.8674C184.627 26.2971 185.031 24.5452 185.107 22.6174H183.684V21.7151H186.062C186.062 24.0237 185.758 26.3909 184.293 28.3948L183.414 27.8674ZM185.887 28.5823C187.24 26.801 187.521 24.6389 187.574 22.6174H186.402V21.7151H188.547C188.547 24.0354 188.365 26.8655 186.789 29.0862L185.887 28.5823ZM202 20.4495V24.6331H203.629V25.5588H202V30.9377H200.887V20.4495H202ZM193.832 28.137C196.463 26.8245 197.893 24.926 198.121 22.4768H194.359V21.551H199.258C199.246 24.5862 197.91 27.2991 194.453 29.0042L193.832 28.137ZM209.477 20.6135V21.5276H214.34V20.6135H215.453V24.094H208.375V20.6135H209.477ZM207.121 25.7581V24.8557H216.695V25.7581H212.453V26.6604H215.488V29.1096H209.371V29.9885H215.781V30.844H208.281V28.3127H214.387V27.4924H208.27V26.6604H211.34V25.7581H207.121ZM209.477 23.2502H214.34V22.3479H209.477V23.2502ZM226.246 20.4495V28.2424H225.133V25.3479H223.492V24.4104H225.133V23.3088H223.492V22.3948H225.133V20.4495H226.246ZM217.504 25.8167C217.896 25.8167 218.33 25.8108 218.781 25.8108V22.1721H217.797V21.2698H223.375V22.1721H222.367V25.6877C222.812 25.6526 223.24 25.6174 223.656 25.5706L223.703 26.3909C221.693 26.7073 219.326 26.7483 217.645 26.7542L217.504 25.8167ZM219.402 30.7268V27.6096H220.527V29.8245H226.516V30.7268H219.402ZM219.859 25.7932C220.334 25.7815 220.814 25.7639 221.301 25.7463V22.1721H219.859V25.7932ZM233.055 22.1838V23.0862H227.84V22.1838H229.902V20.7542H231.004V22.1838H233.055ZM228.18 26.1331C228.174 24.7209 229.135 23.719 230.453 23.719C231.783 23.719 232.732 24.7209 232.738 26.1331C232.732 27.5686 231.783 28.5764 230.453 28.5706C229.135 28.5764 228.174 27.5686 228.18 26.1331ZM229.164 26.1331C229.158 27.0237 229.697 27.6213 230.453 27.6213C231.209 27.6213 231.754 27.0237 231.754 26.1331C231.754 25.26 231.209 24.6506 230.453 24.6448C229.697 24.6506 229.158 25.26 229.164 26.1331ZM233.535 30.4573V20.6838H234.59V24.8206H235.797V20.4495H236.852V30.9495H235.797V25.7346H234.59V30.4573H233.535ZM247.844 28.7112V29.637H238.234V28.7112H240.531V25.969C239.67 25.4944 239.143 24.7444 239.148 23.801C239.143 22.1487 240.766 21.0647 243.016 21.0588C245.271 21.0647 246.895 22.1487 246.895 23.801C246.895 24.7268 246.391 25.4709 245.547 25.9456V28.7112H247.844ZM240.227 23.801C240.227 24.926 241.369 25.6584 243.016 25.6643C244.65 25.6584 245.811 24.926 245.816 23.801C245.811 22.6702 244.65 21.9495 243.016 21.9495C241.369 21.9495 240.227 22.6702 240.227 23.801ZM241.633 28.7112H244.422V26.3792C243.994 26.4788 243.52 26.5315 243.016 26.5315C242.523 26.5315 242.055 26.4788 241.633 26.3792V28.7112ZM250.539 21.469L250.434 27.5042H249.273L249.168 21.469H250.539ZM249.027 29.2034C249.021 28.7463 249.402 28.3713 249.859 28.3713C250.311 28.3713 250.686 28.7463 250.691 29.2034C250.686 29.6604 250.311 30.0295 249.859 30.0354C249.402 30.0295 249.021 29.6604 249.027 29.2034Z" fill="#5E5A5A"/>
<path d="M22.7266 81.387V87.1936C23.7051 87.176 24.6074 87.1057 25.6094 86.8948L25.8086 88.1487C24.4961 88.4358 23.3477 88.4827 21.9766 88.4768H21.2266V81.387H22.7266ZM24.2266 84.9495V83.7424H26.3594V80.5667H27.7773V90.5627H26.3594V84.9495H24.2266ZM28.6562 91.0315V80.3674H30.0625V91.0315H28.6562ZM33.4375 89.0862L32.4297 92.426H31.1875L31.7734 89.0862H33.4375ZM45.4727 80.3792V83.6487H46.9141V84.8674H45.4727V88.3362H43.9727V80.3792H45.4727ZM37.0117 82.676V81.4924H39.4375V80.3557H40.9258V81.4924H43.3398V82.676H37.0117ZM37.5273 85.1135C37.5273 83.8772 38.623 83.051 40.1758 83.051C41.7227 83.051 42.8008 83.8772 42.8008 85.1135C42.8008 86.344 41.7227 87.1526 40.1758 87.1526C38.623 87.1526 37.5273 86.344 37.5273 85.1135ZM38.5586 90.844V87.7268H40.0469V89.6487H45.8594V90.844H38.5586ZM38.9922 85.1135C38.9863 85.6995 39.4609 86.0159 40.1758 86.0159C40.8965 86.0159 41.3828 85.6995 41.3828 85.1135C41.3828 84.5217 40.8965 84.1936 40.1758 84.1877C39.4609 84.1936 38.9863 84.5217 38.9922 85.1135ZM56.3711 80.3792V88.2424H54.8828V84.3987H52.9141V86.5549H47.8398V81.0706H49.3398V82.7112H51.4375V81.0706H52.9141V83.2034H54.8828V80.3792H56.3711ZM49.2695 90.844V87.4573H50.7812V89.6487H56.5938V90.844H49.2695ZM49.3398 85.3831H51.4375V83.8479H49.3398V85.3831ZM68.9336 80.3674V84.3284H70.5039V85.5471H68.9336V91.0549H67.4336V80.3674H68.9336ZM60.9414 88.4651V81.3518H65.9453V82.5588H62.4297V87.2346C63.9766 87.2229 65.2539 87.1409 66.6719 86.8948L66.8359 88.1487C65.1777 88.4299 63.7246 88.4709 61.8438 88.4651H60.9414ZM75.7539 80.5667C78.127 80.5608 79.627 81.3518 79.6328 82.6526C79.627 83.9475 78.127 84.7209 75.7539 84.7151C73.3926 84.7209 71.8633 83.9475 71.8633 82.6526C71.8633 81.3518 73.3926 80.5608 75.7539 80.5667ZM70.8906 86.5315V85.3362H80.6172V86.5315H70.8906ZM72.0156 90.9143V87.2815H79.457V90.9143H72.0156ZM73.4219 82.6526C73.4102 83.2502 74.2598 83.5549 75.7539 83.5549C77.2246 83.5549 78.0859 83.2502 78.0859 82.6526C78.0859 82.0374 77.2246 81.7268 75.7539 81.7268C74.2598 81.7268 73.4102 82.0374 73.4219 82.6526ZM73.4922 89.719H77.9922V88.4651H73.4922V89.719ZM83.7578 81.1526C85 81.1526 85.9551 81.9846 86.1836 83.262H86.8867V80.5315H88.2695V87.9846H86.8867V84.4807H86.166C85.9141 85.7053 84.9707 86.5198 83.7578 86.5198C82.334 86.5198 81.3027 85.4065 81.3086 83.8362C81.3027 82.2366 82.334 81.1526 83.7578 81.1526ZM82.6445 83.8362C82.6387 84.7209 83.1016 85.2307 83.7578 85.2307C84.4082 85.2307 84.8828 84.7209 84.8945 83.8362C84.8828 82.9514 84.4082 82.4182 83.7578 82.4182C83.1016 82.4182 82.6387 82.9514 82.6445 83.8362ZM83.1953 90.844V87.2815H84.6953V89.6487H90.6953V90.844H83.1953ZM89.0078 88.3127V80.3674H90.4258V88.3127H89.0078ZM104.148 86.3323V87.5276H99.9766V91.0198H98.5V87.5276H94.3867V86.3323H104.148ZM95.5352 85.1838V80.8831H102.977V85.1838H95.5352ZM97.0117 84.012H101.488V82.0667H97.0117V84.012ZM114.016 80.3674V91.0315H112.609V80.3674H114.016ZM104.641 87.762C106.797 86.4846 107.746 84.9319 107.951 82.8401H105.227V81.6331H109.434C109.434 82.6526 109.322 83.6018 109.064 84.4807H110.348V80.6018H111.742V90.5627H110.348V85.6643H108.602C107.992 86.8831 107.002 87.9377 105.484 88.8167L104.641 87.762ZM124.891 85.1487V86.262H115.129V85.1487H124.891ZM116.242 87.8206V86.7893H123.719V89.3088H117.742V89.9182H124.035V90.9377H116.254V88.3596H122.242V87.8206H116.242ZM116.324 81.5745V80.5549H123.707V83.0627H117.836V83.637H123.895V84.6448H116.348V82.1135H122.207V81.5745H116.324ZM131.746 90.0706C129.977 90.0706 128.682 89.0276 128.652 87.5627H130.363C130.404 88.2249 131.008 88.6819 131.746 88.676C132.625 88.6819 133.252 88.0608 133.246 87.176C133.252 86.2737 132.613 85.6467 131.723 85.6409C131.084 85.6409 130.639 85.8811 130.387 86.3557H128.793L129.25 81.469H134.477V82.9104H130.703L130.469 85.0549H130.539C130.85 84.6389 131.494 84.3342 132.238 84.3401C133.797 84.3342 134.957 85.5002 134.957 87.1292C134.957 88.8459 133.656 90.0706 131.746 90.0706ZM136.199 89.9534V81.469H137.957V85.2307H138.074L141.156 81.469H143.277L140.113 85.2659L143.312 89.9534H141.203L138.848 86.4495L137.957 87.5276V89.9534H136.199ZM149.312 84.1995C149.072 83.4026 148.434 82.9163 147.508 82.9104C146.195 82.9163 145.305 83.9182 145.305 85.6995C145.305 87.4924 146.166 88.5061 147.52 88.512C148.732 88.5061 149.453 87.8206 149.477 86.7542H147.637V85.4299H151.176V86.4846C151.176 88.7112 149.646 90.0706 147.508 90.0706C145.129 90.0706 143.512 88.4065 143.512 85.7229C143.512 82.969 145.234 81.3518 147.473 81.3518C149.389 81.3518 150.859 82.5295 151.094 84.1995H149.312ZM156.93 80.9065C159.18 80.9124 160.943 82.1311 160.949 83.9768C160.943 85.8401 159.18 87.053 156.93 87.0471C154.674 87.053 152.922 85.8401 152.922 83.9768C152.922 82.1311 154.674 80.9124 156.93 80.9065ZM152.066 89.7307V88.5237H161.828V89.7307H152.066ZM154.375 83.9768C154.369 85.137 155.447 85.8284 156.93 85.8284C158.4 85.8284 159.467 85.137 159.473 83.9768C159.467 82.8342 158.4 82.1135 156.93 82.1252C155.447 82.1135 154.369 82.8342 154.375 83.9768ZM172.199 88.6174V89.8479H162.438V88.6174H166.551V87.012H163.562V83.426H169.598V82.2542H163.551V81.0588H171.074V84.5979H165.062V85.7932H171.32V87.012H168.039V88.6174H172.199ZM184.035 80.3557V82.6995H185.477V83.9417H184.035V86.2034H182.535V80.3557H184.035ZM176.008 85.6995V80.8713H177.508V84.4631C178.803 84.4338 180.191 84.3167 181.668 84.012L181.844 85.2307C180.086 85.594 178.428 85.6995 176.922 85.6995H176.008ZM176.523 89.801C178.539 89.5784 179.588 88.6995 179.758 87.844H176.98V86.6604H184.164V87.844H181.387C181.557 88.676 182.629 89.5784 184.633 89.8245L184.07 90.9612C182.377 90.7385 181.188 90.0354 180.584 89.1213C179.98 90.0413 178.791 90.7092 177.098 90.9377L176.523 89.801ZM192.191 81.4104V82.5706H190.188C190.229 83.385 190.984 84.135 192.508 84.3987L191.898 85.5588C190.703 85.3245 189.883 84.7795 189.426 84.0588C188.969 84.8499 188.119 85.4358 186.871 85.6877L186.25 84.5627C187.814 84.2698 188.564 83.4495 188.605 82.5706H186.555V81.4104H188.664V80.3909H190.141V81.4104H192.191ZM185.898 86.1331C187.879 86.1331 190.521 86.1096 192.824 85.7932L192.906 86.8948C191.975 87.0588 191.02 87.1702 190.082 87.2346V90.7151H188.57V87.3167C187.686 87.3459 186.842 87.3518 186.086 87.3518L185.898 86.1331ZM191.359 88.9338V87.7854H193.527V80.3792H195.051V91.0315H193.527V88.9338H191.359ZM24.8477 96.7815C24.8535 98.7854 25.6621 100.737 27.4375 101.504L26.5234 102.699C25.3398 102.125 24.543 101.059 24.0977 99.7405C23.6406 101.141 22.8203 102.289 21.6016 102.887L20.6641 101.668C22.4922 100.842 23.3242 98.7854 23.3359 96.7815V95.1877H24.8477V96.7815ZM26.2422 98.926V97.719H28.3398V94.3674H29.8164V105.055H28.3398V98.926H26.2422ZM39.0977 95.9963V97.1799H33.9414V95.9963H35.793V94.6604H37.2695V95.9963H39.0977ZM34.1875 100.192C34.1875 98.7092 35.1836 97.6663 36.543 97.6604C37.9082 97.6663 38.8809 98.7092 38.8867 100.192C38.8809 101.68 37.9082 102.735 36.543 102.735C35.1836 102.735 34.1875 101.68 34.1875 100.192ZM35.5 100.192C35.5 101.006 35.9219 101.469 36.543 101.469C37.1406 101.469 37.5684 101.006 37.5742 100.192C37.5684 99.3889 37.1406 98.9026 36.543 98.9026C35.9219 98.9026 35.5 99.3889 35.5 100.192ZM39.4961 104.574V94.5784H40.8906V98.7034H41.7578V94.3674H43.1758V105.031H41.7578V99.8987H40.8906V104.574H39.4961ZM54.0859 102.571V103.789H44.3242V102.571H48.4375V100.602H45.3555V95.0471H46.8555V96.6995H51.5078V95.0471H52.9961V100.602H49.9258V102.571H54.0859ZM46.8555 99.4065H51.5078V97.8948H46.8555V99.4065ZM58.8438 96.7815C58.8379 98.7385 59.7285 100.701 61.5391 101.469L60.6602 102.664C59.4414 102.114 58.5977 101.047 58.1113 99.7288C57.6309 101.17 56.7578 102.33 55.457 102.922L54.5547 101.68C56.418 100.895 57.3262 98.8499 57.332 96.7815V95.1877H58.8438V96.7815ZM62.1133 105.055V94.3674H63.625V105.055H62.1133ZM73.8555 95.2932V96.301C73.8496 97.637 73.8496 99.137 73.4219 101.399L71.9219 101.246C72.332 99.2307 72.3496 97.7307 72.3555 96.4768H66.0742V95.2932H73.8555ZM65.0664 103.731V102.512H68.5469V98.844H70.0352V102.512H74.793V103.731H65.0664ZM77.6875 103.086L76.6797 106.426H75.4375L76.0234 103.086H77.6875ZM89.793 95.3518V96.6292C89.7871 98.094 89.7871 99.5413 89.4062 101.75L87.8945 101.621C88.2988 99.5706 88.2988 98.0471 88.3047 96.6292V96.5471H82.2695V95.3518H89.793ZM81.2617 103.637V102.406H90.9883V103.637H81.2617ZM95.9805 95.3987V99.512H93.3672V101.422C94.3809 101.41 95.3418 101.369 96.4375 101.199L96.543 102.395C95.1484 102.629 93.9941 102.664 92.6758 102.664H91.9375V98.3167H94.5391V96.6057H91.9258V95.3987H95.9805ZM97.0352 104.516V94.5432H98.4062V98.3987H99.4375V94.3674H100.855V105.031H99.4375V99.6057H98.4062V104.516H97.0352ZM110.699 99.137V100.321H107.605V102.594H111.766V103.813H102.004V102.594H106.117V100.321H103.152V95.1174H110.617V96.3127H104.652V99.137H110.699ZM117.859 94.5315V95.2698H122.137V94.5315H123.625V98.1057H116.383V94.5315H117.859ZM115.141 99.8635V98.6565H124.867V99.8635H120.742V100.531H123.684V103.227H117.742V103.836H123.965V104.961H116.277V102.196H122.207V101.621H116.266V100.531H119.242V99.8635H115.141ZM117.859 96.9924H122.137V96.3479H117.859V96.9924ZM134.5 94.3674V102.219H133.012V99.594H131.652V98.3635H133.012V97.4377H131.652V96.2424H133.012V94.3674H134.5ZM125.512 99.7112L126.648 99.7053V96.3245H125.781V95.1292H131.465V96.3245H130.586V99.5647C130.943 99.5354 131.295 99.5002 131.629 99.4651L131.688 100.555C129.689 100.883 127.357 100.93 125.664 100.93L125.512 99.7112ZM127.41 104.844V101.633H128.91V103.649H134.758V104.844H127.41ZM128.09 99.6819C128.441 99.6702 128.799 99.6584 129.156 99.6467V96.3245H128.09V99.6819ZM144.297 94.3674V98.5393H145.867V99.7698H144.297V105.031H142.82V94.3674H144.297ZM135.824 97.1565V95.9612H138.238V94.5315H139.738V95.9612H142.094V97.1565H135.824ZM136.258 100.297C136.252 98.8088 137.412 97.7483 138.988 97.7542C140.541 97.7483 141.707 98.8088 141.707 100.297C141.707 101.785 140.541 102.834 138.988 102.84C137.412 102.834 136.252 101.785 136.258 100.297ZM137.688 100.297C137.688 101.123 138.232 101.615 138.988 101.61C139.732 101.615 140.277 101.123 140.277 100.297C140.277 99.4768 139.732 98.9729 138.988 98.9612C138.232 98.9729 137.688 99.4768 137.688 100.297ZM154.668 94.3674V98.3284H156.238V99.5471H154.668V105.055H153.168V94.3674H154.668ZM146.676 102.465V95.3518H151.68V96.5588H148.164V101.235C149.711 101.223 150.988 101.141 152.406 100.895L152.57 102.149C150.912 102.43 149.459 102.471 147.578 102.465H146.676ZM162.133 95.2346V96.0432H164.125V94.3792H165.613V102.137H164.125V99.5237H162.133V100.426H157.07V95.2346H162.133ZM158.512 104.844V101.399H160.023V103.649H165.836V104.844H158.512ZM158.559 99.2659H160.668V96.4182H158.559V99.2659ZM162.133 98.3401H164.125V97.2502H162.133V98.3401ZM178.223 94.3792V97.6487H179.664V98.8674H178.223V102.336H176.723V94.3792H178.223ZM169.762 96.676V95.4924H172.188V94.3557H173.676V95.4924H176.09V96.676H169.762ZM170.277 99.1135C170.277 97.8772 171.373 97.051 172.926 97.051C174.473 97.051 175.551 97.8772 175.551 99.1135C175.551 100.344 174.473 101.153 172.926 101.153C171.373 101.153 170.277 100.344 170.277 99.1135ZM171.309 104.844V101.727H172.797V103.649H178.609V104.844H171.309ZM171.742 99.1135C171.736 99.6995 172.211 100.016 172.926 100.016C173.646 100.016 174.133 99.6995 174.133 99.1135C174.133 98.5217 173.646 98.1936 172.926 98.1877C172.211 98.1936 171.736 98.5217 171.742 99.1135ZM191.887 94.3792V102.242H190.398V98.3987H188.43V100.555H183.355V95.0706H184.855V96.7112H186.953V95.0706H188.43V97.2034H190.398V94.3792H191.887ZM184.785 104.844V101.457H186.297V103.649H192.109V104.844H184.785ZM184.855 99.3831H186.953V97.8479H184.855V99.3831ZM24.7539 111.274C24.748 112.897 25.6152 114.772 27.3672 115.586L26.5352 116.758C25.3457 116.213 24.502 115.123 24.0215 113.846C23.5469 115.252 22.668 116.448 21.4375 117.028L20.5703 115.844C22.3457 115.018 23.2422 113.037 23.2539 111.274V110.617H20.9922V109.399H26.8984V110.617H24.7539V111.274ZM27.7305 119.031V108.367H29.2305V112.434H30.8008V113.688H29.2305V119.031H27.7305ZM34.6094 111.051C34.6035 112.78 35.084 114.561 36.543 115.492L35.7344 116.653C34.8086 116.096 34.2285 115.17 33.8887 114.08C33.5078 115.287 32.8691 116.301 31.9023 116.887L30.9883 115.785C32.5703 114.807 33.1562 112.926 33.1562 111.121V109.281H34.6094V111.051ZM35.418 113.184V111.965H36.8008V108.52H38.1953V118.539H36.8008V113.184H35.418ZM39.0039 119.031V108.367H40.4336V119.031H39.0039ZM51.3086 113.149V114.262H41.5469V113.149H51.3086ZM42.6602 115.821V114.789H50.1367V117.309H44.1602V117.918H50.4531V118.938H42.6719V116.36H48.6602V115.821H42.6602ZM42.7422 109.574V108.555H50.125V111.063H44.2539V111.637H50.3125V112.645H42.7656V110.114H48.625V109.574H42.7422ZM58.0234 111.614C58.0234 113.231 58.6035 114.854 60.1211 115.668L59.3008 116.758C58.3398 116.266 57.7012 115.405 57.3262 114.367C56.957 115.498 56.3184 116.453 55.3516 117.016L54.4961 115.891C56.0371 115 56.6055 113.26 56.6172 111.614V111.367H54.8945V110.172H56.6172V108.731H58.0117V110.172H59.6992V111.367H58.0234V111.614ZM59.0781 113.629V112.41H60.332V108.543H61.7383V118.539H60.332V113.629H59.0781ZM62.5 119.031V108.367H63.918V119.031H62.5ZM73.7969 109.305V110.547C73.791 112.1 73.791 113.576 73.3047 115.891L71.8164 115.75C72.0273 114.865 72.1504 114.08 72.2266 113.36L66.0391 113.664L65.8516 112.469L72.3027 112.235C72.3262 111.649 72.332 111.098 72.332 110.547V110.5H66.1797V109.305H73.7969ZM65.0664 117.754V116.535H74.793V117.754H65.0664ZM80.582 109.996V111.18H75.4258V109.996H77.2773V108.66H78.7539V109.996H80.582ZM75.6719 114.192C75.6719 112.709 76.668 111.666 78.0273 111.66C79.3926 111.666 80.3652 112.709 80.3711 114.192C80.3652 115.68 79.3926 116.735 78.0273 116.735C76.668 116.735 75.6719 115.68 75.6719 114.192ZM76.9844 114.192C76.9844 115.006 77.4062 115.469 78.0273 115.469C78.625 115.469 79.0527 115.006 79.0586 114.192C79.0527 113.389 78.625 112.903 78.0273 112.903C77.4062 112.903 76.9844 113.389 76.9844 114.192ZM80.9805 118.574V108.578H82.375V112.703H83.2422V108.367H84.6602V119.031H83.2422V113.899H82.375V118.574H80.9805ZM87.8008 109.211V110.547H90.25V109.211H91.75V114.121H89.793V115.739C90.6191 115.698 91.4453 115.633 92.2188 115.528L92.3242 116.617C90.0918 117.016 87.6895 117.022 85.8789 117.028L85.6797 115.809C86.4648 115.809 87.3613 115.809 88.3047 115.791V114.121H86.3359V109.211H87.8008ZM87.8008 112.949H90.25V111.684H87.8008V112.949ZM92.7812 119.031V108.367H94.2812V112.633H95.7344V113.875H94.2812V119.031H92.7812ZM105.941 116.559V117.789H96.1797V116.559H98.3594V113.946C97.5332 113.448 97.0352 112.692 97.0352 111.754C97.0352 110.026 98.7227 108.889 101.043 108.883C103.352 108.889 105.057 110.026 105.062 111.754C105.057 112.674 104.576 113.418 103.773 113.916V116.559H105.941ZM98.5117 111.754C98.5117 112.797 99.5137 113.442 101.043 113.442C102.549 113.442 103.58 112.797 103.586 111.754C103.58 110.682 102.549 110.061 101.043 110.067C99.5137 110.061 98.5117 110.682 98.5117 111.754ZM99.8359 116.559H102.262V114.485C101.881 114.561 101.471 114.602 101.043 114.602C100.615 114.602 100.211 114.561 99.8359 114.49V116.559ZM30.5664 141.559V142.754H26.5234V144.606H25.0117V142.754H20.8047V141.559H30.5664ZM21.8125 138.781C21.8125 137.428 23.3594 136.578 25.6797 136.567C27.9883 136.578 29.5293 137.428 29.5352 138.781C29.5293 140.141 27.9883 140.985 25.6797 140.985C23.3594 140.985 21.8125 140.141 21.8125 138.781ZM21.9648 146.844V143.656H23.4766V145.637H29.4883V146.844H21.9648ZM23.4297 138.781C23.4238 139.432 24.3027 139.783 25.6797 139.789C27.0566 139.783 27.9297 139.432 27.9297 138.781C27.9297 138.102 27.0566 137.75 25.6797 137.75C24.3027 137.75 23.4238 138.102 23.4297 138.781ZM40.9375 141.406V142.578H31.1875V141.406H35.3359V140.492H32.3711V136.836H39.7656V137.996H33.8594V139.321H39.8242V140.492H36.8008V141.406H40.9375ZM32.3008 145.086C32.3008 143.821 33.707 143.117 36.0391 143.117C38.3535 143.117 39.7422 143.821 39.7539 145.086C39.7422 146.334 38.3535 147.043 36.0391 147.043C33.707 147.043 32.3008 146.334 32.3008 145.086ZM33.8242 145.086C33.8184 145.643 34.5625 145.906 36.0391 145.906C37.4863 145.906 38.248 145.643 38.2539 145.086C38.248 144.535 37.4863 144.254 36.0391 144.254C34.5625 144.254 33.8184 144.535 33.8242 145.086ZM44.5352 136.942C45.3848 136.936 46.1289 137.252 46.6387 137.774H49.0586V136.367H50.5469V142.614H49.0586V141.336H46.627C46.1172 141.852 45.3789 142.162 44.5352 142.156C42.918 142.162 41.6875 141.061 41.6992 139.555C41.6875 138.031 42.918 136.936 44.5352 136.942ZM43.1172 139.555C43.1113 140.375 43.7031 140.897 44.5352 140.891C45.3379 140.897 45.9238 140.375 45.9297 139.555C45.9238 138.705 45.3379 138.213 44.5352 138.219C43.7031 138.213 43.1113 138.705 43.1172 139.555ZM43.2344 144.934C43.2344 143.61 44.6465 142.83 46.9023 142.836C49.1582 142.83 50.5762 143.61 50.582 144.934C50.5762 146.258 49.1582 147.037 46.9023 147.031C44.6465 147.037 43.2344 146.258 43.2344 144.934ZM44.6992 144.934C44.6992 145.555 45.4902 145.871 46.9023 145.871C48.3438 145.871 49.1113 145.555 49.1172 144.934C49.1113 144.295 48.3438 143.979 46.9023 143.973C45.4902 143.979 44.6992 144.295 44.6992 144.934ZM47.2773 138.957C47.3242 139.145 47.3477 139.35 47.3477 139.555C47.3477 139.76 47.3242 139.953 47.2832 140.141H49.0586V138.957H47.2773ZM55.8203 138.043C55.8145 139.338 56.5703 140.58 58.2578 141.102L57.4609 142.262C56.3301 141.887 55.5391 141.16 55.082 140.229C54.6191 141.301 53.793 142.145 52.5742 142.555L51.7656 141.383C53.5469 140.791 54.3086 139.373 54.3203 137.903V136.93H55.8203V138.043ZM53.2422 144.969C53.2363 143.674 54.6484 142.906 56.8984 142.906C59.1074 142.906 60.4902 143.674 60.4961 144.969C60.4902 146.276 59.1074 147.037 56.8984 147.031C54.6484 147.037 53.2363 146.276 53.2422 144.969ZM54.7422 144.969C54.7305 145.573 55.498 145.86 56.8984 145.86C58.2812 145.86 59.0195 145.573 59.0195 144.969C59.0195 144.389 58.2812 144.078 56.8984 144.078C55.498 144.078 54.7305 144.389 54.7422 144.969ZM58.8906 142.696V136.367H60.3906V138.864H61.832V140.106H60.3906V142.696H58.8906ZM67.1641 136.52C69.6191 136.52 71.0371 137.164 71.043 138.336C71.0371 139.526 69.6191 140.164 67.1641 140.164C64.7031 140.164 63.2734 139.526 63.2734 138.336C63.2734 137.164 64.7031 136.52 67.1641 136.52ZM62.3008 141.852V140.668H72.0273V141.852H62.3008ZM63.4258 143.563V142.473H70.8438V145.192H64.9023V145.836H71.125V146.961H63.4375V144.149H69.3672V143.563H63.4258ZM64.8438 138.336C64.8379 138.858 65.5996 139.063 67.1641 139.063C68.7402 139.063 69.4961 138.858 69.4961 138.336C69.4961 137.862 68.7402 137.61 67.1641 137.61C65.5996 137.61 64.8379 137.862 64.8438 138.336ZM78.4141 136.824C79.7734 136.813 80.8574 137.592 81.1504 138.735H82.9375V136.367H84.4258V142.098H82.9375V139.93H81.1562C80.8809 141.102 79.7852 141.899 78.4141 141.899C76.7734 141.899 75.5664 140.832 75.5781 139.344C75.5664 137.885 76.7734 136.813 78.4141 136.824ZM76.9961 139.344C76.9902 140.141 77.5762 140.645 78.4141 140.645C79.2227 140.645 79.8027 140.141 79.8086 139.344C79.8027 138.547 79.2227 138.061 78.4141 138.067C77.5762 138.061 76.9902 138.547 76.9961 139.344ZM77.3125 146.914V142.567H78.7891V143.598H82.9375V142.567H84.4258V146.914H77.3125ZM78.7891 145.707H82.9375V144.746H78.7891V145.707ZM95.5703 144.617V145.848H85.8086V144.617H89.9219V143.012H86.9336V139.426H92.9688V138.254H86.9219V137.059H94.4453V140.598H88.4336V141.793H94.6914V143.012H91.4102V144.617H95.5703ZM104.875 141.301V142.496H97.3281V137.258H104.793V138.465H98.8047V141.301H104.875ZM96.1797 145.731V144.5H105.941V145.731H96.1797ZM111.695 137.996V139.18H106.539V137.996H108.391V136.66H109.867V137.996H111.695ZM106.785 142.192C106.785 140.709 107.781 139.666 109.141 139.66C110.506 139.666 111.479 140.709 111.484 142.192C111.479 143.68 110.506 144.735 109.141 144.735C107.781 144.735 106.785 143.68 106.785 142.192ZM108.098 142.192C108.098 143.006 108.52 143.469 109.141 143.469C109.738 143.469 110.166 143.006 110.172 142.192C110.166 141.389 109.738 140.903 109.141 140.903C108.52 140.903 108.098 141.389 108.098 142.192ZM112.094 146.574V136.578H113.488V140.703H114.355V136.367H115.773V147.031H114.355V141.899H113.488V146.574H112.094ZM126.648 142.25V143.446H122.5V147.031H121.023V143.446H116.922V142.25H126.648ZM117.402 140.457C119.559 140.194 120.754 139.151 120.912 138.102H117.801V136.93H125.781V138.102H122.67C122.822 139.151 124 140.194 126.191 140.457L125.652 141.629C123.777 141.377 122.436 140.58 121.791 139.485C121.141 140.58 119.811 141.377 117.953 141.629L117.402 140.457ZM130.715 139.051C130.709 140.78 131.189 142.561 132.648 143.492L131.84 144.653C130.914 144.096 130.334 143.17 129.994 142.08C129.613 143.287 128.975 144.301 128.008 144.887L127.094 143.785C128.676 142.807 129.262 140.926 129.262 139.121V137.281H130.715V139.051ZM131.523 141.184V139.965H132.906V136.52H134.301V146.539H132.906V141.184H131.523ZM135.109 147.031V136.367H136.539V147.031H135.109ZM147.426 144.559V145.789H137.664V144.559H139.844V141.946C139.018 141.448 138.52 140.692 138.52 139.754C138.52 138.026 140.207 136.889 142.527 136.883C144.836 136.889 146.541 138.026 146.547 139.754C146.541 140.674 146.061 141.418 145.258 141.916V144.559H147.426ZM139.996 139.754C139.996 140.797 140.998 141.442 142.527 141.442C144.033 141.442 145.064 140.797 145.07 139.754C145.064 138.682 144.033 138.061 142.527 138.067C140.998 138.061 139.996 138.682 139.996 139.754ZM141.32 144.559H143.746V142.485C143.365 142.561 142.955 142.602 142.527 142.602C142.1 142.602 141.695 142.561 141.32 142.49V144.559ZM149.418 146.059C148.867 146.059 148.422 145.619 148.434 145.074C148.422 144.535 148.867 144.096 149.418 144.102C149.939 144.096 150.391 144.535 150.391 145.074C150.391 145.619 149.939 146.059 149.418 146.059Z" fill="white"/>
<defs>
<filter id="filter0_d_345_1072" x="48.6816" y="0.953369" width="220.818" height="72.5728" filterUnits="userSpaceOnUse" color-interpolation-filters="sRGB">
<feFlood flood-opacity="0" result="BackgroundImageFix"/>
<feColorMatrix in="SourceAlpha" type="matrix" values="0 0 0 0 0 0 0 0 0 0 0 0 0 0 0 0 0 0 127 0" result="hardAlpha"/>
<feOffset dy="4"/>
<feGaussianBlur stdDeviation="2"/>
<feComposite in2="hardAlpha" operator="out"/>
<feColorMatrix type="matrix" values="0 0 0 0 0 0 0 0 0 0 0 0 0 0 0 0 0 0 0.05 0"/>
<feBlend mode="normal" in2="BackgroundImageFix" result="effect1_dropShadow_345_1072"/>
<feBlend mode="normal" in="SourceGraphic" in2="effect1_dropShadow_345_1072" result="shape"/>
</filter>
<filter id="filter1_d_345_1072" x="0.5" y="65.5266" width="220.818" height="122.865" filterUnits="userSpaceOnUse" color-interpolation-filters="sRGB">
<feFlood flood-opacity="0" result="BackgroundImageFix"/>
<feColorMatrix in="SourceAlpha" type="matrix" values="0 0 0 0 0 0 0 0 0 0 0 0 0 0 0 0 0 0 127 0" result="hardAlpha"/>
<feOffset dy="4"/>
<feGaussianBlur stdDeviation="2"/>
<feComposite in2="hardAlpha" operator="out"/>
<feColorMatrix type="matrix" values="0 0 0 0 0 0 0 0 0 0 0 0 0 0 0 0 0 0 0.05 0"/>
<feBlend mode="normal" in2="BackgroundImageFix" result="effect1_dropShadow_345_1072"/>
<feBlend mode="normal" in="SourceGraphic" in2="effect1_dropShadow_345_1072" result="shape"/>
</filter>
</defs>
</svg>
