<svg width="429" height="429" viewBox="0 0 429 429" fill="none" xmlns="http://www.w3.org/2000/svg">
<path d="M343.676 385.742C379.643 358.611 406.154 320.843 419.448 277.796C432.743 234.75 432.146 188.61 417.742 145.922C403.338 103.234 375.858 66.1644 339.201 39.9726C302.544 13.7808 258.57 -0.20392 213.518 0.00224718L214.01 107.532C236.477 107.429 258.406 114.403 276.687 127.465C294.968 140.527 308.671 159.013 315.855 180.301C323.038 201.589 323.335 224.598 316.706 246.065C310.076 267.532 296.855 286.367 278.918 299.897L343.676 385.742Z" fill="#0066FF"/>
<path d="M6.21147 163.254C-4.55196 207.003 -1.26717 253.029 15.5999 294.806C32.467 336.582 62.0599 371.987 100.181 395.998C138.302 420.009 183.016 431.407 227.98 428.576C272.943 425.745 315.874 408.828 350.683 380.225L282.413 297.145C265.055 311.41 243.645 319.846 221.222 321.258C198.799 322.67 176.501 316.985 157.49 305.011C138.48 293.037 123.722 275.381 115.311 254.548C106.899 233.714 105.261 210.761 110.629 188.944L6.21147 163.254Z" fill="#FBF580"/>
<path d="M67.4163 58.3696C37.3108 86.7307 16.0468 123.191 6.18555 163.359L110.616 188.996C115.533 168.965 126.137 150.783 141.151 136.639L67.4163 58.3696Z" fill="#00BBF5"/>
<path d="M214.5 0C159.881 -6.51321e-07 107.32 20.8356 67.5352 58.2575L141.21 136.583C161.05 117.922 187.262 107.531 214.5 107.531V0Z" fill="#ECECEC"/>
<path d="M374.985 173.193V170.529H387.725V173.193H382.956V186.084H379.754V173.193H374.985Z" fill="white"/>
<path d="M372.964 170.529V186.084H369.742V170.529H372.964Z" fill="white"/>
<path d="M367.121 170.529V186.084H363.898V170.529H367.121Z" fill="white"/>
<path d="M348.064 186.084V170.529H351.287V176.974H358.033V170.529H361.277V186.084H358.033V179.638H351.287V186.084H348.064Z" fill="white"/>
<path d="M142.481 324.343V343.894H139.71V324.343H142.481ZM126.11 338.351C131.159 335.966 133.383 332.872 133.823 328.532H127.163V326.384H136.616C136.605 332.313 134.532 337.244 127.55 340.542L126.11 338.351Z" fill="#121010"/>
<path d="M123.423 324.343V343.937H120.695V324.343H123.423ZM108.062 328.188V325.976H117.365V333.517H110.919V337.105C113.906 337.083 116.43 336.933 119.298 336.46L119.535 338.673C116.323 339.242 113.412 339.36 109.845 339.36H108.083V331.347H114.572V328.188H108.062Z" fill="#121010"/>
<path d="M97.4927 325.353V327.522H91.4341V331.476C94.8394 331.454 96.9019 331.304 99.19 330.831L99.4692 332.958C96.9341 333.549 94.5493 333.613 90.3384 333.603H88.7056V325.353H97.4927ZM90.5532 337.04V334.87H103.53V340.263H93.2817V341.487H104.088V343.679H90.5962V338.2H100.801V337.04H90.5532ZM100.78 334.075V324.343H103.53V328.038H106.172V330.272H103.53V334.075H100.78Z" fill="#121010"/>
<path d="M86.6826 115.343V134.893H83.9111V115.343H86.6826ZM70.3115 129.35C75.3604 126.966 77.584 123.872 78.0244 119.532H71.3643V117.384H80.8174C80.8067 123.313 78.7334 128.244 71.751 131.542L70.3115 129.35Z" fill="white"/>
<path d="M61.3955 116.481C61.3955 121.637 58.1621 125.193 52.3936 126.772L51.3408 124.645C55.5732 123.496 57.9795 121.369 58.4414 118.673H52.3936V116.481H61.3955ZM54.7783 134.678V127.159H67.7549V129.35H57.4854V132.487H68.1201V134.678H54.7783ZM61.5029 122.303V120.069H64.9834V115.364H67.7119V126.3H64.9834V122.303H61.5029Z" fill="white"/>
<path d="M380.154 205.885C380.154 204.426 381.103 203.182 382.786 203.182C384.514 203.182 385.418 204.417 385.418 205.885V206.565C385.418 208.034 384.487 209.278 382.786 209.269C381.076 209.278 380.154 208.034 380.154 206.565V205.885ZM373.619 199.153V198.473C373.619 197.005 374.586 195.761 376.269 195.77C377.988 195.761 378.892 197.005 378.883 198.473V199.153C378.892 200.613 377.961 201.848 376.269 201.857C374.541 201.848 373.619 200.613 373.619 199.153ZM374.246 209L383.162 196.038H384.666L375.75 209H374.246ZM375.105 199.153C375.114 199.87 375.41 200.577 376.269 200.568C377.119 200.577 377.406 199.87 377.397 199.153V198.473C377.406 197.748 377.137 197.041 376.269 197.041C375.427 197.041 375.114 197.748 375.105 198.473V199.153ZM381.64 206.565C381.631 207.291 381.926 207.989 382.786 207.998C383.636 207.989 383.932 207.291 383.932 206.565V205.885C383.932 205.16 383.663 204.462 382.786 204.453C381.944 204.462 381.631 205.16 381.64 205.885V206.565Z" fill="white"/>
<path d="M366.583 209.179C363.584 209.179 361.82 206.762 361.82 202.519C361.82 198.303 363.602 195.859 366.583 195.859C369.555 195.859 371.336 198.303 371.345 202.519C371.336 206.762 369.582 209.179 366.583 209.179ZM363.79 202.519C363.781 205.751 364.828 207.479 366.583 207.479C368.328 207.479 369.376 205.751 369.376 202.519C369.376 199.297 368.319 197.533 366.583 197.524C364.837 197.533 363.79 199.297 363.79 202.519Z" fill="white"/>
<path d="M350.147 206.476V204.882L355.877 196.038H358.312V204.811H360.084V206.476H358.312V209H356.45V206.476H350.147ZM352.224 204.811H356.45V198.383H356.306L352.224 204.703V204.811Z" fill="white"/>
<path d="M135.653 361.718C135.653 360.259 136.602 359.015 138.285 359.015C140.013 359.015 140.917 360.25 140.917 361.718V362.399C140.917 363.867 139.986 365.111 138.285 365.102C136.576 365.111 135.653 363.867 135.653 362.399V361.718ZM129.119 354.987V354.306C129.119 352.838 130.085 351.594 131.768 351.603C133.487 351.594 134.391 352.838 134.382 354.306V354.987C134.391 356.446 133.46 357.681 131.768 357.69C130.041 357.681 129.119 356.446 129.119 354.987ZM129.745 364.834L138.661 351.871H140.165L131.249 364.834H129.745ZM130.605 354.987C130.614 355.703 130.909 356.41 131.768 356.401C132.619 356.41 132.905 355.703 132.896 354.987V354.306C132.905 353.581 132.637 352.874 131.768 352.874C130.927 352.874 130.614 353.581 130.605 354.306V354.987ZM137.139 362.399C137.131 363.124 137.426 363.822 138.285 363.831C139.136 363.822 139.431 363.124 139.431 362.399V361.718C139.431 360.993 139.163 360.295 138.285 360.286C137.444 360.295 137.131 360.993 137.139 361.718V362.399Z" fill="#121010"/>
<path d="M117.982 364.834V363.401L122.476 358.872C123.899 357.395 124.606 356.571 124.606 355.434C124.606 354.154 123.568 353.34 122.207 353.34C120.766 353.34 119.853 354.253 119.844 355.631H117.982C117.964 353.259 119.772 351.692 122.243 351.692C124.741 351.692 126.468 353.277 126.486 355.381C126.468 356.831 125.788 357.986 123.353 360.376L120.721 363.043V363.151H126.701V364.834H117.982Z" fill="#121010"/>
<path d="M114.42 364.959C113.722 364.95 113.14 364.386 113.149 363.688C113.14 362.989 113.722 362.417 114.42 362.417C115.109 362.417 115.682 362.989 115.691 363.688C115.682 364.386 115.109 364.95 114.42 364.959Z" fill="#121010"/>
<path d="M106.74 365.013C103.92 365.013 101.959 363.491 101.977 361.378C101.959 359.713 103.15 358.353 104.681 358.12V358.048C103.347 357.744 102.461 356.562 102.461 355.148C102.461 353.152 104.26 351.692 106.74 351.692C109.183 351.692 110.992 353.152 111.001 355.148C110.992 356.562 110.088 357.744 108.781 358.048V358.12C110.294 358.353 111.493 359.713 111.502 361.378C111.493 363.491 109.515 365.013 106.74 365.013ZM103.982 361.235C103.956 362.506 105.03 363.383 106.74 363.383C108.423 363.383 109.497 362.506 109.497 361.235C109.497 359.901 108.333 358.925 106.74 358.925C105.128 358.925 103.956 359.901 103.982 361.235ZM104.376 355.327C104.385 356.535 105.352 357.377 106.74 357.368C108.091 357.377 109.076 356.544 109.067 355.327C109.076 354.118 108.127 353.295 106.74 353.304C105.316 353.295 104.385 354.118 104.376 355.327Z" fill="#121010"/>
<path d="M95.3701 365.013C92.6846 365.013 90.7778 363.571 90.6973 361.45H92.7025C92.7741 362.587 93.902 363.312 95.3522 363.312C96.9188 363.312 98.0557 362.461 98.0557 361.199C98.0557 359.919 96.9904 359.006 95.1374 358.997H94.0273V357.386H95.1374C96.6144 357.395 97.6439 356.571 97.6439 355.327C97.6439 354.145 96.7577 353.34 95.388 353.34C94.09 353.34 92.9263 354.065 92.8815 355.237H90.9837C91.0374 353.125 92.9889 351.692 95.4059 351.692C97.9572 351.692 99.5596 353.304 99.5417 355.219C99.5596 356.696 98.6465 357.753 97.25 358.102V358.191C99.0225 358.442 100.052 359.633 100.043 361.271C100.052 363.428 98.0557 365.013 95.3701 365.013Z" fill="#121010"/>
<path d="M247.769 224.487C247.793 220.352 250.523 216.815 255.385 216.839C260.342 216.815 262.976 220.328 263 224.487V226.304C262.976 230.439 260.27 233.976 255.385 234C250.451 233.976 247.793 230.439 247.769 226.304V224.487ZM230 206.513V204.696C230 200.514 232.778 197 237.615 197C242.573 197 245.207 200.514 245.183 204.696V206.513C245.207 210.672 242.501 214.138 237.615 214.114C232.658 214.138 230 210.624 230 206.513ZM232.203 232.805L256.055 198.195H260.462L236.61 232.805H232.203ZM234.885 206.513C234.909 208.162 235.58 209.859 237.615 209.859C239.675 209.859 240.298 208.162 240.298 206.513V204.696C240.298 203.023 239.747 201.278 237.615 201.302C235.556 201.278 234.909 203.047 234.885 204.696V206.513ZM252.655 226.304C252.655 227.929 253.301 229.674 255.385 229.65C257.444 229.674 258.091 227.977 258.067 226.304V224.487C258.091 222.838 257.516 221.093 255.385 221.093C253.349 221.093 252.655 222.838 252.655 224.487V226.304Z" fill="#121010"/>
<path d="M210.5 234C202.633 234 197 229.79 197 224.081C197 219.677 200.327 216.097 204.606 215.419V215.177C200.874 214.452 198.307 211.282 198.331 207.435C198.307 201.992 203.465 198 210.5 198C217.535 198 222.693 201.992 222.717 207.435C222.693 211.282 220.055 214.452 216.442 215.177V215.419C220.625 216.097 224 219.677 224 224.081C224 229.79 218.343 234 210.5 234ZM204.463 223.355C204.439 226.355 206.864 228.46 210.5 228.435C214.136 228.46 216.561 226.355 216.537 223.355C216.561 220.331 213.994 218.105 210.5 218.081C207.006 218.105 204.439 220.306 204.463 223.355ZM205.319 208.161C205.295 210.968 207.458 212.927 210.5 212.952C213.518 212.927 215.705 210.968 215.729 208.161C215.705 205.427 213.566 203.516 210.5 203.516C207.41 203.516 205.295 205.427 205.319 208.161Z" fill="#121010"/>
<path d="M178.5 234C170.633 234 165 229.79 165 224.081C165 219.677 168.327 216.097 172.606 215.419V215.177C168.874 214.452 166.307 211.282 166.331 207.435C166.307 201.992 171.465 198 178.5 198C185.535 198 190.693 201.992 190.717 207.435C190.693 211.282 188.055 214.452 184.442 215.177V215.419C188.625 216.097 192 219.677 192 224.081C192 229.79 186.343 234 178.5 234ZM172.463 223.355C172.439 226.355 174.864 228.46 178.5 228.435C182.136 228.46 184.561 226.355 184.537 223.355C184.561 220.331 181.994 218.105 178.5 218.081C175.006 218.105 172.439 220.306 172.463 223.355ZM173.319 208.161C173.295 210.968 175.458 212.927 178.5 212.952C181.518 212.927 183.705 210.968 183.729 208.161C183.705 205.427 181.566 203.516 178.5 203.516C175.41 203.516 173.295 205.427 173.319 208.161Z" fill="#121010"/>
<path d="M252.406 257V271.438H250.875V257H252.406ZM240.546 267.506C241.739 267.498 243.092 267.49 244.51 267.458V266.007C242.826 265.782 241.731 264.791 241.739 263.381C241.731 261.753 243.149 260.682 245.235 260.674C247.346 260.682 248.788 261.753 248.796 263.381C248.788 264.775 247.701 265.758 246.025 265.999V267.401C247.362 267.337 248.716 267.24 249.989 267.071L250.102 268.215C246.895 268.747 243.398 268.787 240.756 268.779L240.546 267.506ZM240.853 259.949V258.724H244.51V257.032H246.041V258.724H249.667V259.949H240.853ZM243.189 263.381C243.173 264.299 244.027 264.871 245.235 264.863C246.484 264.871 247.33 264.299 247.33 263.381C247.33 262.454 246.484 261.866 245.235 261.866C244.027 261.866 243.173 262.454 243.189 263.381Z" fill="#121010"/>
<path d="M238 258.402V270.068H236.211V260.174H236.146L233.359 261.995V260.303L236.259 258.402H238Z" fill="#121010"/>
<path d="M227.962 264.025V265.25H214.781V264.025H220.63V262.495H216.425V257.661H226.334V258.869H217.939V261.27H226.431V262.495H222.113V264.025H227.962ZM216.344 268.811C216.344 267.135 218.221 266.193 221.355 266.185C224.465 266.193 226.326 267.135 226.334 268.811C226.326 270.487 224.465 271.429 221.355 271.438C218.221 271.429 216.344 270.487 216.344 268.811ZM217.891 268.811C217.883 269.738 219.148 270.245 221.355 270.229C223.531 270.245 224.804 269.738 224.804 268.811C224.804 267.901 223.531 267.377 221.355 267.377C219.148 267.377 217.883 267.901 217.891 268.811Z" fill="#121010"/>
<path d="M213.718 264.235V265.476H207.998V268.279H206.451V265.476H200.505V264.235H213.718ZM201.955 260.271C201.947 258.466 203.993 257.346 207.095 257.338C210.197 257.346 212.227 258.466 212.219 260.271C212.227 262.068 210.197 263.188 207.095 263.188C203.993 263.188 201.947 262.068 201.955 260.271ZM202.165 271.131V266.894H203.695V269.875H212.251V271.131H202.165ZM203.599 260.271C203.583 261.31 204.984 261.947 207.095 261.947C209.214 261.947 210.6 261.31 210.608 260.271C210.6 259.199 209.214 258.571 207.095 258.563C204.984 258.571 203.583 259.199 203.599 260.271Z" fill="#121010"/>
<path d="M193.141 257.87V262.075H188.372V264.073C190.885 264.073 192.255 264.017 193.882 263.719L194.027 264.96C192.263 265.258 190.781 265.306 187.904 265.314H186.857V260.915H191.61V259.094H186.841V257.87H193.141ZM188.5 267.86V266.619H198.297V271.453H196.767V267.86H188.5ZM194.06 263.348V262.124H196.767V260.335H194.06V259.111H196.767V257.016H198.297V265.894H196.767V263.348H194.06Z" fill="#121010"/>
<path d="M183.537 257.854V258.998C183.545 260.222 183.545 261.648 183.175 263.558H185.213V264.815H172V263.558H181.636C182.014 261.681 182.022 260.311 182.022 259.094H173.66V257.854H183.537ZM173.724 271.131V266.313H175.239V269.874H183.972V271.131H173.724Z" fill="#121010"/>
<path d="M251.267 179.042V180.266H238.086V179.042H243.935V177.511H239.729V172.677H249.639V173.885H241.244V176.286H249.736V177.511H245.417V179.042H251.267ZM239.649 183.827C239.649 182.151 241.526 181.209 244.66 181.201C247.77 181.209 249.631 182.151 249.639 183.827C249.631 185.503 247.77 186.446 244.66 186.454C241.526 186.446 239.649 185.503 239.649 183.827ZM241.196 183.827C241.188 184.754 242.453 185.261 244.66 185.245C246.835 185.261 248.108 184.754 248.108 183.827C248.108 182.917 246.835 182.393 244.66 182.393C242.453 182.393 241.188 182.917 241.196 183.827Z" fill="#121010"/>
<path d="M237.023 179.251V180.492H231.303V183.295H229.756V180.492H223.81V179.251H237.023ZM225.26 175.287C225.252 173.482 227.299 172.363 230.4 172.354C233.502 172.363 235.532 173.482 235.524 175.287C235.532 177.084 233.502 178.204 230.4 178.204C227.299 178.204 225.252 177.084 225.26 175.287ZM225.47 186.147V181.91H227V184.891H235.557V186.147H225.47ZM226.904 175.287C226.888 176.326 228.29 176.963 230.4 176.963C232.519 176.963 233.905 176.326 233.913 175.287C233.905 174.216 232.519 173.587 230.4 173.579C228.29 173.587 226.888 174.216 226.904 175.287Z" fill="#121010"/>
<path d="M218.75 183.36V184.617H205.537V183.36H211.322V179.928H212.836V183.36H218.75ZM205.988 178.929C208.768 178.462 211.249 176.319 211.257 174.031V172.935H212.869V174.031C212.869 176.319 215.382 178.462 218.17 178.929L217.509 180.186C215.165 179.727 213.022 178.276 212.071 176.302C211.12 178.268 208.993 179.727 206.665 180.186L205.988 178.929Z" fill="#121010"/>
<path d="M196.288 174.659C196.288 176.592 197.634 178.413 199.833 179.154L199.043 180.363C197.424 179.799 196.216 178.647 195.579 177.188C194.951 178.816 193.71 180.073 192.018 180.701L191.164 179.493C193.452 178.711 194.765 176.761 194.773 174.61V172.902H196.288V174.659ZM193.484 186.147V181.62H195.047V184.907H203.249V186.147H193.484ZM201.09 182.651V172H202.621V176.351H204.715V177.656H202.621V182.651H201.09Z" fill="#121010"/>
<path d="M190.213 180.169V181.426H186.861V186.454H185.314V181.426H181.866V186.454H180.287V181.426H177V180.169H190.213ZM178.434 175.754C178.442 173.805 180.521 172.564 183.574 172.564C186.628 172.564 188.722 173.805 188.714 175.754C188.722 177.68 186.628 178.896 183.574 178.88C180.521 178.896 178.442 177.68 178.434 175.754ZM180.013 175.754C180.005 176.939 181.431 177.672 183.574 177.672C185.725 177.672 187.143 176.939 187.151 175.754C187.143 174.538 185.725 173.797 183.574 173.789C181.431 173.797 180.005 174.538 180.013 175.754Z" fill="#121010"/>
<path d="M84.0915 152.718C84.0915 151.259 85.0404 150.015 86.7233 150.015C88.451 150.015 89.3552 151.25 89.3552 152.718V153.398C89.3552 154.867 88.4242 156.111 86.7233 156.102C85.0135 156.111 84.0915 154.867 84.0915 153.398V152.718ZM77.5566 145.986V145.306C77.5566 143.838 78.5234 142.594 80.2064 142.603C81.9251 142.594 82.8293 143.838 82.8203 145.306V145.986C82.8293 147.446 81.8983 148.681 80.2064 148.69C78.4787 148.681 77.5566 147.446 77.5566 145.986ZM78.1833 155.833L87.0993 142.871H88.6032L79.6872 155.833H78.1833ZM79.0426 145.986C79.0516 146.703 79.347 147.41 80.2064 147.401C81.0568 147.41 81.3433 146.703 81.3343 145.986V145.306C81.3433 144.581 81.0747 143.874 80.2064 143.874C79.3649 143.874 79.0516 144.581 79.0426 145.306V145.986ZM85.5775 153.398C85.5685 154.124 85.8639 154.822 86.7233 154.831C87.5737 154.822 87.8692 154.124 87.8692 153.398V152.718C87.8692 151.993 87.6006 151.295 86.7233 151.286C85.8818 151.295 85.5685 151.993 85.5775 152.718V153.398Z" fill="white"/>
<path d="M70.5204 156.012C67.7006 156.012 65.7401 154.491 65.758 152.378C65.7401 150.713 66.9307 149.352 68.4615 149.12V149.048C67.1276 148.744 66.2414 147.562 66.2414 146.148C66.2414 144.151 68.0407 142.692 70.5204 142.692C72.9642 142.692 74.7725 144.151 74.7815 146.148C74.7725 147.562 73.8684 148.744 72.5614 149.048V149.12C74.0743 149.352 75.2738 150.713 75.2828 152.378C75.2738 154.491 73.2955 156.012 70.5204 156.012ZM67.7632 152.235C67.7364 153.506 68.8106 154.383 70.5204 154.383C72.2033 154.383 73.2776 153.506 73.2776 152.235C73.2776 150.901 72.1138 149.925 70.5204 149.925C68.9091 149.925 67.7364 150.901 67.7632 152.235ZM68.1571 146.327C68.1661 147.535 69.1329 148.377 70.5204 148.368C71.8721 148.377 72.8568 147.544 72.8479 146.327C72.8568 145.118 71.9079 144.295 70.5204 144.303C69.097 144.295 68.1661 145.118 68.1571 146.327Z" fill="white"/>
<path d="M62.8743 155.958C62.176 155.949 61.5942 155.385 61.6031 154.687C61.5942 153.989 62.176 153.416 62.8743 153.416C63.5636 153.416 64.1365 153.989 64.1454 154.687C64.1365 155.385 63.5636 155.949 62.8743 155.958Z" fill="white"/>
<path d="M55.1227 142.692C57.5039 142.71 60.0015 144.142 60.0104 148.887C60.0104 153.434 58.05 156.013 54.9437 156.013C52.5536 156.013 50.8885 154.536 50.5752 152.432H52.5267C52.7952 153.524 53.6367 154.285 54.9437 154.294C56.9399 154.285 58.1126 152.548 58.1305 149.585H57.9694C57.2712 150.677 56.0537 151.34 54.6572 151.34C52.3298 151.34 50.4678 149.558 50.4678 147.079C50.4678 144.608 52.3029 142.674 55.1227 142.692ZM52.3835 147.043C52.3924 148.547 53.5114 149.737 55.0869 149.728C56.6535 149.737 57.862 148.457 57.862 147.025C57.862 145.62 56.7072 144.339 55.1227 144.339C53.5562 144.339 52.3745 145.557 52.3835 147.043Z" fill="white"/>
<path d="M269.779 146.224C271.198 146.224 272.276 146.542 273.01 147.177C273.745 147.812 274.113 148.659 274.113 149.717C274.113 150.029 274.088 150.309 274.038 150.558C273.876 151.455 273.49 152.245 272.88 152.93C272.269 153.603 271.479 154.088 270.507 154.387L272.487 159.45H267.929L266.267 154.705L265.426 159.45H261.279L263.614 146.224H269.779ZM266.753 151.94H268.396C268.795 151.94 269.106 151.853 269.33 151.679C269.567 151.492 269.723 151.205 269.797 150.819C269.81 150.757 269.816 150.676 269.816 150.577C269.816 150.303 269.729 150.091 269.555 149.941C269.38 149.78 269.125 149.699 268.789 149.699H267.145L266.753 151.94Z" fill="black"/>
<path d="M253.04 159.58C251.919 159.58 250.935 159.35 250.088 158.889C249.241 158.428 248.587 157.781 248.127 156.947C247.666 156.1 247.436 155.135 247.436 154.051C247.436 152.47 247.759 151.075 248.407 149.867C249.067 148.646 249.982 147.7 251.153 147.027C252.336 146.342 253.693 146 255.225 146C256.371 146 257.367 146.23 258.214 146.691C259.073 147.139 259.733 147.781 260.194 148.615C260.655 149.437 260.885 150.39 260.885 151.473C260.885 153.042 260.555 154.443 259.895 155.676C259.248 156.909 258.326 157.868 257.13 158.553C255.947 159.238 254.584 159.58 253.04 159.58ZM253.675 155.714C254.322 155.714 254.883 155.546 255.356 155.209C255.842 154.861 256.209 154.406 256.458 153.846C256.707 153.273 256.832 152.656 256.832 151.996C256.832 151.311 256.645 150.782 256.271 150.408C255.91 150.022 255.387 149.829 254.702 149.829C254.055 149.829 253.488 149.998 253.002 150.334C252.517 150.67 252.143 151.125 251.881 151.697C251.632 152.258 251.508 152.868 251.508 153.528C251.508 154.213 251.688 154.748 252.05 155.135C252.423 155.521 252.965 155.714 253.675 155.714Z" fill="black"/>
<path d="M247.768 146.224L247.189 149.512H243.677L241.921 159.45H237.774L239.53 149.512H236.056L236.635 146.224H247.768Z" fill="black"/>
<path d="M230.221 157.451H225.813L224.804 159.45H220.452L227.625 146.224H232.407L234.891 159.45H230.52L230.221 157.451ZM229.773 154.331L229.231 150.651L227.382 154.331H229.773Z" fill="black"/>
<path d="M214.529 156.189H220.157L219.596 159.327H209.821L212.156 146.102H216.303L214.529 156.189Z" fill="black"/>
<path d="M202.729 146.224L201.421 153.677C201.384 153.877 201.365 154.082 201.365 154.294C201.365 154.717 201.477 155.054 201.701 155.303C201.926 155.539 202.28 155.658 202.766 155.658C203.364 155.658 203.837 155.483 204.186 155.135C204.535 154.773 204.765 154.288 204.877 153.677L206.185 146.224H210.313L209.005 153.677C208.781 154.973 208.333 156.062 207.66 156.946C207 157.831 206.185 158.491 205.213 158.927C204.254 159.362 203.196 159.58 202.038 159.58C200.556 159.58 199.373 159.194 198.488 158.422C197.604 157.638 197.162 156.523 197.162 155.078C197.162 154.618 197.206 154.151 197.293 153.677L198.6 146.224H202.729Z" fill="black"/>
<path d="M195.842 149.215C195.035 147.968 193.844 147.017 192.449 146.506C191.054 145.995 189.531 145.952 188.109 146.383C186.687 146.813 185.444 147.694 184.566 148.893C183.689 150.092 183.225 151.543 183.245 153.029C183.264 154.514 183.767 155.953 184.675 157.128C185.584 158.303 186.85 159.151 188.283 159.544C189.716 159.936 191.238 159.853 192.618 159.305C193.999 158.757 195.165 157.776 195.939 156.508L192.588 154.462C192.258 155.003 191.761 155.422 191.171 155.655C190.582 155.889 189.932 155.925 189.321 155.757C188.709 155.59 188.169 155.228 187.781 154.726C187.393 154.225 187.179 153.611 187.17 152.977C187.162 152.343 187.36 151.723 187.734 151.212C188.109 150.7 188.639 150.324 189.246 150.14C189.853 149.956 190.503 149.975 191.099 150.193C191.694 150.411 192.203 150.817 192.547 151.349L195.842 149.215Z" fill="black"/>
<path d="M183.485 146.224L182.906 149.512H179.394L177.638 159.45H173.492L175.247 149.512H171.773L172.352 146.224H183.485Z" fill="black"/>
<path d="M171.227 146.224L168.892 159.45H164.745L167.08 146.224H171.227Z" fill="black"/>
<path d="M165.831 146.062L165.244 149.39H159.982L159.66 151.243L164.897 151.243L164.329 154.401L159.092 154.401L158.202 159.45H154L156.366 146.062H165.831Z" fill="black"/>
</svg>
