<svg width="60" height="90" viewBox="0 0 60 90" fill="none" xmlns="http://www.w3.org/2000/svg">
<g id="Group 2928">
<rect id="Rectangle 22" x="2" y="13.5" width="56" height="63" rx="8.5" stroke="black" stroke-width="3" stroke-linecap="round" stroke-linejoin="round"/>
<rect id="Rectangle 25" x="7.5" y="19.5" width="45" height="51" rx="4.5" stroke="black" stroke-width="3" stroke-linecap="round" stroke-linejoin="round"/>
<path id="Rectangle 23" d="M18.1624 3.26781C18.4842 2.21731 19.4541 1.5 20.5528 1.5H39.8184C40.9432 1.5 41.9295 2.25121 42.2285 3.3356L45.0305 13.5H15.0282L18.1624 3.26781Z" stroke="black" stroke-width="3" stroke-linecap="round" stroke-linejoin="round"/>
<path id="Rectangle 24" d="M41.8376 86.7322C41.5158 87.7827 40.5459 88.5 39.4472 88.5L20.1816 88.5C19.0568 88.5 18.0705 87.7488 17.7715 86.6644L14.9695 76.5L44.9717 76.5L41.8376 86.7322Z" stroke="black" stroke-width="3" stroke-linecap="round" stroke-linejoin="round"/>
<path id="Vector 2" d="M17 44.5H24.54L25.71 47.963L27.27 39L31.56 50L33.51 42.6667L35.46 46.1296L36.045 44.5H43" stroke="black" stroke-width="3" stroke-linecap="round" stroke-linejoin="round"/>
<path id="Vector" d="M42.6867 35.2986C41.9537 34.5699 41.0833 33.9918 40.1254 33.5974C39.1675 33.203 38.1407 33 37.1038 33C36.0669 33 35.0402 33.203 34.0822 33.5974C33.1243 33.9918 32.254 34.5699 31.5209 35.2986L29.9996 36.8102L28.4783 35.2986C26.9976 33.8273 24.9894 33.0008 22.8954 33.0008C20.8014 33.0008 18.7932 33.8273 17.3125 35.2986C15.8318 36.7699 15 38.7653 15 40.846C15 42.9267 15.8318 44.9222 17.3125 46.3935L18.8338 47.9051L29.9996 59L41.1654 47.9051L42.6867 46.3935C43.4201 45.6651 44.0019 44.8003 44.3988 43.8484C44.7957 42.8966 45 41.8764 45 40.846C45 39.8157 44.7957 38.7955 44.3988 37.8436C44.0019 36.8918 43.4201 36.027 42.6867 35.2986Z" stroke="black" stroke-width="3" stroke-linecap="round" stroke-linejoin="round"/>
</g>
</svg>
